<?xml version="1.0" standalone="no"?>
<!DOCTYPE svg PUBLIC "-//W3C//DTD SVG 1.1//EN" "http://www.w3.org/Graphics/SVG/1.1/DTD/svg11.dtd" >
<svg xmlns="http://www.w3.org/2000/svg" xmlns:xlink="http://www.w3.org/1999/xlink" version="1.1">
<metadata>
Created by FontForge 20170731 at Mon Sep 12 19:37:13 2022
 By Aleksey,,,
Copyright (c) 2000 Adobe Systems Incorporated. All Rights Reserved. U.S. Patent Des. pending.
</metadata>
<defs>
<font id="MyriadPro-LightCond" horiz-adv-x="737" >
  <font-face 
    font-family="Myriad Pro Light Cond"
    font-weight="300"
    font-stretch="condensed"
    units-per-em="2048"
    panose-1="2 11 4 6 3 4 3 2 2 4"
    ascent="1536"
    descent="-512"
    x-height="983"
    cap-height="1380"
    bbox="-96 -512 1987 1767"
    underline-thickness="102"
    underline-position="-307"
    unicode-range="U+0020-FB04"
  />
<missing-glyph horiz-adv-x="1024" 
d="M0 0v1434h1024v-1434h-1024zM512 809l348 522h-696zM573 717l349 -522v1044zM164 102h696l-348 523zM102 1239v-1044l349 522z" />
    <glyph glyph-name="f_f_j" unicode="ffj" horiz-adv-x="1185" 
d="M1049 1382l-33 -69q-73 43 -148 43q-61 0 -102.5 -22t-63.5 -66t-31 -97.5t-9 -128.5v-59h411v-926q0 -150 -17 -230t-63 -138q-35 -42 -85.5 -69t-86.5 -30l-20 72q100 31 135 90q27 47 38 120.5t11 225.5v809h-323v-907h-89v907h-340v-907h-88v907h-118v76h118v51
q0 97 17.5 165.5t64.5 123.5q35 41 88.5 64.5t110.5 23.5q70 0 127 -35l-31 -71q-54 28 -104 28q-88 0 -133 -67q-52 -74 -52 -232v-51h340v74q0 80 18 146.5t54 119t97 82t141 29.5q53 0 99 -16t67 -36z" />
    <glyph glyph-name="f_j" unicode="fj" horiz-adv-x="757" 
d="M233 0h-88v907h-118v76h118v74q0 80 18 146.5t54 119t97 82t141 29.5q53 0 99 -16t67 -36l-33 -69q-73 43 -148 43q-49 0 -86 -15t-59.5 -41.5t-36.5 -67t-19.5 -86t-5.5 -104.5v-59h412v-926q0 -150 -17 -230t-63 -138q-35 -42 -85.5 -69t-86.5 -30l-20 72
q100 31 135 90q27 47 38 120.5t11 225.5v809h-324v-907z" />
    <glyph glyph-name="ff" unicode="ff" horiz-adv-x="823" 
d="M662 0h-89v907h-340v-907h-88v907h-118v76h118v66q0 202 86 294q62 68 170 68q59 0 95 -18l-21 -76q-36 16 -82 16q-87 0 -123.5 -68t-36.5 -216v-66h340v74q0 202 78 297q67 80 172 80q58 0 103 -25l-25 -72q-43 19 -88 19q-46 0 -77.5 -24t-46.5 -69t-21 -93t-6 -113
v-74h186v-76h-186v-907z" />
    <glyph glyph-name="fi" unicode="fi" horiz-adv-x="765" 
d="M233 0h-88v907h-118v76h118v74q0 80 18 146.5t54 119t97 82t141 29.5q53 0 99 -16t67 -36l-33 -69q-73 43 -148 43q-49 0 -86 -15t-59.5 -41.5t-36.5 -67t-19.5 -86t-5.5 -104.5v-59h412v-983h-88v907h-324v-907z" />
    <glyph glyph-name="fl" unicode="fl" horiz-adv-x="765" 
d="M233 0h-88v907h-118v76h118v64q0 209 105 311q79 76 209 76q46 0 99.5 -14t88.5 -36v-1384h-88v1329q-56 27 -123 27q-56 0 -97 -24t-63.5 -67.5t-32.5 -95t-10 -114.5v-72h187v-76h-187v-907z" />
    <glyph glyph-name="ffi" unicode="ffi" horiz-adv-x="1193" 
d="M1049 1382l-33 -69q-73 43 -148 43q-61 0 -102.5 -22t-63.5 -66t-31 -97.5t-9 -128.5v-59h411v-983h-88v907h-323v-907h-89v907h-340v-907h-88v907h-118v76h118v51q0 97 17.5 165.5t64.5 123.5q35 41 88.5 64.5t110.5 23.5q70 0 127 -35l-31 -71q-54 28 -104 28
q-88 0 -133 -67q-52 -74 -52 -232v-51h340v74q0 80 18 146.5t54 119t97 82t141 29.5q53 0 99 -16t67 -36z" />
    <glyph glyph-name="ffl" unicode="ffl" horiz-adv-x="1193" 
d="M553 1376l-31 -71q-54 28 -104 28q-88 0 -133 -67q-52 -74 -52 -232v-51h340v64q0 209 105 311q79 76 209 76q46 0 99.5 -14t88.5 -36v-1384h-88v1329q-56 27 -123 27q-56 0 -97 -24t-63 -67.5t-32 -95t-10 -114.5v-72h186v-76h-186v-907h-89v907h-340v-907h-88v907h-118
v76h118v51q0 97 17.5 165.5t64.5 123.5q35 41 88.5 64.5t110.5 23.5q70 0 127 -35z" />
    <glyph glyph-name=".notdef" horiz-adv-x="1024" 
d="M0 0v1434h1024v-1434h-1024zM512 809l348 522h-696zM573 717l349 -522v1044zM164 102h696l-348 523zM102 1239v-1044l349 522z" />
    <glyph glyph-name=".null" horiz-adv-x="0" 
 />
    <glyph glyph-name="nonmarkingreturn" horiz-adv-x="682" 
 />
    <glyph glyph-name="space" unicode=" " horiz-adv-x="317" 
 />
    <glyph glyph-name="space" unicode="&#xa0;" horiz-adv-x="317" 
 />
    <glyph glyph-name="exclam" unicode="!" horiz-adv-x="376" 
d="M225 344h-71l-15 1036h101zM188 -16h-2q-29 0 -47 21t-18 56q0 36 18.5 58t48.5 22q33 0 50.5 -22t17.5 -58t-17.5 -56.5t-50.5 -20.5z" />
    <glyph glyph-name="quotedbl" unicode="&#x22;" horiz-adv-x="606" 
d="M125 1399h100l-18 -445h-64zM383 1399h100l-18 -445h-64z" />
    <glyph glyph-name="numbersign" unicode="#" 
d="M264 492h166l45 360h-166zM201 0h-76l53 414h-123v78h133l48 360h-136v74h146l53 405h74l-54 -405h168l54 405h73l-53 -405h121v-74h-131l-45 -360h135v-74h-145l-54 -418h-77l53 418h-164z" />
    <glyph glyph-name="dollar" unicode="$" 
d="M408 -170h-76v203q-129 0 -232 78l35 69q41 -30 97 -50.5t108 -20.5q99 0 156 71t57 180q0 101 -45.5 172.5t-142.5 129.5q-31 18 -47 27.5t-47.5 31t-49.5 38.5t-42.5 43.5t-37.5 52.5t-22.5 60.5t-9.5 71.5q0 122 66.5 204t156.5 101v193h76v-185q60 0 113 -17.5
t79 -39.5l-35 -69q-89 51 -178 51q-86 0 -138 -65t-52 -146q0 -55 12.5 -95t45 -73.5t62.5 -54t91 -56.5q117 -68 175 -155t58 -205q0 -142 -66.5 -228t-166.5 -106v-211z" />
    <glyph glyph-name="percent" unicode="%" horiz-adv-x="1306" 
d="M317 1348h2q100 0 170 -102t70 -300q0 -196 -70.5 -297.5t-171.5 -101.5q-100 0 -169.5 101.5t-69.5 297.5q0 198 69.5 300t169.5 102zM317 1278h-2q-45 0 -77 -34t-47.5 -89t-22 -106.5t-6.5 -102.5q0 -52 6.5 -103t22 -105.5t48 -88t78.5 -33.5q37 0 66.5 23.5t46 58
t27.5 81t14.5 87t3.5 80.5q0 51 -7 102.5t-22.5 106.5t-49 89t-79.5 34zM338 -33h-76l703 1395h75zM987 784h2q100 0 170 -101.5t70 -299.5q0 -196 -70.5 -297.5t-171.5 -101.5q-100 0 -169.5 101.5t-69.5 297.5q0 198 69.5 299.5t169.5 101.5zM987 715h-2
q-36 0 -64.5 -23.5t-45 -59t-27 -82.5t-14 -87.5t-3.5 -79.5q0 -50 8 -102.5t24.5 -106t48.5 -87.5t75 -34q37 0 66.5 23.5t46 58t27.5 81t14.5 87t3.5 80.5q0 51 -7 102.5t-22.5 106.5t-49 89t-79.5 34z" />
    <glyph glyph-name="ampersand" unicode="&#x26;" horiz-adv-x="958" 
d="M905 0h-104q-5 7 -41 55.5t-70 98.5q-56 -81 -135.5 -125.5t-161.5 -44.5q-81 0 -144.5 33.5t-101 89t-56.5 121t-19 134.5q0 236 207 406l2 6q-101 172 -101 316q0 125 65.5 216t178.5 91q81 0 143 -68t62 -201q0 -105 -56.5 -191.5t-179.5 -176.5v-6q106 -185 299 -453
q46 100 69 224.5t27 217.5h89q-26 -314 -138 -507q14 -26 166 -236zM403 63h3q70 0 132.5 40t106.5 114q-190 265 -328 490q-153 -141 -153 -338q0 -80 25 -148t81 -113t133 -45zM408 1317h-2q-65 0 -101.5 -61.5t-36.5 -157.5q0 -142 84 -281q94 71 142.5 145t48.5 162
q0 81 -33.5 137t-101.5 56z" />
    <glyph glyph-name="quotesingle" unicode="'" horiz-adv-x="348" 
d="M125 1399h100l-18 -445h-64z" />
    <glyph glyph-name="parenleft" unicode="(" horiz-adv-x="512" 
d="M371 1417h80q-94 -149 -152.5 -360.5t-58.5 -470.5q0 -258 58.5 -470.5t152.5 -361.5h-80q-92 140 -154.5 348.5t-62.5 483.5q0 277 62.5 484.5t154.5 346.5z" />
    <glyph glyph-name="parenright" unicode=")" horiz-adv-x="512" 
d="M141 -246h-80q94 149 152.5 361.5t58.5 470.5q0 259 -58.5 470.5t-152.5 360.5h80q92 -139 154.5 -346.5t62.5 -484.5q0 -275 -62.5 -483.5t-154.5 -348.5z" />
    <glyph glyph-name="asterisk" unicode="*" horiz-adv-x="747" 
d="M498 1397l75 -41l-157 -250v-4l270 26v-86l-268 19v-4l162 -238l-78 -47l-129 254h-4l-127 -262l-74 49l158 246v4l-265 -21v86l261 -22v4l-152 238l70 41l131 -248h4z" />
    <glyph glyph-name="plus" unicode="+" horiz-adv-x="1220" 
d="M569 1090h82v-504h488v-78h-488v-508h-82v508h-487v78h487v504z" />
    <glyph glyph-name="comma" unicode="," horiz-adv-x="348" 
d="M115 -248l-70 -10q25 66 59.5 203.5t47.5 230.5l120 21q-26 -109 -78 -254t-79 -191z" />
    <glyph glyph-name="hyphen" unicode="-" horiz-adv-x="595" 
d="M61 555h474v-78h-474v78z" />
    <glyph glyph-name="hyphen" unicode="&#xad;" horiz-adv-x="595" 
d="M61 555h474v-78h-474v78z" />
    <glyph glyph-name="period" unicode="." horiz-adv-x="348" 
d="M174 -16h-2q-31 0 -50.5 22.5t-19.5 59.5t20 60.5t52 23.5q34 0 53 -23t19 -61t-18.5 -60t-53.5 -22z" />
    <glyph glyph-name="slash" unicode="/" horiz-adv-x="575" 
d="M137 -82h-84l416 1479h84z" />
    <glyph glyph-name="zero" unicode="0" 
d="M358 -16h-2q-61 0 -113 39t-94 117.5t-66 213.5t-24 312q0 348 88.5 515t233.5 167q61 0 113 -39t94 -117.5t66 -213.5t24 -312q0 -348 -88 -515t-232 -167zM369 61h2q55 0 97.5 48t68 132t38.5 191.5t13 233.5t-13 233t-38.5 191.5t-68.5 132t-99 47.5t-99 -47.5
t-68.5 -132t-38.5 -191.5t-13 -233t13 -233.5t38.5 -191.5t68.5 -132t99 -48z" />
    <glyph glyph-name="one" unicode="1" 
d="M397 0v1229h-4l-219 -135l-22 69l266 168h65v-1331h-86z" />
    <glyph glyph-name="two" unicode="2" 
d="M662 0h-586v53l98 144q10 15 31 45q61 88 94 137.5t86.5 140.5t82 158.5t51 153.5t22.5 163q0 131 -51 202t-150 71q-29 0 -56 -5.5t-49 -17t-35 -19.5t-30 -21.5t-18 -14.5l-33 63q95 95 237 95q131 0 203 -96t72 -255q0 -90 -27 -187t-80.5 -202t-104.5 -188.5
t-128 -196.5l-94 -139v-4h465v-80z" />
    <glyph glyph-name="three" unicode="3" 
d="M61 47l33 72q88 -58 189 -58q110 0 178.5 82t68.5 228q0 144 -75 229.5t-205 85.5h-37v72h33q36 0 78 17.5t81 50t65 87.5t26 121q0 115 -51.5 175.5t-137.5 60.5q-78 0 -166 -70l-32 68q88 80 217 80q118 0 189 -83t71 -214q0 -103 -52 -188.5t-151 -131.5v-4
q99 -24 168.5 -111.5t69.5 -244.5q0 -170 -93 -278.5t-249 -108.5q-57 0 -119 17.5t-99 45.5z" />
    <glyph glyph-name="four" unicode="4" 
d="M565 0h-86v397h-434v60l432 874h88v-858h152v-76h-152v-397zM147 473h332v440q0 126 10 289h-8q-56 -134 -123 -278l-211 -447v-4z" />
    <glyph glyph-name="five" unicode="5" 
d="M641 1331v-80h-362l-70 -426q18 6 55 6q64 0 135.5 -26.5t118.5 -73.5q111 -111 111 -303q0 -197 -105.5 -320.5t-261.5 -123.5q-59 0 -117 16t-96 45l33 72q32 -21 82 -38.5t100 -17.5q112 0 193.5 93t81.5 264q0 166 -83.5 251t-226.5 85q-54 0 -110 -9l92 586h430z
" />
    <glyph glyph-name="six" unicode="6" 
d="M608 1348v-82q-24 0 -84 -13q-89 -24 -157 -82t-109.5 -139t-65 -162.5t-36.5 -175.5h4q93 142 237 142q125 0 202 -110t77 -298q0 -200 -79.5 -322t-215.5 -122q-80 0 -142 42.5t-99 117t-55.5 169.5t-18.5 207q0 355 143 588q55 89 140.5 147.5t180.5 79.5q49 10 78 13
zM383 61h2q28 0 54.5 9t54 34t47.5 62.5t32.5 100t12.5 141.5q0 181 -58 265.5t-155 84.5q-64 0 -120.5 -44t-90.5 -132q-10 -30 -10 -58q1 -121 19 -212.5t50.5 -145t73 -79.5t88.5 -26z" />
    <glyph glyph-name="seven" unicode="7" 
d="M74 1331h590v-45l-439 -1286h-88l432 1247v4h-495v80z" />
    <glyph glyph-name="eight" unicode="8" 
d="M381 1348h2q55 0 100 -20t72.5 -51t46 -72t26 -81t7.5 -80q0 -192 -182 -327v-6q217 -162 217 -373q0 -93 -34.5 -172.5t-105.5 -130.5t-165 -51q-78 0 -138 32t-93 83t-49.5 105t-16.5 107q0 72 20 135t56 112t71.5 83.5t81.5 69.5l-2 4q-83 58 -132.5 141t-49.5 170
q0 144 79.5 233t188.5 89zM367 61h2q89 0 150 65t61 204q0 81 -30.5 147t-72.5 108t-110 91q-97 -59 -153 -151.5t-56 -188.5q0 -127 56.5 -201t152.5 -74zM375 1270h-2q-73 0 -121.5 -62.5t-48.5 -167.5q0 -39 7 -72.5t23.5 -62.5t29.5 -48t41 -42.5t40 -33t43 -31.5
q158 122 158 280q0 113 -45.5 176.5t-124.5 63.5z" />
    <glyph glyph-name="nine" unicode="9" 
d="M129 -16v82q41 0 84 12q116 31 197 121q141 161 172 444h-4q-95 -129 -234 -129q-123 0 -199.5 107.5t-76.5 285.5q0 189 85 315t214 126q79 0 139 -43t96 -117.5t54 -167t18 -199.5q0 -368 -150 -600q-56 -86 -133 -143.5t-162 -79.5q-57 -14 -100 -14zM362 1270h-2
q-35 0 -68.5 -18.5t-64.5 -57t-50 -111t-19 -168.5q0 -168 57.5 -245.5t155.5 -77.5q60 0 114.5 38.5t87.5 110.5q13 29 13 50q0 245 -61.5 362t-162.5 117z" />
    <glyph glyph-name="colon" unicode=":" horiz-adv-x="348" 
d="M174 784h-2q-31 0 -50.5 22.5t-19.5 59.5t20 60.5t52 23.5q34 0 53 -23t19 -61t-18.5 -60t-53.5 -22zM174 -16h-2q-31 0 -50.5 22.5t-19.5 59.5t20 60.5t52 23.5q34 0 53 -23t19 -61t-18.5 -60t-53.5 -22z" />
    <glyph glyph-name="semicolon" unicode=";" horiz-adv-x="348" 
d="M115 -248l-70 -10q25 66 59.5 203.5t47.5 230.5l120 21q-26 -109 -78 -254t-79 -191zM205 784h-2q-31 0 -50.5 22.5t-19.5 59.5t20 60.5t52 23.5q34 0 52.5 -23t18.5 -61t-18.5 -60t-52.5 -22z" />
    <glyph glyph-name="less" unicode="&#x3c;" horiz-adv-x="1220" 
d="M145 506v78l930 506v-93l-839 -450v-4l839 -451v-92z" />
    <glyph glyph-name="equal" unicode="=" horiz-adv-x="1220" 
d="M1139 709h-1057v77h1057v-77zM1139 319h-1057v78h1057v-78z" />
    <glyph glyph-name="greater" unicode="&#x3e;" horiz-adv-x="1220" 
d="M1075 584v-78l-930 -506v92l840 451v4l-840 450v93z" />
    <glyph glyph-name="question" unicode="?" horiz-adv-x="602" 
d="M322 344h-86l-5 25q-41 218 72 415q9 15 36 61.5t35 61.5t26 52t24 59t12 54.5t6 64.5q0 99 -47 143.5t-123 44.5q-86 0 -139 -39l-27 70q24 18 75.5 33.5t107.5 15.5q119 0 183.5 -72.5t64.5 -189.5q0 -55 -17 -112t-35.5 -92.5t-54 -96t-49.5 -86.5q-52 -96 -66 -177
t2 -206zM264 -16h-2q-31 0 -50 22.5t-19 59.5t19.5 60.5t51.5 23.5q34 0 53 -23t19 -61t-18.5 -60t-53.5 -22z" />
    <glyph glyph-name="at" unicode="@" horiz-adv-x="1167" 
d="M713 479l67 320q-21 8 -59 8q-70 0 -132.5 -44.5t-104 -113t-65.5 -150t-24 -157.5q0 -73 24.5 -106t63.5 -33q71 0 139 86.5t91 189.5zM815 -74l23 -61q-118 -76 -289 -76q-215 0 -344 144.5t-129 431.5q0 177 51 336t137 273t204 180.5t247 66.5q183 0 287 -126
t104 -345q0 -295 -87 -456t-222 -161q-49 0 -79 39.5t-22 118.5h-4q-95 -158 -223 -158q-72 0 -116 53t-44 158q0 54 12.5 113t36 119t61.5 114t86 96t113 66.5t138 24.5q65 0 116 -21l-90 -436q-22 -110 -12.5 -163.5t47.5 -53.5q53 0 101 66t78 183t30 253q0 442 -321 442
q-110 0 -210 -59t-174.5 -161t-118.5 -250t-44 -317q0 -243 105 -369t308 -126q119 0 244 61z" />
    <glyph glyph-name="A" unicode="A" horiz-adv-x="862" 
d="M600 475h-342l-111 -475h-86l326 1380h84l330 -1380h-90zM276 551h304l-88 389q-35 148 -62 315h-8q-19 -137 -60 -317z" />
    <glyph glyph-name="B" unicode="B" horiz-adv-x="765" 
d="M127 6v1354q89 26 184 26q186 0 277 -94q82 -82 82 -227q0 -112 -58.5 -191.5t-160.5 -117.5v-4q123 -31 192.5 -126t69.5 -241q0 -162 -97 -274q-101 -117 -311 -117q-116 0 -178 12zM215 1300v-518h82q114 0 197.5 77.5t83.5 197.5q0 254 -271 254q-55 0 -92 -11z
M215 711v-633q40 -8 92 -8q149 0 231.5 82t82.5 233q0 157 -95 240.5t-235 85.5h-76z" />
    <glyph glyph-name="C" unicode="C" 
d="M668 102l24 -75q-70 -39 -192 -39q-68 0 -128 21.5t-115.5 72.5t-95.5 128.5t-63.5 196.5t-23.5 269q0 161 28.5 288.5t74 206t106 130.5t119 72t118.5 20q109 0 162 -33l-29 -78q-23 11 -36.5 16t-43.5 10t-67 5q-45 0 -90.5 -19t-91 -65t-80 -115t-56.5 -178t-22 -244
q0 -140 19.5 -249.5t52.5 -178.5t78.5 -114.5t94 -63.5t103.5 -18q92 0 154 34z" />
    <glyph glyph-name="D" unicode="D" horiz-adv-x="851" 
d="M127 6v1354q72 26 174 26q181 0 287 -92q83 -70 136.5 -210t53.5 -351q0 -394 -149 -581q-62 -79 -155 -118.5t-200 -39.5q-98 0 -147 12zM215 1303v-1227q29 -4 68 -4q65 0 119.5 16.5t108.5 61.5t91.5 116t60.5 187t23 268q0 590 -385 590q-36 0 -86 -8z" />
    <glyph glyph-name="E" unicode="E" horiz-adv-x="673" 
d="M580 764v-78h-365v-608h418v-78h-506v1380h479v-77h-391v-539h365z" />
    <glyph glyph-name="F" unicode="F" horiz-adv-x="647" 
d="M127 0v1380h479v-77h-391v-564h365v-77h-365v-662h-88z" />
    <glyph glyph-name="G" unicode="G" horiz-adv-x="845" 
d="M752 688v-653q-99 -47 -220 -47q-183 0 -301 133q-71 80 -114 219t-43 326q0 161 30 289.5t77.5 208.5t112 133.5t128.5 74.5t131 21q111 0 180 -37l-28 -78q-68 35 -160 35q-53 0 -103.5 -18.5t-101.5 -63.5t-89 -113t-61.5 -176.5t-23.5 -243.5q0 -140 20.5 -250.5
t55.5 -180.5t84 -116t101.5 -64.5t113.5 -18.5q88 0 123 20v524h-211v76h299z" />
    <glyph glyph-name="H" unicode="H" horiz-adv-x="882" 
d="M127 1380h88v-616h453v616h88v-1380h-88v686h-453v-686h-88v1380z" />
    <glyph glyph-name="I" unicode="I" horiz-adv-x="346" 
d="M127 1380h88v-1380h-88v1380z" />
    <glyph glyph-name="J" unicode="J" horiz-adv-x="501" 
d="M299 360v1020h88v-1024q0 -192 -67.5 -282t-215.5 -90q-50 0 -81 10l8 76q31 -7 67 -7q53 0 88 12.5t62 44.5t39 91t12 149z" />
    <glyph glyph-name="K" unicode="K" horiz-adv-x="759" 
d="M127 0v1380h88v-678h4q15 23 96 160l303 518h101l-357 -581l369 -799h-96l-332 723l-88 -143v-580h-88z" />
    <glyph glyph-name="L" unicode="L" horiz-adv-x="659" 
d="M127 0v1380h88v-1304h410v-76h-498z" />
    <glyph glyph-name="M" unicode="M" horiz-adv-x="1179" 
d="M987 0l-33 664q-20 427 -14 591h-10q-55 -265 -123 -514l-201 -741h-45l-190 705q-96 361 -131 550h-9q4 -182 -14 -608l-27 -647h-88l72 1380h102l193 -712q88 -322 119 -469h6q26 134 111 469l186 712h110l76 -1380h-90z" />
    <glyph glyph-name="N" unicode="N" horiz-adv-x="888" 
d="M211 0h-84v1380h88l279 -712q141 -360 194 -529h4q-14 262 -14 631v610h84v-1380h-88l-295 750q-122 307 -178 501h-4q14 -213 14 -669v-582z" />
    <glyph glyph-name="O" unicode="O" horiz-adv-x="868" 
d="M426 -16h-2q-70 0 -130.5 39t-111 119.5t-79.5 221t-29 326.5q0 184 30 323.5t82.5 221.5t118.5 122t144 40q55 0 104 -23.5t94 -77t77.5 -133.5t51.5 -201t19 -272q0 -186 -29.5 -326t-81.5 -221t-116.5 -120t-141.5 -39zM434 63h2q52 0 94.5 27.5t71 76.5t49 109.5
t31 133.5t15.5 140.5t5 139.5q0 111 -12.5 212t-40.5 199t-83.5 157t-131.5 59q-62 0 -110 -40t-77.5 -102.5t-48 -148t-25.5 -167t-7 -169.5q0 -111 12.5 -212t40.5 -199t83.5 -157t131.5 -59z" />
    <glyph glyph-name="P" unicode="P" horiz-adv-x="743" 
d="M127 0v1360q89 26 197 26q80 0 149 -25.5t113 -72.5q92 -98 92 -276q0 -147 -64 -250q-51 -82 -135.5 -125t-183.5 -43q-55 0 -80 4v-598h-88zM215 1300v-624q30 -6 74 -6q132 0 214.5 85.5t82.5 254.5q0 62 -13.5 113.5t-43.5 95t-84.5 68t-129.5 24.5q-54 0 -100 -11z
" />
    <glyph glyph-name="Q" unicode="Q" horiz-adv-x="868" 
d="M807 -82l-35 -80q-170 68 -295 129q-34 17 -43 17q-62 0 -115.5 25t-99 80t-77.5 136.5t-50 199.5t-18 265q0 151 20 271.5t54 201t82.5 134t103 77t117.5 23.5q54 0 103 -23.5t93.5 -77.5t77 -134t51.5 -201t19 -271q0 -560 -252 -670v-6q85 -37 264 -96zM438 63h2
q51 0 93 27.5t70 76.5t48 109.5t30.5 133.5t15.5 141t5 139q0 110 -12.5 212t-40 199.5t-82 156.5t-129.5 59q-78 0 -134 -58.5t-84.5 -157t-41 -199.5t-12.5 -212t12.5 -212t41 -199.5t84.5 -157t134 -58.5z" />
    <glyph glyph-name="R" unicode="R" horiz-adv-x="759" 
d="M127 0v1360q72 26 186 26q182 0 275 -96q90 -96 90 -258q0 -139 -58.5 -225.5t-168.5 -136.5v-4q79 -20 125 -99.5t71 -232.5q43 -258 74 -334h-88q-26 55 -76 348q-27 153 -86.5 219t-179.5 66h-76v-633h-88zM215 1303v-601h78q129 0 211 85.5t82 228.5
q0 144 -65.5 219.5t-211.5 75.5q-61 0 -94 -8z" />
    <glyph glyph-name="S" unicode="S" horiz-adv-x="696" 
d="M63 51l31 74q33 -23 84 -40t96 -17q117 0 186.5 77t69.5 205q0 100 -48 176t-136 150q-8 7 -39 31t-55 44t-57 55.5t-55 70t-38 82.5t-16 98q0 148 93.5 242t228.5 94q56 0 104.5 -16t73.5 -36l-35 -75q-62 47 -158 47q-103 0 -160 -70.5t-57 -161.5q0 -47 10.5 -86.5
t24.5 -67.5t43 -58t52 -49t64 -51q11 -8 17 -13q120 -95 177 -189.5t57 -210.5q0 -167 -99.5 -267.5t-245.5 -100.5q-61 0 -123 19.5t-90 43.5z" />
    <glyph glyph-name="T" unicode="T" horiz-adv-x="675" 
d="M295 0v1305h-258v75h604v-75h-258v-1305h-88z" />
    <glyph glyph-name="U" unicode="U" horiz-adv-x="882" 
d="M127 1380h88v-942q0 -197 60.5 -286t162.5 -89q110 0 170 91.5t60 283.5v942h88v-931q0 -130 -26.5 -224t-73 -144.5t-101.5 -73.5t-121 -23q-63 0 -115 21t-97 68.5t-70 135.5t-25 211v960z" />
    <glyph glyph-name="V" unicode="V" horiz-adv-x="823" 
d="M449 0h-78l-320 1380h90l158 -680q84 -363 113 -561h8q26 207 108 566l156 675h88z" />
    <glyph glyph-name="W" unicode="W" horiz-adv-x="1306" 
d="M410 0h-76l-283 1380h90l148 -737q59 -292 82 -506h8q4 43 10 89.5t10.5 78t15 88t14.5 77t18.5 91t17.5 86.5l145 733h82l150 -714q72 -343 90 -529h6q31 239 86 518l143 725h88l-284 -1380h-78l-164 807q-58 297 -76 453h-4q-22 -203 -76 -461z" />
    <glyph glyph-name="X" unicode="X" horiz-adv-x="782" 
d="M731 0h-94l-150 379q-17 43 -49.5 128.5t-42.5 110.5h-6q-13 -32 -45 -116.5t-49 -124.5l-148 -377h-96l299 702l-291 678h93l151 -358q37 -81 92 -219h4q46 129 84 225l140 352h94l-277 -661z" />
    <glyph glyph-name="Y" unicode="Y" horiz-adv-x="796" 
d="M444 0h-88v618l-305 762h94l140 -356q89 -229 121 -324h4q26 81 122 330l140 350h94l-322 -757v-623z" />
    <glyph glyph-name="Z" unicode="Z" horiz-adv-x="696" 
d="M51 0v55l496 1245v5h-457v75h557v-51l-495 -1247v-6h493v-76h-594z" />
    <glyph glyph-name="bracketleft" unicode="[" horiz-adv-x="512" 
d="M440 -229h-258v1634h258v-70h-178v-1495h178v-69z" />
    <glyph glyph-name="backslash" unicode="\" horiz-adv-x="575" 
d="M522 -82h-84l-413 1479h84z" />
    <glyph glyph-name="bracketright" unicode="]" horiz-adv-x="512" 
d="M74 1405h258v-1634h-258v69h176v1495h-176v70z" />
    <glyph glyph-name="asciicircum" unicode="^" horiz-adv-x="1220" 
d="M1065 401h-88l-365 828h-4l-364 -828h-88l415 930h78z" />
    <glyph glyph-name="underscore" unicode="_" horiz-adv-x="1024" 
d="M0 -154h1024v-102h-1024v102z" />
    <glyph glyph-name="grave" unicode="`" horiz-adv-x="614" 
d="M94 1386h117l168 -270h-66z" />
    <glyph glyph-name="a" unicode="a" horiz-adv-x="671" 
d="M551 686v-465q0 -160 8 -221h-82l-8 109h-6q-61 -125 -184 -125q-93 0 -155.5 73.5t-62.5 196.5q0 87 31 154.5t86.5 109.5t127.5 63.5t157 22.5v37q0 68 -6.5 115.5t-24.5 87t-52.5 59t-86.5 19.5q-74 0 -139 -48l-25 68q26 23 77.5 40t104.5 17q109 0 174.5 -73.5
t65.5 -239.5zM463 311v217q-23 0 -41.5 -1t-52.5 -6.5t-60 -15.5t-56.5 -30t-51 -47.5t-34 -70.5t-13.5 -97q0 -102 40.5 -150.5t96.5 -48.5q64 0 109.5 49.5t58.5 137.5q4 23 4 63z" />
    <glyph glyph-name="b" unicode="b" horiz-adv-x="755" 
d="M119 201v1216h88v-559h4q65 141 209 141q51 0 97 -29.5t84 -88.5t60.5 -159.5t22.5 -229.5q0 -130 -25.5 -231t-68 -159.5t-91.5 -88t-100 -29.5q-81 0 -125.5 42t-70.5 111h-8l-9 -137h-75q8 148 8 201zM207 621v-277q0 -41 4 -59q16 -68 39.5 -115.5t50 -69.5
t48.5 -30.5t44 -8.5q54 0 94 35.5t62 98t32.5 136.5t10.5 161q0 85 -10.5 158.5t-33.5 136.5t-63.5 99t-95.5 36q-66 0 -118 -71.5t-62 -158.5q-2 -25 -2 -71z" />
    <glyph glyph-name="c" unicode="c" horiz-adv-x="591" 
d="M539 96l20 -67q-64 -41 -160 -41q-149 0 -238 130.5t-89 370.5q0 137 38.5 251t120 186.5t191.5 72.5q82 0 135 -34l-29 -78q-55 33 -120 33q-63 0 -112 -38.5t-76.5 -103t-41.5 -139.5t-14 -156q0 -196 67.5 -306.5t184.5 -110.5q65 0 123 30z" />
    <glyph glyph-name="d" unicode="d" horiz-adv-x="755" 
d="M549 1417h88v-1216q0 -53 8 -201h-76l-8 131h-8q-25 -61 -77 -104t-130 -43q-115 0 -194.5 126.5t-79.5 376.5q0 127 24.5 227.5t65 161t90.5 92t104 31.5q129 0 189 -127h4v545zM549 348v264q0 47 -2 70q-6 97 -58.5 168.5t-119.5 71.5q-56 0 -97 -35.5t-64 -98
t-33.5 -136t-10.5 -160.5q0 -117 18.5 -211t63.5 -157t110 -63q25 0 48 8.5t50 30.5t51 68t40 113q4 20 4 67z" />
    <glyph glyph-name="e" unicode="e" horiz-adv-x="671" 
d="M612 528h-450q0 -462 248 -462q92 0 147 38l21 -67q-70 -49 -185 -49q-157 0 -239 134.5t-82 364.5q0 234 79 373t214 139q69 0 120 -39t77 -103.5t38 -131.5t12 -139v-58zM164 600h354q1 86 -14.5 151.5t-41.5 101t-54.5 52.5t-57.5 17q-55 0 -96.5 -48.5t-63 -119.5
t-26.5 -154z" />
    <glyph glyph-name="f" unicode="f" horiz-adv-x="395" 
d="M233 0h-88v907h-118v76h118v74q0 202 78 297q67 80 172 80q58 0 103 -25l-25 -72q-43 19 -88 19q-46 0 -77.5 -24t-47 -69t-21.5 -93.5t-6 -112.5v-74h187v-76h-187v-907z" />
    <glyph glyph-name="g" unicode="g" horiz-adv-x="755" 
d="M637 680v-543q0 -204 -19.5 -296.5t-64.5 -147.5q-38 -49 -98 -76t-127 -27q-58 0 -112.5 14.5t-86.5 35.5l29 73q83 -45 180 -45q47 0 83.5 16t66 53t45.5 105.5t16 165.5v125h-4q-24 -64 -76 -98.5t-119 -34.5q-116 0 -197 130t-81 362q0 111 19.5 200t49.5 145
t70.5 94t79.5 53t78 15q40 0 71.5 -11.5t52.5 -33.5t32 -39t24 -41q3 -5 4 -8h4l4 117h84q-8 -212 -8 -303zM549 358v299q0 49 -6 72q-47 193 -178 193q-93 0 -147 -115t-54 -307q0 -209 58.5 -315.5t144.5 -106.5q129 0 174 184q8 37 8 96z" />
    <glyph glyph-name="h" unicode="h" horiz-adv-x="761" 
d="M121 0v1417h88v-540h4q32 56 82 88q52 34 129 34q29 0 57 -8t58 -30t52 -56t36 -90t14 -127v-688h-88v657q0 267 -156 267q-68 0 -116 -51t-68 -146q-4 -25 -4 -74v-653h-88z" />
    <glyph glyph-name="i" unicode="i" horiz-adv-x="329" 
d="M209 0h-88v983h88v-983zM164 1159h-2q-28 0 -46 20.5t-18 55.5q0 34 18.5 55t47.5 21q33 0 50 -20.5t17 -55.5q0 -76 -67 -76z" />
    <glyph glyph-name="j" unicode="j" horiz-adv-x="339" 
d="M-25 -410l-20 72q100 31 135 90q27 47 38 120.5t11 225.5v885h88v-926q0 -150 -17 -230t-63 -138q-35 -42 -85.5 -69t-86.5 -30zM184 1159h-2q-29 0 -47 20.5t-18 55.5q0 34 18 55t49 21q32 0 49 -20.5t17 -55.5q0 -36 -17 -56t-49 -20z" />
    <glyph glyph-name="k" unicode="k" horiz-adv-x="651" 
d="M207 1417v-907h4q7 10 55 94l238 379h96l-272 -414l303 -569h-101l-260 502l-63 -96v-406h-88v1417h88z" />
    <glyph glyph-name="l" unicode="l" horiz-adv-x="350" 
d="M121 0v1417h88v-1417h-88z" />
    <glyph glyph-name="m" unicode="m" horiz-adv-x="1193" 
d="M121 0v756q0 72 -4 144t-4 83h80l4 -125h4q62 141 213 141q149 0 200 -159h4q40 82 95 121q55 38 135 38q34 0 64.5 -9t60.5 -32.5t51.5 -59.5t35 -94.5t13.5 -133.5v-670h-88v639q0 46 -3.5 83.5t-14 76.5t-28 65t-48.5 43t-72 17q-59 0 -106 -50t-66 -135
q-6 -33 -6 -100v-639h-88v664q0 54 -6.5 96.5t-23.5 81.5t-51 60.5t-83 21.5q-63 0 -113 -54.5t-63 -150.5q-4 -31 -4 -90v-629h-88z" />
    <glyph glyph-name="n" unicode="n" horiz-adv-x="761" 
d="M121 0v756q0 72 -4 144t-4 83h80l4 -121h4q29 62 85.5 99.5t131.5 37.5q42 0 79 -15.5t71 -49.5t53.5 -99.5t19.5 -154.5v-680h-88v645q0 58 -6.5 103t-23 87.5t-50 65.5t-82.5 23q-63 0 -113.5 -54t-64.5 -151q-4 -27 -4 -86v-633h-88z" />
    <glyph glyph-name="o" unicode="o" horiz-adv-x="724" 
d="M358 -16h-2q-43 0 -83 17.5t-77 57.5t-64 97.5t-43.5 144t-16.5 191.5q0 131 24.5 231t67.5 159t95 88t112 29q54 0 103 -29t90 -87.5t65 -159.5t24 -231q0 -131 -24.5 -231.5t-67 -159t-94 -88t-109.5 -29.5zM362 61h3q59 0 100 43t60.5 114t27.5 137.5t8 136.5
q0 54 -4.5 106.5t-17.5 113.5t-34.5 105.5t-58.5 74.5t-86 30q-59 0 -100 -43t-60.5 -113.5t-27.5 -137t-8 -136.5q0 -55 4 -107t17.5 -113t34 -106t57.5 -75t85 -30z" />
    <glyph glyph-name="p" unicode="p" horiz-adv-x="755" 
d="M119 -393v1073q0 91 -8 303h84l4 -131h4q74 147 209 147q117 0 194.5 -126t77.5 -377q0 -135 -25.5 -237.5t-68.5 -160.5t-93.5 -86t-107.5 -28q-123 0 -178 125h-4v-502h-88zM207 606v-244q0 -52 4 -79q13 -67 36 -114t49.5 -69t49 -30.5t45.5 -8.5q56 0 96 35t62.5 97
t32.5 136t10 163q0 85 -11 158.5t-33.5 136.5t-64 99t-96.5 36q-66 0 -119 -74t-59 -164q-2 -27 -2 -78z" />
    <glyph glyph-name="q" unicode="q" horiz-adv-x="755" 
d="M549 -393v506h-8q-23 -56 -73.5 -92.5t-117.5 -36.5q-54 0 -102.5 29t-88.5 87t-63.5 157.5t-23.5 229.5q0 129 25 229.5t67.5 161t94.5 91t110 30.5q124 0 184 -137h4l4 121h84q-8 -212 -8 -303v-1073h-88zM549 369v243q0 47 -2 70q-8 98 -59.5 169t-116.5 71
q-56 0 -97.5 -36t-64.5 -99t-34 -137.5t-11 -162.5t11.5 -162t34.5 -134.5t63.5 -95t93.5 -34.5q126 0 176 211q6 29 6 97z" />
    <glyph glyph-name="r" unicode="r" horiz-adv-x="448" 
d="M119 0v756q0 44 -4 134.5t-4 92.5h84l4 -160h4q20 69 80 122.5t133 53.5h18v-96h-16q-90 0 -146 -74t-63 -172q-2 -29 -2 -84v-573h-88z" />
    <glyph glyph-name="s" unicode="s" horiz-adv-x="548" 
d="M49 45l33 72q73 -51 147 -51q77 0 123.5 48.5t46.5 129.5q0 70 -28.5 122t-104.5 107q-48 34 -78 59.5t-60.5 60.5t-45 74t-14.5 85q0 109 71 178t168 69q90 0 160 -53l-39 -72q-61 48 -127 48q-67 0 -106 -45.5t-39 -106.5t26.5 -102.5t100.5 -96.5q38 -28 58.5 -43.5
t53.5 -47.5t50 -59.5t30.5 -68t13.5 -84.5q0 -93 -38.5 -158t-96.5 -93.5t-129 -28.5q-109 0 -176 57z" />
    <glyph glyph-name="t" unicode="t" horiz-adv-x="450" 
d="M150 1147l88 51v-215h186v-76h-186v-669q0 -175 104 -175q34 0 59 7l11 -68q-32 -14 -88 -14q-88 0 -131 57q-23 31 -33 81.5t-10 143.5v637h-123v76h123v164z" />
    <glyph glyph-name="u" unicode="u" horiz-adv-x="745" 
d="M629 983v-735q0 -49 1.5 -95t3.5 -90.5t3 -62.5h-80l-8 102h-4q-21 -40 -75 -79t-126 -39q-118 0 -171.5 91.5t-53.5 270.5v637h88v-618q0 -70 6 -120.5t22 -95t47 -67.5t78 -23q43 0 78 19t55 47.5t30.5 55.5t13.5 50q4 31 4 91v661h88z" />
    <glyph glyph-name="v" unicode="v" horiz-adv-x="651" 
d="M37 983h88l156 -623q27 -101 45 -217h6q9 66 43 217l149 623h90l-254 -983h-73z" />
    <glyph glyph-name="w" unicode="w" horiz-adv-x="1095" 
d="M37 983h88l121 -516q49 -205 65 -324h8q22 149 68 320l129 520h70l123 -504q45 -182 71 -336h8q12 93 66 328l115 512h90l-244 -983h-67l-140 561q-27 99 -57 289h-4q-21 -136 -60 -297l-137 -553h-74z" />
    <glyph glyph-name="x" unicode="x" horiz-adv-x="624" 
d="M39 983h94l111 -233q16 -32 75 -177h5q17 43 77 177l107 233h96l-242 -485l236 -498h-96l-111 246q-19 40 -76 180h-4q-21 -55 -78 -180l-110 -246h-94l243 498z" />
    <glyph glyph-name="y" unicode="y" horiz-adv-x="651" 
d="M37 983h90l152 -598q13 -50 28 -126.5t21 -100.5h4q6 31 25 109.5t28 117.5l139 598h90l-135 -551q-32 -133 -54.5 -215t-55 -186t-70 -181.5t-80.5 -136.5q-74 -102 -147 -145l-45 74q77 51 145 149q63 93 92 197q10 36 10 53q0 25 -4 37z" />
    <glyph glyph-name="z" unicode="z" horiz-adv-x="593" 
d="M31 0v53l354 715q11 23 35 68t35 67v4h-381v76h485v-55l-354 -711q-70 -136 -70 -137v-4h416v-76h-520z" />
    <glyph glyph-name="braceleft" unicode="{" horiz-adv-x="512" 
d="M82 555v66q78 0 110.5 47t32.5 116q0 65 -12 187q-12 126 -12 192q0 125 63.5 183.5t159.5 58.5h16v-70h-28q-68 -9 -97.5 -48t-29.5 -116q0 -64 12 -174q12 -114 12 -170q2 -84 -16 -135t-44.5 -71t-70.5 -31v-4q32 -8 54 -21t41.5 -39t28 -70t7.5 -108q0 -58 -12 -168
q-12 -114 -12 -176q0 -77 29.5 -116t97.5 -48h28v-69h-16q-96 0 -159.5 58.5t-63.5 182.5q0 67 12 193q12 122 12 186q0 69 -32.5 116.5t-110.5 47.5z" />
    <glyph glyph-name="bar" unicode="|" horiz-adv-x="389" 
d="M152 1536h86v-2048h-86v2048z" />
    <glyph glyph-name="braceright" unicode="}" horiz-adv-x="512" 
d="M430 621v-66q-78 0 -110.5 -47.5t-32.5 -116.5q0 -64 12 -186q12 -126 12 -193q0 -124 -63.5 -182.5t-159.5 -58.5h-16v69h28q68 9 97.5 48t29.5 116q0 62 -12 176q-12 110 -12 168q-1 64 7.5 108t28 70t41.5 39t54 21v4q-44 11 -70.5 31t-44.5 71t-16 135q0 56 12 170
q12 110 12 174q0 77 -29.5 116t-97.5 48h-28v70h16q96 0 159.5 -58.5t63.5 -183.5q0 -66 -12 -192q-12 -122 -12 -187q0 -69 32.5 -116t110.5 -47z" />
    <glyph glyph-name="asciitilde" unicode="~" horiz-adv-x="1220" 
d="M242 477h-72q-8 100 43.5 166t151.5 66q89 0 258 -78q178 -80 258 -80q54 0 78.5 46t21.5 108h72q7 -114 -44 -173t-143 -59q-100 0 -260 74q-59 28 -91.5 41.5t-81.5 28t-85 14.5q-52 0 -80 -41.5t-26 -112.5z" />
    <glyph glyph-name="exclamdown" unicode="&#xa1;" horiz-adv-x="376" 
d="M240 -385h-101l15 1036h71zM188 1020h2q32 0 49 -22t17 -58t-17.5 -57t-50.5 -21q-31 0 -49 21.5t-18 56.5q0 36 18.5 58t48.5 22z" />
    <glyph glyph-name="cent" unicode="&#xa2;" 
d="M465 -10h-76v194q-82 13 -147 84q-107 123 -107 408q0 183 67 313t187 156v182h76v-176q77 0 133 -37l-27 -76q-60 39 -131 39q-62 0 -107 -40.5t-67 -107.5t-31.5 -133t-9.5 -137q0 -188 57 -294.5t164 -106.5q68 0 140 37l20 -66q-56 -41 -141 -47v-192z" />
    <glyph glyph-name="sterling" unicode="&#xa3;" 
d="M684 0h-629v59q62 25 132.5 146.5t70.5 247.5q0 97 -14 200h-172v74h161q-30 159 -30 260q0 90 24.5 161.5t65.5 113.5t89 64t99 22q100 0 156 -45l-33 -70q-53 37 -131 37q-47 0 -83 -21.5t-56.5 -58.5t-30.5 -79.5t-10 -90.5q0 -19 0.5 -37.5t1 -33t2.5 -33.5
t2.5 -28.5t3 -29t3.5 -26t4.5 -27.5t4 -24.5t5 -27.5t4.5 -26h215v-74h-203q22 -186 -4 -305q-34 -155 -146 -264v-4h498v-80z" />
    <glyph glyph-name="currency" unicode="&#xa4;" 
d="M369 1073h2q47 0 100 -25t86 -65l123 145l61 -63l-141 -145q51 -99 51 -244t-51 -244l141 -145l-61 -64l-123 146q-33 -40 -86.5 -65t-101.5 -25q-49 0 -103 25t-84 65l-123 -146l-63 64l143 145q-53 103 -53 244t53 244l-143 145l63 63l123 -145q30 40 84 65t103 25z
M373 995h-2q-90 0 -145.5 -84t-55.5 -237q0 -144 56.5 -231t142.5 -87q88 -3 143 84.5t55 233.5q0 147 -53.5 234t-140.5 87z" />
    <glyph glyph-name="yen" unicode="&#xa5;" 
d="M399 0h-86v410h-250v67h250v172h-250v68h224l-246 614h92l156 -405q50 -129 76 -199h4q27 91 73 203l164 401h90l-270 -614h229v-68h-256v-172h256v-67h-256v-410z" />
    <glyph glyph-name="brokenbar" unicode="&#xa6;" horiz-adv-x="389" 
d="M152 356h86v-716h-86v716zM152 1380h86v-716h-86v716z" />
    <glyph glyph-name="section" unicode="&#xa7;" horiz-adv-x="782" 
d="M143 729v-2q0 -113 172 -197q164 -81 226 -129q98 57 98 193q0 129 -152 207q-13 6 -67 31.5t-93.5 46.5t-72.5 45q-111 -73 -111 -195zM635 1343l-35 -69q-70 51 -170 51q-39 0 -74.5 -9.5t-68.5 -29.5t-52.5 -57t-19.5 -86q0 -36 13.5 -67.5t32.5 -52.5t51 -41.5
t56.5 -33t61.5 -28.5l4.5 -1.5t3.5 -1.5l4 -2l4 -2q41 -18 69.5 -33t63 -36.5t57.5 -45t44 -53t31 -67t10 -80.5q0 -80 -31 -136.5t-96 -105.5q28 -28 50 -73.5t22 -100.5q0 -74 -26 -130.5t-71.5 -89t-100.5 -48.5t-118 -16q-73 0 -140 20.5t-104 50.5l35 72
q97 -72 217 -72q92 0 157 49.5t65 145.5q0 82 -51 136.5t-179 117.5q-43 21 -68 34t-60 33.5t-55 36.5t-43 39.5t-35 47t-20 54t-8 64.5q0 131 142 238q-71 60 -74 163q0 85 46.5 148t114.5 92t144 29q124 0 201 -54z" />
    <glyph glyph-name="dieresis" unicode="&#xa8;" horiz-adv-x="614" 
d="M164 1165h-2q-29 0 -49.5 20t-20.5 48q0 29 20.5 48t51.5 19q28 0 46.5 -19t18.5 -48q0 -28 -19 -48t-46 -20zM455 1165h-2q-29 0 -49.5 20t-20.5 48q0 29 20.5 48t51.5 19q28 0 46.5 -19t18.5 -48q0 -28 -19 -48t-46 -20z" />
    <glyph glyph-name="copyright" unicode="&#xa9;" horiz-adv-x="1386" 
d="M696 1327h2q128 0 243 -50t197.5 -134.5t130.5 -201.5t48 -245q0 -174 -81.5 -319.5t-224.5 -230.5t-315 -85q-173 0 -317 85t-226.5 230.5t-82.5 319.5q0 172 82.5 317t226.5 229.5t317 84.5zM696 1262h-2q-151 0 -275 -74.5t-194.5 -206t-70.5 -293.5
q0 -238 155.5 -399.5t386.5 -161.5q227 -3 382 161t155 408q0 157 -70.5 287t-194 204.5t-272.5 74.5zM971 1016l-21 -64q-109 45 -202 45q-151 0 -228.5 -86.5t-77.5 -220.5t80 -221.5t230 -87.5q125 0 211 51l20 -59q-96 -60 -252 -60q-170 0 -271.5 107t-101.5 264
q0 169 114 275t273 106q75 0 136.5 -16t89.5 -33z" />
    <glyph glyph-name="ordfeminine" unicode="&#xaa;" horiz-adv-x="522" 
d="M467 539h-72l-8 73h-4q-23 -40 -65 -62t-93 -22q-71 0 -122.5 50.5t-51.5 134.5q0 115 93.5 176t238.5 59v29q0 73 -34 116.5t-99 43.5q-71 0 -133 -47l-27 57q71 57 172 57q89 0 143 -53.5t54 -171.5v-291q0 -106 8 -149zM383 721v162q-16 0 -29.5 -0.5t-41 -3.5t-49 -9
t-47 -18t-43 -28t-29 -42.5t-11.5 -58.5q0 -62 35 -94.5t78 -32.5q75 0 119 74q18 32 18 51z" />
    <glyph glyph-name="guillemotleft" unicode="&#xab;" horiz-adv-x="688" 
d="M356 860l-206 -344l206 -344h-90l-205 344l209 344h86zM627 860l-207 -344l207 -344h-90l-205 344l209 344h86z" />
    <glyph glyph-name="logicalnot" unicode="&#xac;" horiz-adv-x="1220" 
d="M82 786h1057v-524h-82v447h-975v77z" />
    <glyph glyph-name="registered" unicode="&#xae;" horiz-adv-x="757" 
d="M322 1049v-140h-58v330q52 10 109 10q67 0 104 -26q33 -22 33 -70q0 -55 -66 -78v-4q40 -13 56 -80q14 -66 24 -82h-59q-15 18 -27 86q-12 54 -78 54h-38zM322 1198v-102h40q87 0 87 51q0 55 -80 55q-27 0 -47 -4zM379 1397h2q132 0 223.5 -91t91.5 -223q0 -133 -92 -225
t-225 -92q-132 0 -225 92t-93 225q0 132 93 223t225 91zM379 1341h-2q-105 0 -177.5 -75.5t-72.5 -182.5q0 -109 73 -184.5t181 -75.5q105 -1 176.5 74.5t71.5 183.5t-72 184t-178 76z" />
    <glyph glyph-name="macron" unicode="&#xaf;" horiz-adv-x="614" 
d="M117 1262h383v-74h-383v74z" />
    <glyph glyph-name="macron" unicode="&#x2c9;" horiz-adv-x="614" 
d="M117 1262h383v-74h-383v74z" />
    <glyph glyph-name="degree" unicode="&#xb0;" horiz-adv-x="565" 
d="M313 1405h2q103 0 176.5 -79.5t73.5 -192.5q0 -115 -73.5 -194t-178.5 -79q-106 0 -179 79t-73 194q-1 114 72.5 193t179.5 79zM313 1335h-2q-72 0 -121 -59t-49 -143q0 -85 49.5 -144t122.5 -59t122.5 59t49.5 144q0 84 -49.5 143t-122.5 59z" />
    <glyph glyph-name="plusminus" unicode="&#xb1;" horiz-adv-x="1220" 
d="M569 1161h82v-426h488v-78h-488v-442h-82v442h-487v78h487v426zM82 78h1057v-78h-1057v78z" />
    <glyph glyph-name="twosuperior" unicode="&#xb2;" horiz-adv-x="464" 
d="M-2 854v29l76 94q42 52 55 69t53 70t57.5 84t42 77.5t34.5 87t10 77.5q0 73 -37 110t-99 37q-73 0 -137 -59l-30 59q30 30 79 52t109 22q94 0 146.5 -59t52.5 -154q0 -160 -209 -424l-78 -96v-4h303v-72h-428z" />
    <glyph glyph-name="threesuperior" unicode="&#xb3;" horiz-adv-x="450" 
d="M55 1546l-24 60q70 57 170 57q86 0 136 -50t50 -132q0 -57 -33.5 -106t-93.5 -75v-4q60 -14 107 -68.5t47 -140.5q0 -105 -69 -174t-187 -69q-91 0 -164 47l26 65q71 -43 148 -43q71 0 116.5 42.5t45.5 123.5q0 178 -199 178h-10v62h12q53 0 112.5 42.5t59.5 113.5
q0 57 -31.5 87.5t-85.5 30.5q-74 0 -133 -47z" />
    <glyph glyph-name="acute" unicode="&#xb4;" horiz-adv-x="614" 
d="M403 1386h117l-219 -270h-65z" />
    <glyph glyph-name="mu" unicode="&#xb5;" horiz-adv-x="745" 
d="M549 102h-4q-20 -36 -72.5 -74t-112.5 -38q-54 0 -92 19.5t-63 70.5v-184q0 -207 14 -289h-78q-22 65 -22 239v1137h88v-666q0 -254 153 -254q43 0 78 18.5t55 46.5t30.5 54t13.5 49q4 31 4 91v661h88v-817q0 -116 59 -113l-12 -67q-10 -2 -33 -2q-34 0 -60.5 27
t-33.5 91z" />
    <glyph glyph-name="paragraph" unicode="&#xb6;" horiz-adv-x="782" 
d="M465 -102h-74v675h-12q-51 0 -102 23.5t-95 67.5t-74 115.5t-36 158.5q-5 89 19.5 167.5t76.5 140.5t139 98t199 36q82 0 156 -10v-1472h-74v1409h-123v-1409z" />
    <glyph glyph-name="periodcentered" unicode="&#xb7;" horiz-adv-x="348" 
d="M174 438h-2q-30 0 -50 21.5t-20 56.5t20.5 57.5t51.5 22.5q33 0 52.5 -22t19.5 -58t-19.5 -57t-52.5 -21z" />
    <glyph glyph-name="periodcentered" unicode="&#x2219;" horiz-adv-x="348" 
d="M174 438h-2q-30 0 -50 21.5t-20 56.5t20.5 57.5t51.5 22.5q33 0 52.5 -22t19.5 -58t-19.5 -57t-52.5 -21z" />
    <glyph glyph-name="cedilla" unicode="&#xb8;" horiz-adv-x="614" 
d="M311 10h72l-64 -121q53 -6 92.5 -46.5t39.5 -96.5q0 -74 -49.5 -113t-112.5 -39q-66 0 -125 39l29 66q48 -31 98 -31q80 0 80 68q0 84 -142 100z" />
    <glyph glyph-name="onesuperior" unicode="&#xb9;" horiz-adv-x="399" 
d="M279 854h-80v715h-4l-154 -86l-14 69l186 101h66v-799z" />
    <glyph glyph-name="ordmasculine" unicode="&#xba;" horiz-adv-x="606" 
d="M311 1204h2q104 0 161.5 -83.5t57.5 -254.5q0 -167 -65.5 -252.5t-163.5 -85.5q-97 0 -163 85.5t-66 252.5q0 161 68.5 249.5t168.5 88.5zM303 1141h-2q-48 0 -81.5 -45.5t-46.5 -105t-13 -124.5q0 -62 13 -121t47 -106t83 -47q43 0 73.5 26t45.5 70t21 87.5t6 90.5
q0 48 -6 91.5t-21 87.5t-45.5 70t-73.5 26z" />
    <glyph glyph-name="guillemotright" unicode="&#xbb;" horiz-adv-x="688" 
d="M268 516l-207 344h86l209 -344l-204 -344h-91zM539 516l-207 344h86l209 -344l-205 -344h-90z" />
    <glyph glyph-name="onequarter" unicode="&#xbc;" horiz-adv-x="1187" 
d="M332 539h-80v714h-4l-154 -86l-14 70l186 100h66v-798zM283 -16h-76l686 1364h76zM1030 0h-80v240h-301v41l299 528h82v-504h100v-65h-100v-240zM950 305v244q0 18 8 158h-4q-57 -115 -82 -162l-120 -234v-6h198z" />
    <glyph glyph-name="onehalf" unicode="&#xbd;" horiz-adv-x="1187" 
d="M295 539h-80v714h-4l-154 -86l-14 70l186 100h66v-798zM238 -16h-76l684 1364h76zM690 0v29l76 94q42 52 55 69t53 70t57.5 84t42 77.5t34.5 87t10 77.5q0 74 -37 110.5t-98 36.5q-74 0 -138 -59l-30 59q30 30 79 52t109 22q94 0 146.5 -59t52.5 -154q0 -160 -209 -424
l-78 -96v-4h303v-72h-428z" />
    <glyph glyph-name="threequarters" unicode="&#xbe;" horiz-adv-x="1187" 
d="M119 1231l-25 59q71 58 170 58q86 0 136.5 -50.5t50.5 -132.5q0 -57 -33.5 -105.5t-93.5 -74.5v-4q59 -14 106 -68.5t47 -140.5q0 -105 -69 -174.5t-187 -69.5q-91 0 -164 47l27 66q71 -43 147 -43q71 0 116.5 42.5t45.5 123.5q0 178 -198 178h-11v62h13q32 1 69.5 16.5
t70 52.5t32.5 86q0 57 -31.5 88t-85.5 31q-74 0 -133 -47zM317 -16h-75l686 1364h76zM1032 0h-80v240h-301v41l299 528h82v-504h101v-65h-101v-240zM952 305v244q0 31 1.5 61.5t4 58.5t3.5 38h-5q-57 -115 -82 -162l-124 -234v-6h202z" />
    <glyph glyph-name="questiondown" unicode="&#xbf;" horiz-adv-x="602" 
d="M338 1020h2q31 0 50.5 -22.5t19.5 -59.5t-20 -60.5t-52 -23.5q-34 0 -53 23t-19 61t18.5 60t53.5 22zM281 651h86l4 -24q41 -219 -72 -416q-9 -16 -35.5 -61t-35.5 -61t-26.5 -52t-23.5 -58.5t-12 -55t-6 -64.5q0 -99 47 -144t123 -45q72 0 139 39l27 -69
q-24 -18 -75.5 -34t-107.5 -16q-119 0 -183 73t-64 190q0 55 17 112.5t35 92.5t54 96t49 86q52 96 66 177t-2 206z" />
    <glyph glyph-name="Agrave" unicode="&#xc0;" horiz-adv-x="862" 
d="M600 475h-342l-111 -475h-86l326 1380h84l330 -1380h-90zM276 551h304l-88 389q-35 148 -62 315h-8q-19 -137 -60 -317zM182 1669h133l209 -215h-84z" />
    <glyph glyph-name="Aacute" unicode="&#xc1;" horiz-adv-x="862" 
d="M600 475h-342l-111 -475h-86l326 1380h84l330 -1380h-90zM276 551h304l-88 389q-35 148 -62 315h-8q-19 -137 -60 -317zM549 1669h133l-258 -215h-84z" />
    <glyph glyph-name="Acircumflex" unicode="&#xc2;" horiz-adv-x="862" 
d="M600 475h-342l-111 -475h-86l326 1380h84l330 -1380h-90zM276 551h304l-88 389q-35 148 -62 315h-8q-19 -137 -60 -317zM387 1638h90l182 -184h-102l-123 117h-4l-123 -117h-102z" />
    <glyph glyph-name="Atilde" unicode="&#xc3;" horiz-adv-x="862" 
d="M600 475h-342l-111 -475h-86l326 1380h84l330 -1380h-90zM276 551h304l-88 389q-35 148 -62 315h-8q-19 -137 -60 -317zM291 1470h-62q0 71 30 117.5t83 46.5q9 0 18 -2t15 -3.5t16 -6.5t13.5 -6.5t14.5 -8.5t13 -8q4 -2 20.5 -12.5t22.5 -13t18 -6.5t23 -4
q27 0 40.5 16.5t16.5 56.5h60q0 -68 -28 -110.5t-91 -42.5q-38 0 -94 37q-4 3 -15 9.5t-16.5 9.5t-14 7.5t-16 6t-14.5 1.5q-26 0 -37 -19.5t-16 -64.5z" />
    <glyph glyph-name="Adieresis" unicode="&#xc4;" horiz-adv-x="862" 
d="M600 475h-342l-111 -475h-86l326 1380h84l330 -1380h-90zM276 551h304l-88 389q-35 148 -62 315h-8q-19 -137 -60 -317zM281 1477h-2q-30 0 -48 19t-18 54q0 33 19 53.5t49 20.5q33 0 50 -20t17 -54q0 -73 -67 -73zM584 1477h-2q-30 0 -48 19t-18 54q0 33 19 53.5
t49 20.5q33 0 50 -20t17 -54q0 -73 -67 -73z" />
    <glyph glyph-name="Aring" unicode="&#xc5;" horiz-adv-x="862" 
d="M600 475h-342l-111 -475h-86l326 1380h84l330 -1380h-90zM276 551h304l-88 389q-35 148 -62 315h-8q-19 -137 -60 -317zM440 1767h2q73 0 123.5 -51t50.5 -125q0 -71 -52.5 -120.5t-123.5 -49.5q-75 0 -126.5 49.5t-51.5 120.5q0 73 51 124.5t127 51.5zM438 1708h-2
q-44 0 -72 -34.5t-28 -82.5q0 -41 29.5 -74.5t72.5 -33.5q45 0 75 33t30 79q0 47 -30 80t-75 33z" />
    <glyph glyph-name="AE" unicode="&#xc6;" horiz-adv-x="1089" 
d="M123 0h-88l418 1380h540l-2 -77h-389l29 -539h362v-78h-356l35 -608h387l-2 -78h-467l-31 502h-287zM295 578h260l-20 469q-3 67 -13 270h-12q-36 -114 -80 -275z" />
    <glyph glyph-name="Ccedilla" unicode="&#xc7;" horiz-adv-x="804" 
d="M668 102l24 -75q-67 -34 -157 -37l-52 -99q53 -6 92 -46t39 -97q0 -74 -49 -112.5t-112 -38.5q-67 0 -125 38l28 66q48 -31 99 -31q34 0 57 16.5t23 53.5q0 81 -142 98l72 152q-64 5 -119.5 30.5t-106.5 78.5t-87 129.5t-57 191t-21 256.5q0 161 28.5 288.5t74 206
t106 130.5t119 72t118.5 20q109 0 162 -33l-29 -78q-23 11 -36.5 16t-43.5 10t-67 5q-45 0 -90.5 -19t-91 -65t-80 -115t-56.5 -178t-22 -244q0 -140 19.5 -249.5t52.5 -178.5t78.5 -114.5t94 -63.5t103.5 -18q92 0 154 34z" />
    <glyph glyph-name="Egrave" unicode="&#xc8;" horiz-adv-x="673" 
d="M580 764v-78h-365v-608h418v-78h-506v1380h479v-77h-391v-539h365zM109 1669h133l209 -215h-84z" />
    <glyph glyph-name="Eacute" unicode="&#xc9;" horiz-adv-x="673" 
d="M580 764v-78h-365v-608h418v-78h-506v1380h479v-77h-391v-539h365zM524 1669h133l-258 -215h-84z" />
    <glyph glyph-name="Ecircumflex" unicode="&#xca;" horiz-adv-x="673" 
d="M580 764v-78h-365v-608h418v-78h-506v1380h479v-77h-391v-539h365zM317 1638h91l182 -184h-103l-122 117h-5l-122 -117h-103z" />
    <glyph glyph-name="Edieresis" unicode="&#xcb;" horiz-adv-x="673" 
d="M580 764v-78h-365v-608h418v-78h-506v1380h479v-77h-391v-539h365zM215 1497h-2q-30 0 -48 19.5t-18 54.5q0 33 19 53.5t49 20.5q33 0 50.5 -20.5t17.5 -53.5q0 -74 -68 -74zM518 1497h-2q-30 0 -47.5 19.5t-17.5 54.5q0 33 18.5 53.5t48.5 20.5q33 0 50.5 -20.5
t17.5 -53.5q0 -74 -68 -74z" />
    <glyph glyph-name="Igrave" unicode="&#xcc;" horiz-adv-x="346" 
d="M127 1380h88v-1380h-88v1380zM-96 1669h133l209 -215h-84z" />
    <glyph glyph-name="Iacute" unicode="&#xcd;" horiz-adv-x="346" 
d="M127 1380h88v-1380h-88v1380zM287 1669h133l-258 -215h-84z" />
    <glyph glyph-name="Icircumflex" unicode="&#xce;" horiz-adv-x="346" 
d="M127 1380h88v-1380h-88v1380zM129 1638h90l182 -184h-102l-123 117h-4l-123 -117h-102z" />
    <glyph glyph-name="Idieresis" unicode="&#xcf;" horiz-adv-x="346" 
d="M127 1380h88v-1380h-88v1380zM23 1497h-3q-30 0 -47.5 19.5t-17.5 54.5q0 33 19 53.5t49 20.5q33 0 50 -20t17 -54q0 -74 -67 -74zM326 1497h-2q-30 0 -48 19.5t-18 54.5q0 33 19 53.5t49 20.5q33 0 50 -20t17 -54q0 -74 -67 -74z" />
    <glyph glyph-name="Eth" unicode="&#xd0;" horiz-adv-x="876" 
d="M0 686v76h152v598q71 26 174 26q180 0 286 -92q84 -70 137.5 -211.5t53.5 -355.5q0 -393 -150 -582q-62 -79 -154.5 -118t-199.5 -39q-98 0 -147 12v686h-152zM483 762v-76h-243v-616q29 -4 67 -4q65 0 120 16.5t109 61.5t91.5 116.5t60.5 189t23 271.5q0 590 -385 590
q-36 0 -86 -8v-541h243z" />
    <glyph glyph-name="Ntilde" unicode="&#xd1;" horiz-adv-x="888" 
d="M211 0h-84v1380h88l279 -712q141 -360 194 -529h4q-14 262 -14 631v610h84v-1380h-88l-295 750q-122 307 -178 501h-4q14 -213 14 -669v-582zM309 1470h-61q0 71 29.5 117.5t82.5 46.5q8 0 15 -1t15 -3.5t13 -4t13 -6t11 -6.5t12.5 -7.5t11.5 -6.5q4 -2 20.5 -12.5
t22.5 -13t18 -6.5t23 -4q27 0 40.5 16.5t16.5 56.5h59q0 -68 -28 -110.5t-91 -42.5q-38 0 -94 37q-4 3 -15 9.5t-16.5 9.5t-14 7.5t-16 6t-14.5 1.5q-26 0 -37 -19.5t-16 -64.5z" />
    <glyph glyph-name="Ograve" unicode="&#xd2;" horiz-adv-x="868" 
d="M426 -16h-2q-70 0 -130.5 39t-111 119.5t-79.5 221t-29 326.5q0 184 30 323.5t82.5 221.5t118.5 122t144 40q55 0 104 -23.5t94 -77t77.5 -133.5t51.5 -201t19 -272q0 -186 -29.5 -326t-81.5 -221t-116.5 -120t-141.5 -39zM434 63h2q52 0 94.5 27.5t71 76.5t49 109.5
t31 133.5t15.5 140.5t5 139.5q0 111 -12.5 212t-40.5 199t-83.5 157t-131.5 59q-62 0 -110 -40t-77.5 -102.5t-48 -148t-25.5 -167t-7 -169.5q0 -111 12.5 -212t40.5 -199t83.5 -157t131.5 -59zM172 1669h133l209 -215h-84z" />
    <glyph glyph-name="Oacute" unicode="&#xd3;" horiz-adv-x="868" 
d="M426 -16h-2q-70 0 -130.5 39t-111 119.5t-79.5 221t-29 326.5q0 184 30 323.5t82.5 221.5t118.5 122t144 40q55 0 104 -23.5t94 -77t77.5 -133.5t51.5 -201t19 -272q0 -186 -29.5 -326t-81.5 -221t-116.5 -120t-141.5 -39zM434 63h2q52 0 94.5 27.5t71 76.5t49 109.5
t31 133.5t15.5 140.5t5 139.5q0 111 -12.5 212t-40.5 199t-83.5 157t-131.5 59q-62 0 -110 -40t-77.5 -102.5t-48 -148t-25.5 -167t-7 -169.5q0 -111 12.5 -212t40.5 -199t83.5 -157t131.5 -59zM555 1669h133l-258 -215h-84z" />
    <glyph glyph-name="Ocircumflex" unicode="&#xd4;" horiz-adv-x="868" 
d="M426 -16h-2q-70 0 -130.5 39t-111 119.5t-79.5 221t-29 326.5q0 184 30 323.5t82.5 221.5t118.5 122t144 40q55 0 104 -23.5t94 -77t77.5 -133.5t51.5 -201t19 -272q0 -186 -29.5 -326t-81.5 -221t-116.5 -120t-141.5 -39zM434 63h2q52 0 94.5 27.5t71 76.5t49 109.5
t31 133.5t15.5 140.5t5 139.5q0 111 -12.5 212t-40.5 199t-83.5 157t-131.5 59q-62 0 -110 -40t-77.5 -102.5t-48 -148t-25.5 -167t-7 -169.5q0 -111 12.5 -212t40.5 -199t83.5 -157t131.5 -59zM393 1638h90l183 -184h-103l-123 117h-4l-123 -117h-102z" />
    <glyph glyph-name="Otilde" unicode="&#xd5;" horiz-adv-x="868" 
d="M426 -16h-2q-70 0 -130.5 39t-111 119.5t-79.5 221t-29 326.5q0 184 30 323.5t82.5 221.5t118.5 122t144 40q55 0 104 -23.5t94 -77t77.5 -133.5t51.5 -201t19 -272q0 -186 -29.5 -326t-81.5 -221t-116.5 -120t-141.5 -39zM434 63h2q52 0 94.5 27.5t71 76.5t49 109.5
t31 133.5t15.5 140.5t5 139.5q0 111 -12.5 212t-40.5 199t-83.5 157t-131.5 59q-62 0 -110 -40t-77.5 -102.5t-48 -148t-25.5 -167t-7 -169.5q0 -111 12.5 -212t40.5 -199t83.5 -157t131.5 -59zM293 1470h-62q0 71 30 117.5t83 46.5q9 0 18 -2t15 -3.5t16 -6.5t13.5 -6.5
t14.5 -8.5t13 -8q4 -2 20.5 -12.5t22.5 -13t18 -6.5t23 -4q27 0 40.5 16.5t16.5 56.5h60q0 -68 -28 -110.5t-91 -42.5q-38 0 -94 37q-4 3 -15 9.5t-16.5 9.5t-14 7.5t-16 6t-14.5 1.5q-26 0 -37 -19.5t-16 -64.5z" />
    <glyph glyph-name="Odieresis" unicode="&#xd6;" horiz-adv-x="868" 
d="M426 -16h-2q-70 0 -130.5 39t-111 119.5t-79.5 221t-29 326.5q0 184 30 323.5t82.5 221.5t118.5 122t144 40q55 0 104 -23.5t94 -77t77.5 -133.5t51.5 -201t19 -272q0 -186 -29.5 -326t-81.5 -221t-116.5 -120t-141.5 -39zM434 63h2q52 0 94.5 27.5t71 76.5t49 109.5
t31 133.5t15.5 140.5t5 139.5q0 111 -12.5 212t-40.5 199t-83.5 157t-131.5 59q-62 0 -110 -40t-77.5 -102.5t-48 -148t-25.5 -167t-7 -169.5q0 -111 12.5 -212t40.5 -199t83.5 -157t131.5 -59zM283 1497h-2q-30 0 -48 19.5t-18 54.5q0 33 19 53.5t49 20.5q33 0 50 -20
t17 -54q0 -74 -67 -74zM586 1497h-2q-30 0 -48 19.5t-18 54.5q0 33 19 53.5t49 20.5q33 0 50 -20t17 -54q0 -74 -67 -74z" />
    <glyph glyph-name="multiply" unicode="&#xd7;" horiz-adv-x="1220" 
d="M82 1020l51 57l475 -485l477 485l54 -57l-475 -483l471 -478l-52 -59l-473 483l-477 -483l-51 59l473 480z" />
    <glyph glyph-name="Oslash" unicode="&#xd8;" horiz-adv-x="868" 
d="M150 -57l-58 30l84 193q-102 183 -102 524q0 150 20 270.5t53.5 201t80 134.5t98 77.5t108.5 23.5q123 0 213 -101l62 142l63 -29l-78 -180q101 -204 101 -535q0 -150 -20 -271t-53.5 -201.5t-80 -135t-98.5 -78.5t-109 -24q-132 0 -215 110zM223 272l383 934
q-79 111 -172 111q-76 0 -131.5 -59.5t-83.5 -158t-40.5 -200t-12.5 -209.5q0 -259 53 -418h4zM645 1120l-389 -932q68 -125 178 -125q77 0 132.5 59.5t83.5 158.5t40 199.5t12 209.5q0 259 -53 428z" />
    <glyph glyph-name="Ugrave" unicode="&#xd9;" horiz-adv-x="882" 
d="M127 1380h88v-942q0 -197 60.5 -286t162.5 -89q110 0 170 91.5t60 283.5v942h88v-931q0 -130 -26.5 -224t-73 -144.5t-101.5 -73.5t-121 -23q-63 0 -115 21t-97 68.5t-70 135.5t-25 211v960zM160 1669h133l209 -215h-84z" />
    <glyph glyph-name="Uacute" unicode="&#xda;" horiz-adv-x="882" 
d="M127 1380h88v-942q0 -197 60.5 -286t162.5 -89q110 0 170 91.5t60 283.5v942h88v-931q0 -130 -26.5 -224t-73 -144.5t-101.5 -73.5t-121 -23q-63 0 -115 21t-97 68.5t-70 135.5t-25 211v960zM588 1669h133l-258 -215h-84z" />
    <glyph glyph-name="Ucircumflex" unicode="&#xdb;" horiz-adv-x="882" 
d="M127 1380h88v-942q0 -197 60.5 -286t162.5 -89q110 0 170 91.5t60 283.5v942h88v-931q0 -130 -26.5 -224t-73 -144.5t-101.5 -73.5t-121 -23q-63 0 -115 21t-97 68.5t-70 135.5t-25 211v960zM397 1638h90l183 -184h-103l-123 117h-4l-123 -117h-102z" />
    <glyph glyph-name="Udieresis" unicode="&#xdc;" horiz-adv-x="882" 
d="M127 1380h88v-942q0 -197 60.5 -286t162.5 -89q110 0 170 91.5t60 283.5v942h88v-931q0 -130 -26.5 -224t-73 -144.5t-101.5 -73.5t-121 -23q-63 0 -115 21t-97 68.5t-70 135.5t-25 211v960zM291 1497h-2q-30 0 -48 19.5t-18 54.5q0 33 19 53.5t49 20.5q33 0 50 -20
t17 -54q0 -74 -67 -74zM594 1497h-2q-30 0 -48 19.5t-18 54.5q0 33 19 53.5t49 20.5q33 0 50.5 -20.5t17.5 -53.5q0 -74 -68 -74z" />
    <glyph glyph-name="Yacute" unicode="&#xdd;" horiz-adv-x="796" 
d="M444 0h-88v618l-305 762h94l140 -356q89 -229 121 -324h4q26 81 122 330l140 350h94l-322 -757v-623zM547 1669h133l-258 -215h-84z" />
    <glyph glyph-name="Thorn" unicode="&#xde;" horiz-adv-x="739" 
d="M127 0v1380h88v-295q61 9 115 9q168 0 262 -101q86 -95 86 -252q0 -178 -106.5 -281.5t-276.5 -103.5q-24 0 -80 9v-365h-88zM215 1012v-572q40 -8 80 -8q135 0 213 78.5t78 226.5q0 281 -277 281q-57 0 -94 -6z" />
    <glyph glyph-name="germandbls" unicode="&#xdf;" horiz-adv-x="800" 
d="M209 0h-88v944q0 300 125 416q81 74 196 74q32 0 65 -8t69 -29.5t63 -54t45 -87t18 -122.5q0 -97 -51 -177q-71 -24 -113 -71.5t-42 -110.5q0 -38 16.5 -75.5t33 -60t54.5 -67.5q69 -77 104 -145.5t35 -153.5q0 -71 -25.5 -127.5t-68 -91t-95 -52t-110.5 -17.5
q-96 0 -153 32l24 74q53 -29 138 -29q92 0 147 55.5t55 143.5q0 52 -20 102t-41 78.5t-58 71.5q-1 2 -18 21.5t-20 23.5t-17 22.5t-18 26t-14.5 25.5t-14 30t-9 30t-7.5 36t-2 37q0 86 48 150.5t132 99.5q22 48 22 102q0 60 -14 105t-34.5 70t-48 40.5t-49.5 20t-44 4.5
q-215 0 -215 -441v-915z" />
    <glyph glyph-name="agrave" unicode="&#xe0;" horiz-adv-x="671" 
d="M551 686v-465q0 -160 8 -221h-82l-8 109h-6q-61 -125 -184 -125q-93 0 -155.5 73.5t-62.5 196.5q0 87 31 154.5t86.5 109.5t127.5 63.5t157 22.5v37q0 68 -6.5 115.5t-24.5 87t-52.5 59t-86.5 19.5q-74 0 -139 -48l-25 68q26 23 77.5 40t104.5 17q109 0 174.5 -73.5
t65.5 -239.5zM463 311v217q-23 0 -41.5 -1t-52.5 -6.5t-60 -15.5t-56.5 -30t-51 -47.5t-34 -70.5t-13.5 -97q0 -102 40.5 -150.5t96.5 -48.5q64 0 109.5 49.5t58.5 137.5q4 23 4 63zM92 1386h117l168 -270h-66z" />
    <glyph glyph-name="aacute" unicode="&#xe1;" horiz-adv-x="671" 
d="M551 686v-465q0 -160 8 -221h-82l-8 109h-6q-61 -125 -184 -125q-93 0 -155.5 73.5t-62.5 196.5q0 87 31 154.5t86.5 109.5t127.5 63.5t157 22.5v37q0 68 -6.5 115.5t-24.5 87t-52.5 59t-86.5 19.5q-74 0 -139 -48l-25 68q26 23 77.5 40t104.5 17q109 0 174.5 -73.5
t65.5 -239.5zM463 311v217q-23 0 -41.5 -1t-52.5 -6.5t-60 -15.5t-56.5 -30t-51 -47.5t-34 -70.5t-13.5 -97q0 -102 40.5 -150.5t96.5 -48.5q64 0 109.5 49.5t58.5 137.5q4 23 4 63zM432 1386h117l-219 -270h-66z" />
    <glyph glyph-name="acircumflex" unicode="&#xe2;" horiz-adv-x="671" 
d="M551 686v-465q0 -160 8 -221h-82l-8 109h-6q-61 -125 -184 -125q-93 0 -155.5 73.5t-62.5 196.5q0 87 31 154.5t86.5 109.5t127.5 63.5t157 22.5v37q0 68 -6.5 115.5t-24.5 87t-52.5 59t-86.5 19.5q-74 0 -139 -48l-25 68q26 23 77.5 40t104.5 17q109 0 174.5 -73.5
t65.5 -239.5zM463 311v217q-23 0 -41.5 -1t-52.5 -6.5t-60 -15.5t-56.5 -30t-51 -47.5t-34 -70.5t-13.5 -97q0 -102 40.5 -150.5t96.5 -48.5q64 0 109.5 49.5t58.5 137.5q4 23 4 63zM299 1386h57l154 -270h-78l-102 187h-4l-103 -187h-78z" />
    <glyph glyph-name="atilde" unicode="&#xe3;" horiz-adv-x="671" 
d="M551 686v-465q0 -160 8 -221h-82l-8 109h-6q-61 -125 -184 -125q-93 0 -155.5 73.5t-62.5 196.5q0 87 31 154.5t86.5 109.5t127.5 63.5t157 22.5v37q0 68 -6.5 115.5t-24.5 87t-52.5 59t-86.5 19.5q-74 0 -139 -48l-25 68q26 23 77.5 40t104.5 17q109 0 174.5 -73.5
t65.5 -239.5zM463 311v217q-23 0 -41.5 -1t-52.5 -6.5t-60 -15.5t-56.5 -30t-51 -47.5t-34 -70.5t-13.5 -97q0 -102 40.5 -150.5t96.5 -48.5q64 0 109.5 49.5t58.5 137.5q4 23 4 63zM197 1153h-66q-2 72 29.5 118t85.5 46q9 0 18 -2t15 -3.5t16 -6.5t13.5 -6.5t14.5 -8.5
t13 -8q6 -3 17.5 -10.5t17.5 -11t15 -7.5t17.5 -6t16.5 -2q26 0 39 17t16 57h64q0 -68 -29 -111t-92 -43q-38 0 -94 37q-4 3 -18.5 12t-21 12t-17 7t-19.5 4q-24 0 -35 -20t-16 -64z" />
    <glyph glyph-name="adieresis" unicode="&#xe4;" horiz-adv-x="671" 
d="M551 686v-465q0 -160 8 -221h-82l-8 109h-6q-61 -125 -184 -125q-93 0 -155.5 73.5t-62.5 196.5q0 87 31 154.5t86.5 109.5t127.5 63.5t157 22.5v37q0 68 -6.5 115.5t-24.5 87t-52.5 59t-86.5 19.5q-74 0 -139 -48l-25 68q26 23 77.5 40t104.5 17q109 0 174.5 -73.5
t65.5 -239.5zM463 311v217q-23 0 -41.5 -1t-52.5 -6.5t-60 -15.5t-56.5 -30t-51 -47.5t-34 -70.5t-13.5 -97q0 -102 40.5 -150.5t96.5 -48.5q64 0 109.5 49.5t58.5 137.5q4 23 4 63zM193 1165h-3q-29 0 -49 20t-20 48q0 29 20.5 48t51.5 19q28 0 46.5 -19t18.5 -48
q0 -28 -19 -48t-46 -20zM483 1165h-2q-29 0 -49 20t-20 48q0 29 20 48t51 19q28 0 47 -19t19 -48q0 -28 -19 -48t-47 -20z" />
    <glyph glyph-name="aring" unicode="&#xe5;" horiz-adv-x="671" 
d="M551 686v-465q0 -160 8 -221h-82l-8 109h-6q-61 -125 -184 -125q-93 0 -155.5 73.5t-62.5 196.5q0 87 31 154.5t86.5 109.5t127.5 63.5t157 22.5v37q0 68 -6.5 115.5t-24.5 87t-52.5 59t-86.5 19.5q-74 0 -139 -48l-25 68q26 23 77.5 40t104.5 17q109 0 174.5 -73.5
t65.5 -239.5zM463 311v217q-23 0 -41.5 -1t-52.5 -6.5t-60 -15.5t-56.5 -30t-51 -47.5t-34 -70.5t-13.5 -97q0 -102 40.5 -150.5t96.5 -48.5q64 0 109.5 49.5t58.5 137.5q4 23 4 63zM330 1430h2q73 0 123.5 -51.5t50.5 -125.5q0 -71 -52.5 -120.5t-123.5 -49.5
q-75 0 -126.5 49.5t-51.5 120.5q0 74 50 125.5t128 51.5zM330 1368h-2q-44 0 -72.5 -34t-28.5 -81q0 -44 30 -76t73 -32q46 0 75 31.5t29 80.5q0 46 -29.5 78.5t-74.5 32.5z" />
    <glyph glyph-name="ae" unicode="&#xe6;" horiz-adv-x="1056" 
d="M997 528h-448q0 -137 17.5 -231.5t51.5 -144.5t75 -70.5t95 -20.5q88 0 158 45l23 -67q-75 -55 -203 -55q-84 0 -154.5 53.5t-91.5 146.5h-4q-22 -91 -83.5 -145.5t-147.5 -54.5q-96 0 -160 73.5t-64 196.5q0 168 113.5 258t294.5 90v70q0 115 -41.5 182.5t-130.5 67.5
q-74 0 -145 -50l-27 66q31 24 83.5 42.5t106.5 18.5q77 0 136 -46.5t73 -143.5h4q28 87 89 138.5t135 51.5q56 0 100 -27t70.5 -68.5t44 -98t24 -110t6.5 -109.5v-58zM469 309v219q-23 0 -43.5 -1t-54.5 -7t-61.5 -16t-58 -29.5t-51.5 -46.5t-34.5 -69.5t-13.5 -94.5
q0 -103 41.5 -153t103.5 -50t108.5 50t59.5 137q4 23 4 61zM553 602h350q5 162 -45.5 241t-114.5 79q-85 0 -135 -93t-55 -227z" />
    <glyph glyph-name="ccedilla" unicode="&#xe7;" horiz-adv-x="589" 
d="M541 98l24 -67q-65 -40 -153 -43l-52 -99q53 -6 92.5 -46.5t39.5 -96.5q0 -74 -49.5 -113t-112.5 -39q-66 0 -125 39l28 66q48 -31 99 -31q80 0 80 70q0 83 -142 98l72 158q-125 26 -197.5 152t-72.5 343q0 137 38.5 251t120 186.5t191.5 72.5q82 0 135 -34l-29 -78
q-55 33 -120 33q-63 0 -112 -38.5t-76.5 -103t-41.5 -139.5t-14 -156q0 -196 67.5 -306.5t184.5 -110.5q72 0 125 32z" />
    <glyph glyph-name="egrave" unicode="&#xe8;" horiz-adv-x="671" 
d="M612 528h-450q0 -462 248 -462q92 0 147 38l21 -67q-70 -49 -185 -49q-157 0 -239 134.5t-82 364.5q0 234 79 373t214 139q69 0 120 -39t77 -103.5t38 -131.5t12 -139v-58zM164 600h354q1 86 -14.5 151.5t-41.5 101t-54.5 52.5t-57.5 17q-55 0 -96.5 -48.5t-63 -119.5
t-26.5 -154zM129 1386h117l168 -270h-66z" />
    <glyph glyph-name="eacute" unicode="&#xe9;" horiz-adv-x="671" 
d="M612 528h-450q0 -462 248 -462q92 0 147 38l21 -67q-70 -49 -185 -49q-157 0 -239 134.5t-82 364.5q0 234 79 373t214 139q69 0 120 -39t77 -103.5t38 -131.5t12 -139v-58zM164 600h354q1 86 -14.5 151.5t-41.5 101t-54.5 52.5t-57.5 17q-55 0 -96.5 -48.5t-63 -119.5
t-26.5 -154zM465 1386h117l-220 -270h-65z" />
    <glyph glyph-name="ecircumflex" unicode="&#xea;" horiz-adv-x="671" 
d="M612 528h-450q0 -462 248 -462q92 0 147 38l21 -67q-70 -49 -185 -49q-157 0 -239 134.5t-82 364.5q0 234 79 373t214 139q69 0 120 -39t77 -103.5t38 -131.5t12 -139v-58zM164 600h354q1 86 -14.5 151.5t-41.5 101t-54.5 52.5t-57.5 17q-55 0 -96.5 -48.5t-63 -119.5
t-26.5 -154zM332 1386h57l154 -270h-78l-103 187h-4l-102 -187h-78z" />
    <glyph glyph-name="edieresis" unicode="&#xeb;" horiz-adv-x="671" 
d="M612 528h-450q0 -462 248 -462q92 0 147 38l21 -67q-70 -49 -185 -49q-157 0 -239 134.5t-82 364.5q0 234 79 373t214 139q69 0 120 -39t77 -103.5t38 -131.5t12 -139v-58zM164 600h354q1 86 -14.5 151.5t-41.5 101t-54.5 52.5t-57.5 17q-55 0 -96.5 -48.5t-63 -119.5
t-26.5 -154zM221 1165h-2q-29 0 -49 20t-20 48q0 29 20 48t51 19q28 0 47 -19t19 -48q0 -28 -19 -48t-47 -20zM512 1165h-2q-29 0 -49.5 20t-20.5 48q0 29 20.5 48t51.5 19q28 0 47 -19t19 -48q0 -28 -19 -48t-47 -20z" />
    <glyph glyph-name="igrave" unicode="&#xec;" horiz-adv-x="329" 
d="M209 0h-88v983h88v-983zM-66 1386h117l168 -270h-65z" />
    <glyph glyph-name="iacute" unicode="&#xed;" horiz-adv-x="329" 
d="M209 0h-88v983h88v-983zM262 1386h117l-219 -270h-66z" />
    <glyph glyph-name="icircumflex" unicode="&#xee;" horiz-adv-x="329" 
d="M209 0h-88v983h88v-983zM137 1386h58l153 -270h-78l-102 187h-4l-103 -187h-77z" />
    <glyph glyph-name="idieresis" unicode="&#xef;" horiz-adv-x="329" 
d="M209 0h-88v983h88v-983zM23 1165h-3q-29 0 -49 20t-20 48q0 29 20.5 48t51.5 19q28 0 46.5 -19t18.5 -48q0 -28 -19 -48t-46 -20zM313 1165h-2q-29 0 -49 20t-20 48q0 29 20 48t51 19q28 0 47 -19t19 -48q0 -28 -19 -48t-47 -20z" />
    <glyph glyph-name="eth" unicode="&#xf0;" horiz-adv-x="716" 
d="M358 61h2q46 0 82 30t56.5 74t33 103.5t17 110.5t4.5 102q0 233 -37 336q-15 46 -54 75.5t-102 29.5q-60 0 -101.5 -43.5t-60.5 -115t-26.5 -136t-7.5 -133.5q0 -70 7.5 -135.5t26 -137.5t60 -116t100.5 -44zM154 1044l-29 56l176 104q-22 26 -48 55t-60 66t-52 57l56 52
q141 -152 170 -189l184 111l33 -56l-176 -106q101 -127 157 -258q80 -188 80 -444q1 -250 -85 -379t-208 -129q-43 0 -83 18t-76.5 58t-63 98t-42 144t-15.5 190q0 127 24.5 227t65 159.5t90 90t104.5 30.5q64 0 107 -38l4 4q-14 33 -38 70.5t-38 55.5t-49 64z" />
    <glyph glyph-name="ntilde" unicode="&#xf1;" horiz-adv-x="761" 
d="M121 0v756q0 72 -4 144t-4 83h80l4 -121h4q29 62 85.5 99.5t131.5 37.5q42 0 79 -15.5t71 -49.5t53.5 -99.5t19.5 -154.5v-680h-88v645q0 58 -6.5 103t-23 87.5t-50 65.5t-82.5 23q-63 0 -113.5 -54t-64.5 -151q-4 -27 -4 -86v-633h-88zM242 1153h-66q-2 72 29.5 118
t85.5 46q9 0 18 -2t15 -3.5t16 -6.5t13.5 -6.5t14.5 -8.5t13 -8q6 -3 17.5 -10.5t17.5 -11t15 -7.5t17.5 -6t16.5 -2q26 0 39 17t16 57h64q0 -68 -29 -111t-92 -43q-39 0 -94 37q-4 3 -18.5 12t-21 12t-17 7t-19.5 4q-24 0 -35 -20t-16 -64z" />
    <glyph glyph-name="ograve" unicode="&#xf2;" horiz-adv-x="724" 
d="M358 -16h-2q-43 0 -83 17.5t-77 57.5t-64 97.5t-43.5 144t-16.5 191.5q0 131 24.5 231t67.5 159t95 88t112 29q54 0 103 -29t90 -87.5t65 -159.5t24 -231q0 -131 -24.5 -231.5t-67 -159t-94 -88t-109.5 -29.5zM362 61h3q59 0 100 43t60.5 114t27.5 137.5t8 136.5
q0 54 -4.5 106.5t-17.5 113.5t-34.5 105.5t-58.5 74.5t-86 30q-59 0 -100 -43t-60.5 -113.5t-27.5 -137t-8 -136.5q0 -55 4 -107t17.5 -113t34 -106t57.5 -75t85 -30zM150 1386h116l168 -270h-65z" />
    <glyph glyph-name="oacute" unicode="&#xf3;" horiz-adv-x="724" 
d="M358 -16h-2q-43 0 -83 17.5t-77 57.5t-64 97.5t-43.5 144t-16.5 191.5q0 131 24.5 231t67.5 159t95 88t112 29q54 0 103 -29t90 -87.5t65 -159.5t24 -231q0 -131 -24.5 -231.5t-67 -159t-94 -88t-109.5 -29.5zM362 61h3q59 0 100 43t60.5 114t27.5 137.5t8 136.5
q0 54 -4.5 106.5t-17.5 113.5t-34.5 105.5t-58.5 74.5t-86 30q-59 0 -100 -43t-60.5 -113.5t-27.5 -137t-8 -136.5q0 -55 4 -107t17.5 -113t34 -106t57.5 -75t85 -30zM459 1386h116l-219 -270h-65z" />
    <glyph glyph-name="ocircumflex" unicode="&#xf4;" horiz-adv-x="724" 
d="M358 -16h-2q-43 0 -83 17.5t-77 57.5t-64 97.5t-43.5 144t-16.5 191.5q0 131 24.5 231t67.5 159t95 88t112 29q54 0 103 -29t90 -87.5t65 -159.5t24 -231q0 -131 -24.5 -231.5t-67 -159t-94 -88t-109.5 -29.5zM362 61h3q59 0 100 43t60.5 114t27.5 137.5t8 136.5
q0 54 -4.5 106.5t-17.5 113.5t-34.5 105.5t-58.5 74.5t-86 30q-59 0 -100 -43t-60.5 -113.5t-27.5 -137t-8 -136.5q0 -55 4 -107t17.5 -113t34 -106t57.5 -75t85 -30zM334 1386h57l154 -270h-78l-102 187h-5l-102 -187h-78z" />
    <glyph glyph-name="otilde" unicode="&#xf5;" horiz-adv-x="724" 
d="M358 -16h-2q-43 0 -83 17.5t-77 57.5t-64 97.5t-43.5 144t-16.5 191.5q0 131 24.5 231t67.5 159t95 88t112 29q54 0 103 -29t90 -87.5t65 -159.5t24 -231q0 -131 -24.5 -231.5t-67 -159t-94 -88t-109.5 -29.5zM362 61h3q59 0 100 43t60.5 114t27.5 137.5t8 136.5
q0 54 -4.5 106.5t-17.5 113.5t-34.5 105.5t-58.5 74.5t-86 30q-59 0 -100 -43t-60.5 -113.5t-27.5 -137t-8 -136.5q0 -55 4 -107t17.5 -113t34 -106t57.5 -75t85 -30zM223 1153h-65q-2 72 29 118t85 46q9 0 18 -2t15 -3.5t16 -6.5t13.5 -6.5t14.5 -8.5t13 -8
q6 -3 17.5 -10.5t17.5 -11t15 -7.5t17.5 -6t16.5 -2q51 0 56 74h63q0 -68 -29 -111t-92 -43q-38 0 -94 37q-4 3 -18.5 12t-21 12t-17 7t-19.5 4q-24 0 -35 -20t-16 -64z" />
    <glyph glyph-name="odieresis" unicode="&#xf6;" horiz-adv-x="724" 
d="M358 -16h-2q-43 0 -83 17.5t-77 57.5t-64 97.5t-43.5 144t-16.5 191.5q0 131 24.5 231t67.5 159t95 88t112 29q54 0 103 -29t90 -87.5t65 -159.5t24 -231q0 -131 -24.5 -231.5t-67 -159t-94 -88t-109.5 -29.5zM362 61h3q59 0 100 43t60.5 114t27.5 137.5t8 136.5
q0 54 -4.5 106.5t-17.5 113.5t-34.5 105.5t-58.5 74.5t-86 30q-59 0 -100 -43t-60.5 -113.5t-27.5 -137t-8 -136.5q0 -55 4 -107t17.5 -113t34 -106t57.5 -75t85 -30zM219 1165h-2q-29 0 -49.5 20t-20.5 48q0 29 20.5 48t51.5 19q28 0 47 -19t19 -48q0 -28 -19 -48t-47 -20z
M510 1165h-2q-29 0 -49.5 20t-20.5 48q0 29 20.5 48t51.5 19q28 0 46.5 -19t18.5 -48q0 -28 -19 -48t-46 -20z" />
    <glyph glyph-name="divide" unicode="&#xf7;" horiz-adv-x="1220" 
d="M610 838h-2q-32 0 -51.5 20.5t-19.5 54.5t20 56t53 22q34 0 54 -21.5t20 -56.5q0 -34 -19.5 -54.5t-54.5 -20.5zM1139 508h-1057v78h1057v-78zM610 102h-2q-32 0 -51.5 21t-19.5 55t20 56t53 22q34 0 54 -21.5t20 -56.5q0 -34 -19.5 -55t-54.5 -21z" />
    <glyph glyph-name="oslash" unicode="&#xf8;" horiz-adv-x="724" 
d="M362 999h3q85 0 155 -67l45 102l64 -30l-60 -136q84 -132 84 -376q0 -130 -25 -231t-67 -159.5t-92.5 -88t-106.5 -29.5q-84 0 -153 63l-45 -104l-60 37l56 126q-88 138 -88 386q0 130 25 231t67 159.5t92 87.5t106 29zM205 203l278 645q-30 74 -121 74q-49 0 -86.5 -30
t-58 -74.5t-33 -106t-16.5 -113t-4 -106.5q0 -164 39 -287zM524 772l-278 -643q41 -68 116 -68q61 0 103 43t61.5 114.5t27 137t7.5 136.5q0 161 -35 278z" />
    <glyph glyph-name="ugrave" unicode="&#xf9;" horiz-adv-x="745" 
d="M629 983v-735q0 -49 1.5 -95t3.5 -90.5t3 -62.5h-80l-8 102h-4q-21 -40 -75 -79t-126 -39q-118 0 -171.5 91.5t-53.5 270.5v637h88v-618q0 -70 6 -120.5t22 -95t47 -67.5t78 -23q43 0 78 19t55 47.5t30.5 55.5t13.5 50q4 31 4 91v661h88zM160 1386h116l168 -270h-65z" />
    <glyph glyph-name="uacute" unicode="&#xfa;" horiz-adv-x="745" 
d="M629 983v-735q0 -49 1.5 -95t3.5 -90.5t3 -62.5h-80l-8 102h-4q-21 -40 -75 -79t-126 -39q-118 0 -171.5 91.5t-53.5 270.5v637h88v-618q0 -70 6 -120.5t22 -95t47 -67.5t78 -23q43 0 78 19t55 47.5t30.5 55.5t13.5 50q4 31 4 91v661h88zM494 1386h116l-219 -270h-65z
" />
    <glyph glyph-name="ucircumflex" unicode="&#xfb;" horiz-adv-x="745" 
d="M629 983v-735q0 -49 1.5 -95t3.5 -90.5t3 -62.5h-80l-8 102h-4q-21 -40 -75 -79t-126 -39q-118 0 -171.5 91.5t-53.5 270.5v637h88v-618q0 -70 6 -120.5t22 -95t47 -67.5t78 -23q43 0 78 19t55 47.5t30.5 55.5t13.5 50q4 31 4 91v661h88zM344 1386h57l154 -270h-78
l-102 187h-4l-103 -187h-78z" />
    <glyph glyph-name="udieresis" unicode="&#xfc;" horiz-adv-x="745" 
d="M629 983v-735q0 -49 1.5 -95t3.5 -90.5t3 -62.5h-80l-8 102h-4q-21 -40 -75 -79t-126 -39q-118 0 -171.5 91.5t-53.5 270.5v637h88v-618q0 -70 6 -120.5t22 -95t47 -67.5t78 -23q43 0 78 19t55 47.5t30.5 55.5t13.5 50q4 31 4 91v661h88zM236 1165h-3q-29 0 -49 20
t-20 48q0 29 20.5 48t51.5 19q28 0 46.5 -19t18.5 -48q0 -28 -19 -48t-46 -20zM526 1165h-2q-29 0 -49 20t-20 48q0 29 20 48t51 19q28 0 47 -19t19 -48q0 -28 -19 -48t-47 -20z" />
    <glyph glyph-name="yacute" unicode="&#xfd;" horiz-adv-x="651" 
d="M37 983h90l152 -598q13 -50 28 -126.5t21 -100.5h4q6 31 25 109.5t28 117.5l139 598h90l-135 -551q-32 -133 -54.5 -215t-55 -186t-70 -181.5t-80.5 -136.5q-74 -102 -147 -145l-45 74q77 51 145 149q63 93 92 197q10 36 10 53q0 25 -4 37zM438 1386h117l-219 -270h-66z
" />
    <glyph glyph-name="thorn" unicode="&#xfe;" horiz-adv-x="755" 
d="M119 1354h88v-492h4q65 137 209 137q109 0 186.5 -127.5t77.5 -375.5q0 -108 -17 -196t-45.5 -146t-67 -97t-78.5 -56t-83 -17q-125 0 -182 120h-4v-497h-88v1747zM207 602v-244q0 -50 4 -75q13 -67 36 -114t50.5 -69t50 -30.5t45.5 -8.5q55 0 95 35t62 97t32 136t10 163
q0 86 -10.5 160t-33.5 136.5t-63.5 98t-95.5 35.5q-67 0 -120.5 -74.5t-59.5 -167.5q-2 -27 -2 -78z" />
    <glyph glyph-name="ydieresis" unicode="&#xff;" horiz-adv-x="651" 
d="M37 983h90l152 -598q13 -50 28 -126.5t21 -100.5h4q6 31 25 109.5t28 117.5l139 598h90l-135 -551q-32 -133 -54.5 -215t-55 -186t-70 -181.5t-80.5 -136.5q-74 -102 -147 -145l-45 74q77 51 145 149q63 93 92 197q10 36 10 53q0 25 -4 37zM190 1165h-2q-29 0 -49 20
t-20 48q0 29 20 48t51 19q28 0 47 -19t19 -48q0 -28 -19 -48t-47 -20zM481 1165h-2q-29 0 -49 20t-20 48q0 29 20 48t51 19q28 0 47 -19t19 -48q0 -28 -19 -48t-47 -20z" />
    <glyph glyph-name="Amacron" unicode="&#x100;" horiz-adv-x="862" 
d="M600 475h-342l-111 -475h-86l326 1380h84l330 -1380h-90zM276 551h304l-88 389q-35 148 -62 315h-8q-19 -137 -60 -317zM229 1581h408v-76h-408v76z" />
    <glyph glyph-name="amacron" unicode="&#x101;" horiz-adv-x="671" 
d="M551 686v-465q0 -160 8 -221h-82l-8 109h-6q-61 -125 -184 -125q-93 0 -155.5 73.5t-62.5 196.5q0 87 31 154.5t86.5 109.5t127.5 63.5t157 22.5v37q0 68 -6.5 115.5t-24.5 87t-52.5 59t-86.5 19.5q-74 0 -139 -48l-25 68q26 23 77.5 40t104.5 17q109 0 174.5 -73.5
t65.5 -239.5zM463 311v217q-23 0 -41.5 -1t-52.5 -6.5t-60 -15.5t-56.5 -30t-51 -47.5t-34 -70.5t-13.5 -97q0 -102 40.5 -150.5t96.5 -48.5q64 0 109.5 49.5t58.5 137.5q4 23 4 63zM145 1262h383v-74h-383v74z" />
    <glyph glyph-name="Abreve" unicode="&#x102;" horiz-adv-x="862" 
d="M600 475h-342l-111 -475h-86l326 1380h84l330 -1380h-90zM276 551h304l-88 389q-35 148 -62 315h-8q-19 -137 -60 -317zM231 1632h62q10 -42 47 -65t90 -23q120 0 141 88h62q0 -76 -56.5 -124t-144.5 -48q-90 0 -145.5 45.5t-55.5 126.5z" />
    <glyph glyph-name="abreve" unicode="&#x103;" horiz-adv-x="671" 
d="M551 686v-465q0 -160 8 -221h-82l-8 109h-6q-61 -125 -184 -125q-93 0 -155.5 73.5t-62.5 196.5q0 87 31 154.5t86.5 109.5t127.5 63.5t157 22.5v37q0 68 -6.5 115.5t-24.5 87t-52.5 59t-86.5 19.5q-74 0 -139 -48l-25 68q26 23 77.5 40t104.5 17q109 0 174.5 -73.5
t65.5 -239.5zM463 311v217q-23 0 -41.5 -1t-52.5 -6.5t-60 -15.5t-56.5 -30t-51 -47.5t-34 -70.5t-13.5 -97q0 -102 40.5 -150.5t96.5 -48.5q64 0 109.5 49.5t58.5 137.5q4 23 4 63zM135 1356h62q3 -59 41 -97t96 -38q62 0 101 37t40 98h62q3 -95 -52 -154t-149 -59
q-99 0 -151.5 60.5t-49.5 152.5z" />
    <glyph glyph-name="Aogonek" unicode="&#x104;" horiz-adv-x="862" 
d="M471 1380l330 -1380h-17q-37 -39 -74.5 -105t-37.5 -118q0 -48 26.5 -73.5t59.5 -25.5q44 0 92 23l16 -59q-50 -41 -129 -41q-67 0 -110 40t-43 111q0 115 123 264l-107 459h-342l-111 -475h-86l326 1380h84zM276 551h304l-88 389q-35 148 -62 315h-8q-21 -146 -60 -317z
" />
    <glyph glyph-name="aogonek" unicode="&#x105;" horiz-adv-x="671" 
d="M551 686v-465q0 -165 16 -221h-12q-36 -44 -69 -111.5t-33 -128.5q0 -48 26 -73t60 -25q57 0 92 21l16 -60q-52 -39 -129 -39q-67 0 -110 40.5t-43 111.5q0 108 112 264l-8 109h-6q-61 -125 -184 -125q-93 0 -155.5 73.5t-62.5 196.5q0 87 31 154.5t86.5 109.5
t127.5 63.5t157 22.5v37q0 68 -6.5 115.5t-24.5 87t-52.5 59t-86.5 19.5q-74 0 -139 -48l-25 68q26 23 77.5 40t104.5 17q109 0 174.5 -73.5t65.5 -239.5zM463 311v217q-23 0 -41.5 -1t-52.5 -6.5t-60 -15.5t-56.5 -30t-51 -47.5t-34 -70.5t-13.5 -97q0 -102 40.5 -150.5
t96.5 -48.5q64 0 109.5 49.5t58.5 137.5q4 23 4 63z" />
    <glyph glyph-name="Cacute" unicode="&#x106;" 
d="M668 102l24 -75q-70 -39 -192 -39q-68 0 -128 21.5t-115.5 72.5t-95.5 128.5t-63.5 196.5t-23.5 269q0 161 28.5 288.5t74 206t106 130.5t119 72t118.5 20q109 0 162 -33l-29 -78q-23 11 -36.5 16t-43.5 10t-67 5q-45 0 -90.5 -19t-91 -65t-80 -115t-56.5 -178t-22 -244
q0 -140 19.5 -249.5t52.5 -178.5t78.5 -114.5t94 -63.5t103.5 -18q92 0 154 34zM608 1669h133l-258 -215h-84z" />
    <glyph glyph-name="cacute" unicode="&#x107;" horiz-adv-x="591" 
d="M539 96l20 -67q-64 -41 -160 -41q-149 0 -238 130.5t-89 370.5q0 137 38.5 251t120 186.5t191.5 72.5q82 0 135 -34l-29 -78q-55 33 -120 33q-63 0 -112 -38.5t-76.5 -103t-41.5 -139.5t-14 -156q0 -196 67.5 -306.5t184.5 -110.5q65 0 123 30zM487 1386h117l-219 -270
h-66z" />
    <glyph glyph-name="Ccircumflex" unicode="&#x108;" 
d="M668 102l24 -75q-70 -39 -192 -39q-68 0 -128 21.5t-115.5 72.5t-95.5 128.5t-63.5 196.5t-23.5 269q0 161 28.5 288.5t74 206t106 130.5t119 72t118.5 20q109 0 162 -33l-29 -78q-23 11 -36.5 16t-43.5 10t-67 5q-45 0 -90.5 -19t-91 -65t-80 -115t-56.5 -178t-22 -244
q0 -140 19.5 -249.5t52.5 -178.5t78.5 -114.5t94 -63.5t103.5 -18q92 0 154 34zM418 1638h90l182 -184h-102l-123 117h-4l-123 -117h-102z" />
    <glyph glyph-name="ccircumflex" unicode="&#x109;" horiz-adv-x="591" 
d="M539 96l20 -67q-64 -41 -160 -41q-149 0 -238 130.5t-89 370.5q0 137 38.5 251t120 186.5t191.5 72.5q82 0 135 -34l-29 -78q-55 33 -120 33q-63 0 -112 -38.5t-76.5 -103t-41.5 -139.5t-14 -156q0 -196 67.5 -306.5t184.5 -110.5q65 0 123 30zM354 1386h58l153 -270h-78
l-102 187h-4l-102 -187h-78z" />
    <glyph glyph-name="Cdotaccent" unicode="&#x10a;" 
d="M668 102l24 -75q-70 -39 -192 -39q-68 0 -128 21.5t-115.5 72.5t-95.5 128.5t-63.5 196.5t-23.5 269q0 161 28.5 288.5t74 206t106 130.5t119 72t118.5 20q109 0 162 -33l-29 -78q-23 11 -36.5 16t-43.5 10t-67 5q-45 0 -90.5 -19t-91 -65t-80 -115t-56.5 -178t-22 -244
q0 -140 19.5 -249.5t52.5 -178.5t78.5 -114.5t94 -63.5t103.5 -18q92 0 154 34zM483 1483h-2q-29 0 -49 19.5t-20 47.5q0 29 20 48.5t51 19.5q28 0 47 -19.5t19 -48.5q0 -28 -19 -47.5t-47 -19.5z" />
    <glyph glyph-name="cdotaccent" unicode="&#x10b;" horiz-adv-x="591" 
d="M539 96l20 -67q-64 -41 -160 -41q-149 0 -238 130.5t-89 370.5q0 137 38.5 251t120 186.5t191.5 72.5q82 0 135 -34l-29 -78q-55 33 -120 33q-63 0 -112 -38.5t-76.5 -103t-41.5 -139.5t-14 -156q0 -196 67.5 -306.5t184.5 -110.5q65 0 123 30zM379 1165h-2
q-29 0 -49.5 20t-20.5 48q0 29 20.5 48t51.5 19q28 0 46.5 -19t18.5 -48q0 -28 -19 -48t-46 -20z" />
    <glyph glyph-name="Ccaron" unicode="&#x10c;" 
d="M668 102l24 -75q-70 -39 -192 -39q-68 0 -128 21.5t-115.5 72.5t-95.5 128.5t-63.5 196.5t-23.5 269q0 161 28.5 288.5t74 206t106 130.5t119 72t118.5 20q109 0 162 -33l-29 -78q-23 11 -36.5 16t-43.5 10t-67 5q-45 0 -90.5 -19t-91 -65t-80 -115t-56.5 -178t-22 -244
q0 -140 19.5 -249.5t52.5 -178.5t78.5 -114.5t94 -63.5t103.5 -18q92 0 154 34zM520 1454h-90l-182 184h102l123 -125h4l123 125h102z" />
    <glyph glyph-name="ccaron" unicode="&#x10d;" horiz-adv-x="591" 
d="M539 96l20 -67q-64 -41 -160 -41q-149 0 -238 130.5t-89 370.5q0 137 38.5 251t120 186.5t191.5 72.5q82 0 135 -34l-29 -78q-55 33 -120 33q-63 0 -112 -38.5t-76.5 -103t-41.5 -139.5t-14 -156q0 -196 67.5 -306.5t184.5 -110.5q65 0 123 30zM406 1116h-60l-153 270h77
l103 -186h4l104 186h78z" />
    <glyph glyph-name="Dcaron" unicode="&#x10e;" horiz-adv-x="851" 
d="M127 6v1354q72 26 174 26q181 0 287 -92q83 -70 136.5 -210t53.5 -351q0 -394 -149 -581q-62 -79 -155 -118.5t-200 -39.5q-98 0 -147 12zM215 1303v-1227q29 -4 68 -4q65 0 119.5 16.5t108.5 61.5t91.5 116t60.5 187t23 268q0 590 -385 590q-36 0 -86 -8zM416 1454h-90
l-183 184h103l123 -125h4l123 125h102z" />
    <glyph glyph-name="dcaron" unicode="&#x10f;" horiz-adv-x="776" 
d="M549 1417h88v-1216q0 -53 8 -201h-76l-8 131h-8q-25 -61 -77 -104t-130 -43q-115 0 -194.5 126.5t-79.5 376.5q0 127 24.5 227.5t65 161t90.5 92t104 31.5q129 0 189 -127h4v545zM549 348v264q0 47 -2 70q-6 97 -58.5 168.5t-119.5 71.5q-56 0 -97 -35.5t-64 -98
t-33.5 -136t-10.5 -160.5q0 -117 18.5 -211t63.5 -157t110 -63q25 0 48 8.5t50 30.5t51 68t40 113q4 20 4 67zM774 1051l-49 28q57 91 57 187q0 87 -71 141l86 23q28 -20 47.5 -59t19.5 -87q0 -114 -90 -233z" />
    <glyph glyph-name="Dcroat" unicode="&#x110;" horiz-adv-x="876" 
d="M0 686v76h152v598q71 26 174 26q180 0 286 -92q84 -70 137.5 -211.5t53.5 -355.5q0 -393 -150 -582q-62 -79 -154.5 -118t-199.5 -39q-98 0 -147 12v686h-152zM483 762v-76h-243v-616q29 -4 67 -4q65 0 120 16.5t109 61.5t91.5 116.5t60.5 189t23 271.5q0 590 -385 590
q-36 0 -86 -8v-541h243z" />
    <glyph glyph-name="dcroat" unicode="&#x111;" horiz-adv-x="755" 
d="M754 1126h-117v-925q0 -53 8 -201h-76l-8 131h-8q-25 -61 -77 -104t-130 -43q-115 0 -194.5 126.5t-79.5 376.5q0 127 24.5 227.5t65 161t90.5 92t104 31.5q129 0 189 -127h4v254h-270v74h270v217h88v-217h117v-74zM549 348v264q0 47 -2 70q-6 97 -58.5 168.5
t-119.5 71.5q-56 0 -97 -35.5t-64 -98t-33.5 -136t-10.5 -160.5q0 -117 18.5 -211t63.5 -157t110 -63q25 0 48 8.5t50 30.5t51 68t40 113q4 20 4 67z" />
    <glyph glyph-name="Emacron" unicode="&#x112;" horiz-adv-x="673" 
d="M580 764v-78h-365v-608h418v-78h-506v1380h479v-77h-391v-539h365zM180 1581h408v-76h-408v76z" />
    <glyph glyph-name="emacron" unicode="&#x113;" horiz-adv-x="671" 
d="M612 528h-450q0 -462 248 -462q92 0 147 38l21 -67q-70 -49 -185 -49q-157 0 -239 134.5t-82 364.5q0 234 79 373t214 139q69 0 120 -39t77 -103.5t38 -131.5t12 -139v-58zM164 600h354q1 86 -14.5 151.5t-41.5 101t-54.5 52.5t-57.5 17q-55 0 -96.5 -48.5t-63 -119.5
t-26.5 -154zM162 1262h383v-74h-383v74z" />
    <glyph glyph-name="Ebreve" unicode="&#x114;" horiz-adv-x="673" 
d="M580 764v-78h-365v-608h418v-78h-506v1380h479v-77h-391v-539h365zM170 1632h61q10 -42 47.5 -65t90.5 -23q120 0 141 88h61q0 -76 -56 -124t-144 -48q-90 0 -145.5 45.5t-55.5 126.5z" />
    <glyph glyph-name="ebreve" unicode="&#x115;" horiz-adv-x="671" 
d="M612 528h-450q0 -462 248 -462q92 0 147 38l21 -67q-70 -49 -185 -49q-157 0 -239 134.5t-82 364.5q0 234 79 373t214 139q69 0 120 -39t77 -103.5t38 -131.5t12 -139v-58zM164 600h354q1 86 -14.5 151.5t-41.5 101t-54.5 52.5t-57.5 17q-55 0 -96.5 -48.5t-63 -119.5
t-26.5 -154zM152 1356h61q3 -59 41 -97t96 -38q62 0 101.5 37t40.5 98h61q3 -95 -52 -154t-149 -59q-99 0 -151 60.5t-49 152.5z" />
    <glyph glyph-name="Edotaccent" unicode="&#x116;" horiz-adv-x="673" 
d="M580 764v-78h-365v-608h418v-78h-506v1380h479v-77h-391v-539h365zM391 1503h-2q-29 0 -49.5 20t-20.5 48q0 29 20.5 48t51.5 19q28 0 47 -19t19 -48q0 -28 -19 -48t-47 -20z" />
    <glyph glyph-name="edotaccent" unicode="&#x117;" horiz-adv-x="671" 
d="M612 528h-450q0 -462 248 -462q92 0 147 38l21 -67q-70 -49 -185 -49q-157 0 -239 134.5t-82 364.5q0 234 79 373t214 139q69 0 120 -39t77 -103.5t38 -131.5t12 -139v-58zM164 600h354q1 86 -14.5 151.5t-41.5 101t-54.5 52.5t-57.5 17q-55 0 -96.5 -48.5t-63 -119.5
t-26.5 -154zM356 1165h-2q-29 0 -49 20t-20 48q0 29 20 48t51 19q28 0 47 -19t19 -48q0 -28 -19 -48t-47 -20z" />
    <glyph glyph-name="Eogonek" unicode="&#x118;" horiz-adv-x="673" 
d="M616 -305l17 -60q-50 -41 -129 -41q-69 0 -111.5 39.5t-42.5 108.5q0 77 57.5 147t131.5 111h-412v1380h479v-77h-391v-539h365v-78h-365v-608h418v-78q-2 -1 -7.5 -4t-7.5 -4q-78 -46 -129 -106.5t-51 -118.5q0 -47 26.5 -70t59.5 -23q49 0 92 21z" />
    <glyph glyph-name="eogonek" unicode="&#x119;" horiz-adv-x="671" 
d="M502 -299l16 -59q-50 -41 -129 -41q-67 0 -110 39t-43 106q0 68 51 136.5t112 103.5v2h-6q-157 0 -239 134.5t-82 364.5q0 234 79 373t214 139q69 0 120 -39t77 -103.5t38 -131.5t12 -139v-58h-450q0 -462 248 -462q92 0 147 38l21 -67q-20 -13 -39 -21
q-80 -34 -147.5 -107t-67.5 -145q0 -46 25 -68t61 -22q43 0 92 27zM164 600h354q1 86 -14.5 151.5t-41.5 101t-54.5 52.5t-57.5 17q-55 0 -96.5 -48.5t-63 -119.5t-26.5 -154z" />
    <glyph glyph-name="Ecaron" unicode="&#x11a;" horiz-adv-x="673" 
d="M580 764v-78h-365v-608h418v-78h-506v1380h479v-77h-391v-539h365zM416 1454h-90l-183 184h103l123 -125h4l123 125h102z" />
    <glyph glyph-name="ecaron" unicode="&#x11b;" horiz-adv-x="671" 
d="M612 528h-450q0 -462 248 -462q92 0 147 38l21 -67q-70 -49 -185 -49q-157 0 -239 134.5t-82 364.5q0 234 79 373t214 139q69 0 120 -39t77 -103.5t38 -131.5t12 -139v-58zM164 600h354q1 86 -14.5 151.5t-41.5 101t-54.5 52.5t-57.5 17q-55 0 -96.5 -48.5t-63 -119.5
t-26.5 -154zM379 1116h-60l-153 270h78l102 -186h4l105 186h77z" />
    <glyph glyph-name="Gcircumflex" unicode="&#x11c;" horiz-adv-x="845" 
d="M752 688v-653q-99 -47 -220 -47q-183 0 -301 133q-71 80 -114 219t-43 326q0 161 30 289.5t77.5 208.5t112 133.5t128.5 74.5t131 21q111 0 180 -37l-28 -78q-68 35 -160 35q-53 0 -103.5 -18.5t-101.5 -63.5t-89 -113t-61.5 -176.5t-23.5 -243.5q0 -140 20.5 -250.5
t55.5 -180.5t84 -116t101.5 -64.5t113.5 -18.5q88 0 123 20v524h-211v76h299zM461 1638h90l182 -184h-102l-123 117h-4l-123 -117h-102z" />
    <glyph glyph-name="gcircumflex" unicode="&#x11d;" horiz-adv-x="755" 
d="M637 680v-543q0 -204 -19.5 -296.5t-64.5 -147.5q-38 -49 -98 -76t-127 -27q-58 0 -112.5 14.5t-86.5 35.5l29 73q83 -45 180 -45q47 0 83.5 16t66 53t45.5 105.5t16 165.5v125h-4q-24 -64 -76 -98.5t-119 -34.5q-116 0 -197 130t-81 362q0 111 19.5 200t49.5 145
t70.5 94t79.5 53t78 15q40 0 71.5 -11.5t52.5 -33.5t32 -39t24 -41q3 -5 4 -8h4l4 117h84q-8 -212 -8 -303zM549 358v299q0 49 -6 72q-47 193 -178 193q-93 0 -147 -115t-54 -307q0 -209 58.5 -315.5t144.5 -106.5q129 0 174 184q8 37 8 96zM338 1386h57l154 -270h-78
l-102 187h-4l-103 -187h-78z" />
    <glyph glyph-name="Gbreve" unicode="&#x11e;" horiz-adv-x="845" 
d="M752 688v-653q-99 -47 -220 -47q-183 0 -301 133q-71 80 -114 219t-43 326q0 161 30 289.5t77.5 208.5t112 133.5t128.5 74.5t131 21q111 0 180 -37l-28 -78q-68 35 -160 35q-53 0 -103.5 -18.5t-101.5 -63.5t-89 -113t-61.5 -176.5t-23.5 -243.5q0 -140 20.5 -250.5
t55.5 -180.5t84 -116t101.5 -64.5t113.5 -18.5q88 0 123 20v524h-211v76h299zM291 1632h61q10 -42 47 -65t90 -23q121 0 142 88h61q0 -76 -56 -124t-144 -48q-90 0 -145.5 45.5t-55.5 126.5z" />
    <glyph glyph-name="gbreve" unicode="&#x11f;" horiz-adv-x="755" 
d="M637 680v-543q0 -204 -19.5 -296.5t-64.5 -147.5q-38 -49 -98 -76t-127 -27q-58 0 -112.5 14.5t-86.5 35.5l29 73q83 -45 180 -45q47 0 83.5 16t66 53t45.5 105.5t16 165.5v125h-4q-24 -64 -76 -98.5t-119 -34.5q-116 0 -197 130t-81 362q0 111 19.5 200t49.5 145
t70.5 94t79.5 53t78 15q40 0 71.5 -11.5t52.5 -33.5t32 -39t24 -41q3 -5 4 -8h4l4 117h84q-8 -212 -8 -303zM549 358v299q0 49 -6 72q-47 193 -178 193q-93 0 -147 -115t-54 -307q0 -209 58.5 -315.5t144.5 -106.5q129 0 174 184q8 37 8 96zM168 1356h61q3 -59 41.5 -97
t96.5 -38q62 0 101 37t40 98h61q3 -95 -51.5 -154t-148.5 -59q-99 0 -151.5 60.5t-49.5 152.5z" />
    <glyph glyph-name="Gdotaccent" unicode="&#x120;" horiz-adv-x="845" 
d="M752 688v-653q-99 -47 -220 -47q-183 0 -301 133q-71 80 -114 219t-43 326q0 161 30 289.5t77.5 208.5t112 133.5t128.5 74.5t131 21q111 0 180 -37l-28 -78q-68 35 -160 35q-53 0 -103.5 -18.5t-101.5 -63.5t-89 -113t-61.5 -176.5t-23.5 -243.5q0 -140 20.5 -250.5
t55.5 -180.5t84 -116t101.5 -64.5t113.5 -18.5q88 0 123 20v524h-211v76h299zM506 1483h-2q-29 0 -49.5 19.5t-20.5 47.5q0 29 20.5 48.5t51.5 19.5q28 0 46.5 -19.5t18.5 -48.5q0 -28 -18.5 -47.5t-46.5 -19.5z" />
    <glyph glyph-name="gdotaccent" unicode="&#x121;" horiz-adv-x="755" 
d="M637 680v-543q0 -204 -19.5 -296.5t-64.5 -147.5q-38 -49 -98 -76t-127 -27q-58 0 -112.5 14.5t-86.5 35.5l29 73q83 -45 180 -45q47 0 83.5 16t66 53t45.5 105.5t16 165.5v125h-4q-24 -64 -76 -98.5t-119 -34.5q-116 0 -197 130t-81 362q0 111 19.5 200t49.5 145
t70.5 94t79.5 53t78 15q40 0 71.5 -11.5t52.5 -33.5t32 -39t24 -41q3 -5 4 -8h4l4 117h84q-8 -212 -8 -303zM549 358v299q0 49 -6 72q-47 193 -178 193q-93 0 -147 -115t-54 -307q0 -209 58.5 -315.5t144.5 -106.5q129 0 174 184q8 37 8 96zM379 1165h-2q-29 0 -49.5 20
t-20.5 48q0 29 20.5 48t51.5 19q28 0 46.5 -19t18.5 -48q0 -28 -19 -48t-46 -20z" />
    <glyph glyph-name="Gcommaaccent" unicode="&#x122;" horiz-adv-x="845" 
d="M752 688v-653q-99 -47 -220 -47q-183 0 -301 133q-71 80 -114 219t-43 326q0 161 30 289.5t77.5 208.5t112 133.5t128.5 74.5t131 21q111 0 180 -37l-28 -78q-68 35 -160 35q-53 0 -103.5 -18.5t-101.5 -63.5t-89 -113t-61.5 -176.5t-23.5 -243.5q0 -140 20.5 -250.5
t55.5 -180.5t84 -116t101.5 -64.5t113.5 -18.5q88 0 123 20v524h-211v76h299zM422 -424l-29 49q59 16 99 51.5t40 90.5q0 70 -71 124l86 23q28 -20 47.5 -58t19.5 -81q0 -83 -56 -132.5t-136 -66.5z" />
    <glyph glyph-name="gcommaaccent" unicode="&#x123;" horiz-adv-x="755" 
d="M637 680v-543q0 -204 -19.5 -296.5t-64.5 -147.5q-38 -49 -98 -76t-127 -27q-58 0 -112.5 14.5t-86.5 35.5l29 73q83 -45 180 -45q47 0 83.5 16t66 53t45.5 105.5t16 165.5v125h-4q-24 -64 -76 -98.5t-119 -34.5q-116 0 -197 130t-81 362q0 111 19.5 200t49.5 145
t70.5 94t79.5 53t78 15q40 0 71.5 -11.5t52.5 -33.5t32 -39t24 -41q3 -5 4 -8h4l4 117h84q-8 -212 -8 -303zM549 358v299q0 49 -6 72q-47 193 -178 193q-93 0 -147 -115t-54 -307q0 -209 58.5 -315.5t144.5 -106.5q129 0 174 184q8 37 8 96zM481 1409l29 -49
q-59 -16 -99 -51t-40 -90q0 -71 71 -125l-86 -23q-28 20 -47.5 58t-19.5 81q0 83 56 132.5t136 66.5z" />
    <glyph glyph-name="Hcircumflex" unicode="&#x124;" horiz-adv-x="882" 
d="M127 1380h88v-616h453v616h88v-1380h-88v686h-453v-686h-88v1380zM406 1638h90l182 -184h-103l-122 117h-4l-123 -117h-103z" />
    <glyph glyph-name="hcircumflex" unicode="&#x125;" horiz-adv-x="761" 
d="M121 0v1417h88v-540h4q32 56 82 88q52 34 129 34q29 0 57 -8t58 -30t52 -56t36 -90t14 -127v-688h-88v657q0 267 -156 267q-68 0 -116 -51t-68 -146q-4 -25 -4 -74v-653h-88zM125 1655h90l182 -185h-102l-123 117h-4l-123 -117h-102z" />
    <glyph glyph-name="Hbar" unicode="&#x126;" horiz-adv-x="882" 
d="M858 1006h-102v-1006h-88v676h-453v-676h-88v1006h-102v69h102v305h88v-305h453v305h88v-305h102v-69zM668 754v252h-453v-252h453z" />
    <glyph glyph-name="hbar" unicode="&#x127;" horiz-adv-x="761" 
d="M641 0h-88v657q0 267 -156 267q-68 0 -116 -51t-68 -146q-4 -25 -4 -74v-653h-88v1126h-123v74h123v217h88v-217h274v-74h-274v-249h4q32 56 82 88q52 34 129 34q29 0 57 -8t58 -30t52 -56t36 -90t14 -127v-688z" />
    <glyph glyph-name="Itilde" unicode="&#x128;" horiz-adv-x="346" 
d="M127 1380h88v-1380h-88v1380zM33 1470h-62q0 71 30 117.5t83 46.5q9 0 18 -2t15 -3.5t16 -6.5t13.5 -6.5t14.5 -8.5t13 -8q4 -2 20.5 -12.5t22.5 -13t18 -6.5t23 -4q27 0 40.5 16.5t16.5 56.5h60q0 -68 -28 -110.5t-91 -42.5q-38 0 -94 37q-4 3 -15 9.5t-16.5 9.5
t-14 7.5t-16 6t-14.5 1.5q-26 0 -37 -19.5t-16 -64.5z" />
    <glyph glyph-name="itilde" unicode="&#x129;" horiz-adv-x="329" 
d="M209 0h-88v983h88v-983zM27 1153h-66q-2 72 29.5 118t85.5 46q9 0 18 -2t15 -3.5t16 -6.5t13.5 -6.5t14.5 -8.5t13 -8q6 -3 17.5 -10.5t17.5 -11t15 -7.5t17.5 -6t16.5 -2q26 0 39 17t16 57h64q0 -68 -29 -111t-92 -43q-38 0 -94 37q-4 3 -18.5 12t-21 12t-17 7t-19.5 4
q-24 0 -35 -20t-16 -64z" />
    <glyph glyph-name="Imacron" unicode="&#x12a;" horiz-adv-x="346" 
d="M127 1380h88v-1380h-88v1380zM-29 1581h408v-76h-408v76z" />
    <glyph glyph-name="imacron" unicode="&#x12b;" horiz-adv-x="329" 
d="M209 0h-88v983h88v-983zM-25 1262h383v-74h-383v74z" />
    <glyph glyph-name="Ibreve" unicode="&#x12c;" horiz-adv-x="346" 
d="M127 1380h88v-1380h-88v1380zM-33 1632h62q10 -42 47 -65t90 -23q120 0 141 88h62q0 -76 -56.5 -124t-144.5 -48q-90 0 -145.5 45.5t-55.5 126.5z" />
    <glyph glyph-name="ibreve" unicode="&#x12d;" horiz-adv-x="329" 
d="M209 0h-88v983h88v-983zM-35 1356h62q3 -59 41 -97t96 -38q62 0 101 37t40 98h62q3 -95 -52 -154t-149 -59q-99 0 -151.5 60.5t-49.5 152.5z" />
    <glyph glyph-name="Iogonek" unicode="&#x12e;" horiz-adv-x="346" 
d="M215 1380v-1380h-10q-36 -45 -69.5 -112t-33.5 -128q0 -48 26 -73t60 -25q58 0 93 21l16 -60q-52 -39 -129 -39q-67 0 -110.5 40.5t-43.5 111.5q0 107 113 264v1380h88z" />
    <glyph glyph-name="iogonek" unicode="&#x12f;" horiz-adv-x="329" 
d="M164 1159h-2q-28 0 -46 20.5t-18 55.5q0 34 18.5 55t47.5 21q33 0 50 -20.5t17 -55.5q0 -76 -67 -76zM209 983v-983h-10q-36 -45 -69.5 -112t-33.5 -128q0 -48 26 -73t60 -25q57 0 92 21l17 -60q-52 -39 -129 -39q-67 0 -110.5 40.5t-43.5 111.5q0 107 113 264v983h88z
" />
    <glyph glyph-name="Idotaccent" unicode="&#x130;" horiz-adv-x="346" 
d="M127 1380h88v-1380h-88v1380zM172 1503h-2q-29 0 -49.5 20t-20.5 48q0 29 20.5 48t51.5 19q28 0 47 -19t19 -48q0 -28 -19 -48t-47 -20z" />
    <glyph glyph-name="dotlessi" unicode="&#x131;" horiz-adv-x="329" 
d="M209 0h-88v983h88v-983z" />
    <glyph glyph-name="IJ" unicode="&#x132;" horiz-adv-x="847" 
d="M127 1380h88v-1380h-88v1380zM645 360v1020h88v-1024q0 -192 -67 -282t-215 -90q-51 0 -82 10l8 76q31 -7 67 -7q53 0 88 12.5t62 44.5t39 91t12 149z" />
    <glyph glyph-name="ij" unicode="&#x133;" horiz-adv-x="669" 
d="M209 0h-88v983h88v-983zM164 1159h-2q-28 0 -46 20.5t-18 55.5q0 34 18.5 55t47.5 21q33 0 50 -20.5t17 -55.5q0 -76 -67 -76zM305 -410l-20 72q100 31 135 90q27 47 38 120.5t11 225.5v885h88v-926q0 -150 -17 -230t-63 -138q-35 -42 -85.5 -69t-86.5 -30zM514 1159h-2
q-30 0 -48 20.5t-18 55.5q0 34 18.5 55t49.5 21q32 0 49 -20.5t17 -55.5q0 -36 -17 -56t-49 -20z" />
    <glyph glyph-name="Jcircumflex" unicode="&#x134;" horiz-adv-x="501" 
d="M299 360v1020h88v-1024q0 -192 -67.5 -282t-215.5 -90q-50 0 -81 10l8 76q31 -7 67 -7q53 0 88 12.5t62 44.5t39 91t12 149zM289 1638h90l182 -184h-102l-123 117h-4l-123 -117h-103z" />
    <glyph glyph-name="jcircumflex" unicode="&#x135;" horiz-adv-x="339" 
d="M-25 -410l-20 72q100 31 135 90q27 47 38 120.5t11 225.5v885h88v-926q0 -150 -17 -230t-63 -138q-35 -42 -85.5 -69t-86.5 -30zM147 1366h58l153 -270h-77l-103 186h-4l-102 -186h-78z" />
    <glyph glyph-name="Kcommaaccent" unicode="&#x136;" horiz-adv-x="759" 
d="M127 0v1380h88v-678h4q15 23 96 160l303 518h101l-357 -581l369 -799h-96l-332 723l-88 -143v-580h-88zM309 -403l-28 49q59 16 99 51t40 90q0 71 -72 125l86 22q28 -20 48 -58t20 -81q0 -83 -56 -131.5t-137 -66.5z" />
    <glyph glyph-name="kcommaaccent" unicode="&#x137;" horiz-adv-x="651" 
d="M207 1417v-907h4q7 10 55 94l238 379h96l-272 -414l303 -569h-101l-260 502l-63 -96v-406h-88v1417h88zM250 -424l-29 49q59 16 99 51.5t40 90.5q0 70 -71 124l86 23q28 -20 47.5 -58t19.5 -81q0 -83 -56 -132.5t-136 -66.5z" />
    <glyph glyph-name="kgreenlandic" unicode="&#x138;" horiz-adv-x="651" 
d="M207 983v-473h4q7 10 55 94l238 379h96l-272 -414l303 -569h-101l-260 502l-63 -96v-406h-88v983h88z" />
    <glyph glyph-name="Lacute" unicode="&#x139;" horiz-adv-x="659" 
d="M127 0v1380h88v-1304h410v-76h-498zM332 1669h133l-258 -215h-84z" />
    <glyph glyph-name="lacute" unicode="&#x13a;" horiz-adv-x="350" 
d="M121 0v1417h88v-1417h-88zM307 1686h133l-258 -216h-84z" />
    <glyph glyph-name="Lcommaaccent" unicode="&#x13b;" horiz-adv-x="659" 
d="M127 0v1380h88v-1304h410v-76h-498zM254 -424l-29 49q59 16 99.5 51.5t40.5 90.5q0 70 -72 124l86 23q28 -20 47.5 -58t19.5 -81q0 -83 -56 -132.5t-136 -66.5z" />
    <glyph glyph-name="lcommaaccent" unicode="&#x13c;" horiz-adv-x="350" 
d="M121 0v1417h88v-1417h-88zM82 -424l-29 49q59 16 99.5 51.5t40.5 90.5q0 70 -72 124l86 23q28 -20 47.5 -58t19.5 -81q0 -83 -56 -132.5t-136 -66.5z" />
    <glyph glyph-name="Lcaron" unicode="&#x13d;" horiz-adv-x="659" 
d="M127 0v1380h88v-1304h410v-76h-498zM365 1044l-29 50q59 16 99 51t40 90q0 71 -72 125l86 22q28 -20 48 -58t20 -81q0 -83 -56 -132.5t-136 -66.5z" />
    <glyph glyph-name="lcaron" unicode="&#x13e;" horiz-adv-x="350" 
d="M121 0v1417h88v-1417h-88zM354 1051l-49 28q57 91 57 187q0 87 -71 141l86 23q28 -20 47.5 -59t19.5 -87q0 -114 -90 -233z" />
    <glyph glyph-name="Ldot" unicode="&#x13f;" horiz-adv-x="659" 
d="M127 0v1380h88v-1304h410v-76h-498zM428 668h-2q-29 0 -49.5 19.5t-20.5 47.5q0 29 20.5 48.5t51.5 19.5q28 0 47 -19.5t19 -48.5q0 -28 -19 -47.5t-47 -19.5z" />
    <glyph glyph-name="ldot" unicode="&#x140;" horiz-adv-x="370" 
d="M121 0v1417h88v-1417h-88zM356 711h-2q-28 0 -46.5 19.5t-18.5 47.5q0 29 19 48.5t48 19.5q26 0 44 -19.5t18 -48.5q0 -28 -18 -47.5t-44 -19.5z" />
    <glyph glyph-name="Lslash" unicode="&#x141;" horiz-adv-x="679" 
d="M645 0h-498v551l-149 -156v92l149 158v735h89v-645l233 246v-96l-233 -244v-565h409v-76z" />
    <glyph glyph-name="lslash" unicode="&#x142;" horiz-adv-x="368" 
d="M229 0h-88v633l-135 -152v90l135 154v692h88v-594l142 160v-94l-142 -158v-731z" />
    <glyph glyph-name="Nacute" unicode="&#x143;" horiz-adv-x="888" 
d="M211 0h-84v1380h88l279 -712q141 -360 194 -529h4q-14 262 -14 631v610h84v-1380h-88l-295 750q-122 307 -178 501h-4q14 -213 14 -669v-582zM598 1669h133l-258 -215h-84z" />
    <glyph glyph-name="nacute" unicode="&#x144;" horiz-adv-x="761" 
d="M121 0v756q0 72 -4 144t-4 83h80l4 -121h4q29 62 85.5 99.5t131.5 37.5q42 0 79 -15.5t71 -49.5t53.5 -99.5t19.5 -154.5v-680h-88v645q0 58 -6.5 103t-23 87.5t-50 65.5t-82.5 23q-63 0 -113.5 -54t-64.5 -151q-4 -27 -4 -86v-633h-88zM498 1386h116l-219 -270h-65z" />
    <glyph glyph-name="Ncommaaccent" unicode="&#x145;" horiz-adv-x="888" 
d="M211 0h-84v1380h88l279 -712q141 -360 194 -529h4q-14 262 -14 631v610h84v-1380h-88l-295 750q-122 307 -178 501h-4q14 -213 14 -669v-582zM338 -424l-29 49q59 16 99.5 51.5t40.5 90.5q0 70 -72 124l86 23q28 -20 47.5 -58t19.5 -81q0 -83 -56 -132.5t-136 -66.5z" />
    <glyph glyph-name="ncommaaccent" unicode="&#x146;" horiz-adv-x="761" 
d="M121 0v756q0 72 -4 144t-4 83h80l4 -121h4q29 62 85.5 99.5t131.5 37.5q42 0 79 -15.5t71 -49.5t53.5 -99.5t19.5 -154.5v-680h-88v645q0 58 -6.5 103t-23 87.5t-50 65.5t-82.5 23q-63 0 -113.5 -54t-64.5 -151q-4 -27 -4 -86v-633h-88zM313 -408l-28 50q59 16 99 51
t40 90q0 71 -72 125l86 22q28 -20 48 -58t20 -81q0 -83 -56 -132t-137 -67z" />
    <glyph glyph-name="Ncaron" unicode="&#x147;" horiz-adv-x="888" 
d="M211 0h-84v1380h88l279 -712q141 -360 194 -529h4q-14 262 -14 631v610h84v-1380h-88l-295 750q-122 307 -178 501h-4q14 -213 14 -669v-582zM485 1454h-90l-182 184h102l123 -125h4l123 125h103z" />
    <glyph glyph-name="ncaron" unicode="&#x148;" horiz-adv-x="761" 
d="M121 0v756q0 72 -4 144t-4 83h80l4 -121h4q29 62 85.5 99.5t131.5 37.5q42 0 79 -15.5t71 -49.5t53.5 -99.5t19.5 -154.5v-680h-88v645q0 58 -6.5 103t-23 87.5t-50 65.5t-82.5 23q-63 0 -113.5 -54t-64.5 -151q-4 -27 -4 -86v-633h-88zM412 1116h-60l-153 270h77
l103 -186h4l104 186h78z" />
    <glyph glyph-name="napostrophe" unicode="&#x149;" horiz-adv-x="761" 
d="M121 0v756q0 72 -4 144t-4 83h80l4 -121h4q29 62 85.5 99.5t131.5 37.5q42 0 79 -15.5t71 -49.5t53.5 -99.5t19.5 -154.5v-680h-88v645q0 58 -6.5 103t-23 87.5t-50 65.5t-82.5 23q-63 0 -113.5 -54t-64.5 -151q-4 -27 -4 -86v-633h-88zM109 1090l-50 24q58 84 58 168
q0 80 -72 127l86 21q29 -19 48.5 -54t19.5 -78q0 -101 -90 -208z" />
    <glyph glyph-name="Eng" unicode="&#x14a;" horiz-adv-x="888" 
d="M211 0h-84v1380h88l279 -712q141 -360 194 -529h4q-14 262 -14 631v610h84v-1351q0 -161 -57.5 -257.5t-196.5 -131.5l-21 71q97 27 145 95t48 194l-301 750q-122 307 -178 501h-4q14 -213 14 -669v-582z" />
    <glyph glyph-name="eng" unicode="&#x14b;" horiz-adv-x="761" 
d="M121 0v756q0 72 -4 144t-4 83h80l4 -121h4q29 62 85.5 99.5t131.5 37.5q42 0 79 -15.5t71 -49.5t53.5 -99.5t19.5 -154.5v-625q0 -338 -248 -389l-16 78q87 21 131.5 96.5t44.5 227.5v577q0 58 -6.5 103t-23 87.5t-50 65.5t-82.5 23q-63 0 -113.5 -54t-64.5 -151
q-4 -27 -4 -86v-633h-88z" />
    <glyph glyph-name="Omacron" unicode="&#x14c;" horiz-adv-x="868" 
d="M426 -16h-2q-70 0 -130.5 39t-111 119.5t-79.5 221t-29 326.5q0 184 30 323.5t82.5 221.5t118.5 122t144 40q55 0 104 -23.5t94 -77t77.5 -133.5t51.5 -201t19 -272q0 -186 -29.5 -326t-81.5 -221t-116.5 -120t-141.5 -39zM434 63h2q52 0 94.5 27.5t71 76.5t49 109.5
t31 133.5t15.5 140.5t5 139.5q0 111 -12.5 212t-40.5 199t-83.5 157t-131.5 59q-62 0 -110 -40t-77.5 -102.5t-48 -148t-25.5 -167t-7 -169.5q0 -111 12.5 -212t40.5 -199t83.5 -157t131.5 -59zM236 1581h407v-76h-407v76z" />
    <glyph glyph-name="omacron" unicode="&#x14d;" horiz-adv-x="724" 
d="M358 -16h-2q-43 0 -83 17.5t-77 57.5t-64 97.5t-43.5 144t-16.5 191.5q0 131 24.5 231t67.5 159t95 88t112 29q54 0 103 -29t90 -87.5t65 -159.5t24 -231q0 -131 -24.5 -231.5t-67 -159t-94 -88t-109.5 -29.5zM362 61h3q59 0 100 43t60.5 114t27.5 137.5t8 136.5
q0 54 -4.5 106.5t-17.5 113.5t-34.5 105.5t-58.5 74.5t-86 30q-59 0 -100 -43t-60.5 -113.5t-27.5 -137t-8 -136.5q0 -55 4 -107t17.5 -113t34 -106t57.5 -75t85 -30zM172 1262h383v-74h-383v74z" />
    <glyph glyph-name="Obreve" unicode="&#x14e;" horiz-adv-x="868" 
d="M426 -16h-2q-70 0 -130.5 39t-111 119.5t-79.5 221t-29 326.5q0 184 30 323.5t82.5 221.5t118.5 122t144 40q55 0 104 -23.5t94 -77t77.5 -133.5t51.5 -201t19 -272q0 -186 -29.5 -326t-81.5 -221t-116.5 -120t-141.5 -39zM434 63h2q52 0 94.5 27.5t71 76.5t49 109.5
t31 133.5t15.5 140.5t5 139.5q0 111 -12.5 212t-40.5 199t-83.5 157t-131.5 59q-62 0 -110 -40t-77.5 -102.5t-48 -148t-25.5 -167t-7 -169.5q0 -111 12.5 -212t40.5 -199t83.5 -157t131.5 -59zM229 1632h62q10 -42 47 -65t90 -23q120 0 141 88h62q0 -76 -56.5 -124
t-144.5 -48q-90 0 -145.5 45.5t-55.5 126.5z" />
    <glyph glyph-name="obreve" unicode="&#x14f;" horiz-adv-x="724" 
d="M358 -16h-2q-43 0 -83 17.5t-77 57.5t-64 97.5t-43.5 144t-16.5 191.5q0 131 24.5 231t67.5 159t95 88t112 29q54 0 103 -29t90 -87.5t65 -159.5t24 -231q0 -131 -24.5 -231.5t-67 -159t-94 -88t-109.5 -29.5zM362 61h3q59 0 100 43t60.5 114t27.5 137.5t8 136.5
q0 54 -4.5 106.5t-17.5 113.5t-34.5 105.5t-58.5 74.5t-86 30q-59 0 -100 -43t-60.5 -113.5t-27.5 -137t-8 -136.5q0 -55 4 -107t17.5 -113t34 -106t57.5 -75t85 -30zM158 1356h61q3 -59 41 -97t96 -38q62 0 101.5 37t40.5 98h61q3 -95 -52 -154t-149 -59q-99 0 -151 60.5
t-49 152.5z" />
    <glyph glyph-name="Ohungarumlaut" unicode="&#x150;" horiz-adv-x="868" 
d="M426 -16h-2q-70 0 -130.5 39t-111 119.5t-79.5 221t-29 326.5q0 184 30 323.5t82.5 221.5t118.5 122t144 40q55 0 104 -23.5t94 -77t77.5 -133.5t51.5 -201t19 -272q0 -186 -29.5 -326t-81.5 -221t-116.5 -120t-141.5 -39zM434 63h2q52 0 94.5 27.5t71 76.5t49 109.5
t31 133.5t15.5 140.5t5 139.5q0 111 -12.5 212t-40.5 199t-83.5 157t-131.5 59q-62 0 -110 -40t-77.5 -102.5t-48 -148t-25.5 -167t-7 -169.5q0 -111 12.5 -212t40.5 -199t83.5 -157t131.5 -59zM430 1669h131l-213 -188h-86zM666 1669h131l-213 -188h-86z" />
    <glyph glyph-name="ohungarumlaut" unicode="&#x151;" horiz-adv-x="724" 
d="M358 -16h-2q-43 0 -83 17.5t-77 57.5t-64 97.5t-43.5 144t-16.5 191.5q0 131 24.5 231t67.5 159t95 88t112 29q54 0 103 -29t90 -87.5t65 -159.5t24 -231q0 -131 -24.5 -231.5t-67 -159t-94 -88t-109.5 -29.5zM362 61h3q59 0 100 43t60.5 114t27.5 137.5t8 136.5
q0 54 -4.5 106.5t-17.5 113.5t-34.5 105.5t-58.5 74.5t-86 30q-59 0 -100 -43t-60.5 -113.5t-27.5 -137t-8 -136.5q0 -55 4 -107t17.5 -113t34 -106t57.5 -75t85 -30zM365 1386h110l-217 -270h-61zM600 1386h111l-217 -270h-62z" />
    <glyph glyph-name="OE" unicode="&#x152;" horiz-adv-x="1198" 
d="M1157 78v-78h-485q-12 -2 -37 -5t-37 -5q-40 -6 -72 -6q-96 0 -173 36.5t-128.5 99.5t-86 152t-49.5 189.5t-15 216.5q0 159 28.5 285t75 206t109.5 132.5t127 74t133 21.5q37 0 71 -6q5 -1 31.5 -5t38.5 -6h442v-77h-391v-539h365v-78h-365v-608h418zM651 80v1212
q-45 25 -127 25q-48 0 -95 -18.5t-95.5 -65t-85 -115.5t-59.5 -180.5t-23 -249.5q0 -143 21.5 -254t57 -180t84.5 -113t100 -61t108 -17q76 0 114 17z" />
    <glyph glyph-name="oe" unicode="&#x153;" horiz-adv-x="1175" 
d="M1116 528h-448q0 -138 17.5 -233t52 -144.5t74.5 -69.5t95 -20q61 0 160 43l23 -67q-78 -53 -211 -53q-86 0 -158 61.5t-96 169.5h-4q-25 -115 -92.5 -173t-155.5 -58q-61 0 -114 30t-95.5 89.5t-67 159.5t-24.5 229q0 249 87.5 378t217.5 129q86 0 156 -57.5t92 -165.5
h4q28 103 92 163t151 60q67 0 117 -39.5t76 -103.5t38.5 -132t12.5 -138v-58zM377 922h-2q-52 0 -91.5 -30.5t-61.5 -75.5t-36 -106.5t-18 -113t-4 -104.5q0 -44 3 -86t11 -93.5t24 -94t38.5 -79.5t58 -57.5t80.5 -20.5q63 0 107 41.5t65 111.5t29 136.5t8 141.5
q0 58 -4.5 111.5t-18 113.5t-36 103.5t-61.5 72.5t-91 29zM670 604h352q5 160 -47 239t-115 79q-82 0 -133 -93.5t-57 -224.5z" />
    <glyph glyph-name="Racute" unicode="&#x154;" horiz-adv-x="759" 
d="M127 0v1360q72 26 186 26q182 0 275 -96q90 -96 90 -258q0 -139 -58.5 -225.5t-168.5 -136.5v-4q79 -20 125 -99.5t71 -232.5q43 -258 74 -334h-88q-26 55 -76 348q-27 153 -86.5 219t-179.5 66h-76v-633h-88zM215 1303v-601h78q129 0 211 85.5t82 228.5
q0 144 -65.5 219.5t-211.5 75.5q-61 0 -94 -8zM494 1669h133l-258 -215h-84z" />
    <glyph glyph-name="racute" unicode="&#x155;" horiz-adv-x="448" 
d="M119 0v756q0 44 -4 134.5t-4 92.5h84l4 -160h4q20 69 80 122.5t133 53.5h18v-96h-16q-90 0 -146 -74t-63 -172q-2 -29 -2 -84v-573h-88zM373 1386h116l-219 -270h-65z" />
    <glyph glyph-name="Rcommaaccent" unicode="&#x156;" horiz-adv-x="759" 
d="M127 0v1360q72 26 186 26q182 0 275 -96q90 -96 90 -258q0 -139 -58.5 -225.5t-168.5 -136.5v-4q79 -20 125 -99.5t71 -232.5q43 -258 74 -334h-88q-26 55 -76 348q-27 153 -86.5 219t-179.5 66h-76v-633h-88zM215 1303v-601h78q129 0 211 85.5t82 228.5
q0 144 -65.5 219.5t-211.5 75.5q-61 0 -94 -8zM305 -403l-29 49q59 16 99.5 51t40.5 90q0 71 -72 125l86 22q28 -20 48 -58t20 -81q0 -83 -56 -131.5t-137 -66.5z" />
    <glyph glyph-name="rcommaaccent" unicode="&#x157;" horiz-adv-x="448" 
d="M119 0v756q0 44 -4 134.5t-4 92.5h84l4 -160h4q20 69 80 122.5t133 53.5h18v-96h-16q-90 0 -146 -74t-63 -172q-2 -29 -2 -84v-573h-88zM94 -424l-28 49q59 16 99 51.5t40 90.5q0 70 -72 124l86 23q28 -20 48 -58t20 -81q0 -83 -56 -132t-137 -67z" />
    <glyph glyph-name="Rcaron" unicode="&#x158;" horiz-adv-x="759" 
d="M127 0v1360q72 26 186 26q182 0 275 -96q90 -96 90 -258q0 -139 -58.5 -225.5t-168.5 -136.5v-4q79 -20 125 -99.5t71 -232.5q43 -258 74 -334h-88q-26 55 -76 348q-27 153 -86.5 219t-179.5 66h-76v-633h-88zM215 1303v-601h78q129 0 211 85.5t82 228.5
q0 144 -65.5 219.5t-211.5 75.5q-61 0 -94 -8zM401 1454h-90l-182 184h102l123 -125h4l123 125h103z" />
    <glyph glyph-name="rcaron" unicode="&#x159;" horiz-adv-x="448" 
d="M119 0v756q0 44 -4 134.5t-4 92.5h84l4 -160h4q20 69 80 122.5t133 53.5h18v-96h-16q-90 0 -146 -74t-63 -172q-2 -29 -2 -84v-573h-88zM276 1116h-59l-154 270h78l103 -186h4l104 186h78z" />
    <glyph glyph-name="Sacute" unicode="&#x15a;" horiz-adv-x="696" 
d="M63 51l31 74q33 -23 84 -40t96 -17q117 0 186.5 77t69.5 205q0 100 -48 176t-136 150q-8 7 -39 31t-55 44t-57 55.5t-55 70t-38 82.5t-16 98q0 148 93.5 242t228.5 94q56 0 104.5 -16t73.5 -36l-35 -75q-62 47 -158 47q-103 0 -160 -70.5t-57 -161.5q0 -47 10.5 -86.5
t24.5 -67.5t43 -58t52 -49t64 -51q11 -8 17 -13q120 -95 177 -189.5t57 -210.5q0 -167 -99.5 -267.5t-245.5 -100.5q-61 0 -123 19.5t-90 43.5zM477 1669h133l-258 -215h-84z" />
    <glyph glyph-name="sacute" unicode="&#x15b;" horiz-adv-x="548" 
d="M49 45l33 72q73 -51 147 -51q77 0 123.5 48.5t46.5 129.5q0 70 -28.5 122t-104.5 107q-48 34 -78 59.5t-60.5 60.5t-45 74t-14.5 85q0 109 71 178t168 69q90 0 160 -53l-39 -72q-61 48 -127 48q-67 0 -106 -45.5t-39 -106.5t26.5 -102.5t100.5 -96.5q38 -28 58.5 -43.5
t53.5 -47.5t50 -59.5t30.5 -68t13.5 -84.5q0 -93 -38.5 -158t-96.5 -93.5t-129 -28.5q-109 0 -176 57zM391 1386h117l-219 -270h-66z" />
    <glyph glyph-name="Scircumflex" unicode="&#x15c;" horiz-adv-x="696" 
d="M63 51l31 74q33 -23 84 -40t96 -17q117 0 186.5 77t69.5 205q0 100 -48 176t-136 150q-8 7 -39 31t-55 44t-57 55.5t-55 70t-38 82.5t-16 98q0 148 93.5 242t228.5 94q56 0 104.5 -16t73.5 -36l-35 -75q-62 47 -158 47q-103 0 -160 -70.5t-57 -161.5q0 -47 10.5 -86.5
t24.5 -67.5t43 -58t52 -49t64 -51q11 -8 17 -13q120 -95 177 -189.5t57 -210.5q0 -167 -99.5 -267.5t-245.5 -100.5q-61 0 -123 19.5t-90 43.5zM319 1638h91l182 -184h-103l-122 117h-5l-122 -117h-103z" />
    <glyph glyph-name="scircumflex" unicode="&#x15d;" horiz-adv-x="548" 
d="M49 45l33 72q73 -51 147 -51q77 0 123.5 48.5t46.5 129.5q0 70 -28.5 122t-104.5 107q-48 34 -78 59.5t-60.5 60.5t-45 74t-14.5 85q0 109 71 178t168 69q90 0 160 -53l-39 -72q-61 48 -127 48q-67 0 -106 -45.5t-39 -106.5t26.5 -102.5t100.5 -96.5q38 -28 58.5 -43.5
t53.5 -47.5t50 -59.5t30.5 -68t13.5 -84.5q0 -93 -38.5 -158t-96.5 -93.5t-129 -28.5q-109 0 -176 57zM246 1386h57l154 -270h-78l-103 187h-4l-102 -187h-78z" />
    <glyph glyph-name="Scedilla" unicode="&#x15e;" horiz-adv-x="696" 
d="M63 51l31 74q33 -23 84 -40t96 -17q117 0 186.5 77t69.5 205q0 100 -48 176t-136 150q-8 7 -39 31t-55 44t-57 55.5t-55 70t-38 82.5t-16 98q0 148 93.5 242t228.5 94q56 0 104.5 -16t73.5 -36l-35 -75q-62 47 -158 47q-103 0 -160 -70.5t-57 -161.5q0 -47 10.5 -86.5
t24.5 -67.5t43 -58t52 -49t64 -51q11 -8 17 -13q120 -95 177 -189.5t57 -210.5q0 -137 -68 -230.5t-178 -123.5l-60 -113q53 -6 92 -46t39 -97q0 -74 -49 -113t-112 -39q-66 0 -125 39l28 66q48 -31 99 -31q34 0 57 16.5t23 53.5q0 81 -142 98l72 152h-21q-61 0 -123 19.5
t-90 43.5z" />
    <glyph glyph-name="Scedilla" unicode="&#xf6c1;" horiz-adv-x="696" 
d="M63 51l31 74q33 -23 84 -40t96 -17q117 0 186.5 77t69.5 205q0 100 -48 176t-136 150q-8 7 -39 31t-55 44t-57 55.5t-55 70t-38 82.5t-16 98q0 148 93.5 242t228.5 94q56 0 104.5 -16t73.5 -36l-35 -75q-62 47 -158 47q-103 0 -160 -70.5t-57 -161.5q0 -47 10.5 -86.5
t24.5 -67.5t43 -58t52 -49t64 -51q11 -8 17 -13q120 -95 177 -189.5t57 -210.5q0 -137 -68 -230.5t-178 -123.5l-60 -113q53 -6 92 -46t39 -97q0 -74 -49 -113t-112 -39q-66 0 -125 39l28 66q48 -31 99 -31q34 0 57 16.5t23 53.5q0 81 -142 98l72 152h-21q-61 0 -123 19.5
t-90 43.5z" />
    <glyph glyph-name="scedilla" unicode="&#x15f;" horiz-adv-x="548" 
d="M49 45l33 72q73 -51 147 -51q77 0 123.5 48.5t46.5 129.5q0 70 -28.5 122t-104.5 107q-48 34 -78 59.5t-60.5 60.5t-45 74t-14.5 85q0 109 71 178t168 69q90 0 160 -53l-39 -72q-61 48 -127 48q-67 0 -106 -45.5t-39 -106.5t26.5 -102.5t100.5 -96.5q38 -28 58.5 -43.5
t53.5 -47.5t50 -59.5t30.5 -68t13.5 -84.5q0 -108 -49.5 -175.5t-128.5 -92.5l-57 -111q53 -6 92 -46t39 -97q0 -74 -49.5 -113t-112.5 -39q-66 0 -125 39l29 66q48 -31 98 -31q80 0 80 68q0 84 -141 100l72 152h-11q-109 0 -176 57z" />
    <glyph glyph-name="scedilla" unicode="&#xf6c2;" horiz-adv-x="548" 
d="M49 45l33 72q73 -51 147 -51q77 0 123.5 48.5t46.5 129.5q0 70 -28.5 122t-104.5 107q-48 34 -78 59.5t-60.5 60.5t-45 74t-14.5 85q0 109 71 178t168 69q90 0 160 -53l-39 -72q-61 48 -127 48q-67 0 -106 -45.5t-39 -106.5t26.5 -102.5t100.5 -96.5q38 -28 58.5 -43.5
t53.5 -47.5t50 -59.5t30.5 -68t13.5 -84.5q0 -108 -49.5 -175.5t-128.5 -92.5l-57 -111q53 -6 92 -46t39 -97q0 -74 -49.5 -113t-112.5 -39q-66 0 -125 39l29 66q48 -31 98 -31q80 0 80 68q0 84 -141 100l72 152h-11q-109 0 -176 57z" />
    <glyph glyph-name="Scaron" unicode="&#x160;" horiz-adv-x="696" 
d="M63 51l31 74q33 -23 84 -40t96 -17q117 0 186.5 77t69.5 205q0 100 -48 176t-136 150q-8 7 -39 31t-55 44t-57 55.5t-55 70t-38 82.5t-16 98q0 148 93.5 242t228.5 94q56 0 104.5 -16t73.5 -36l-35 -75q-62 47 -158 47q-103 0 -160 -70.5t-57 -161.5q0 -47 10.5 -86.5
t24.5 -67.5t43 -58t52 -49t64 -51q11 -8 17 -13q120 -95 177 -189.5t57 -210.5q0 -167 -99.5 -267.5t-245.5 -100.5q-61 0 -123 19.5t-90 43.5zM430 1454h-90l-182 184h102l123 -125h4l123 125h102z" />
    <glyph glyph-name="scaron" unicode="&#x161;" horiz-adv-x="548" 
d="M49 45l33 72q73 -51 147 -51q77 0 123.5 48.5t46.5 129.5q0 70 -28.5 122t-104.5 107q-48 34 -78 59.5t-60.5 60.5t-45 74t-14.5 85q0 109 71 178t168 69q90 0 160 -53l-39 -72q-61 48 -127 48q-67 0 -106 -45.5t-39 -106.5t26.5 -102.5t100.5 -96.5q38 -28 58.5 -43.5
t53.5 -47.5t50 -59.5t30.5 -68t13.5 -84.5q0 -93 -38.5 -158t-96.5 -93.5t-129 -28.5q-109 0 -176 57zM311 1116h-59l-154 270h78l103 -186h4l104 186h78z" />
    <glyph glyph-name="Tcommaaccent" unicode="&#x162;" horiz-adv-x="675" 
d="M295 0v1305h-258v75h604v-75h-258v-1305h-88zM242 -424l-29 49q59 16 99 51.5t40 90.5q0 70 -71 124l86 23q28 -20 47.5 -58t19.5 -81q0 -83 -56 -132.5t-136 -66.5z" />
    <glyph glyph-name="Tcommaaccent" unicode="&#x21a;" horiz-adv-x="675" 
d="M295 0v1305h-258v75h604v-75h-258v-1305h-88zM242 -424l-29 49q59 16 99 51.5t40 90.5q0 70 -71 124l86 23q28 -20 47.5 -58t19.5 -81q0 -83 -56 -132.5t-136 -66.5z" />
    <glyph glyph-name="tcommaaccent" unicode="&#x163;" horiz-adv-x="450" 
d="M150 1147l88 51v-215h186v-76h-186v-669q0 -175 104 -175q34 0 59 7l11 -68q-32 -14 -88 -14q-88 0 -131 57q-23 31 -33 81.5t-10 143.5v637h-123v76h123v164zM162 -424l-29 49q59 16 99 51.5t40 90.5q0 70 -71 124l86 23q28 -20 47.5 -58t19.5 -81q0 -83 -56 -132.5
t-136 -66.5z" />
    <glyph glyph-name="tcommaaccent" unicode="&#x21b;" horiz-adv-x="450" 
d="M150 1147l88 51v-215h186v-76h-186v-669q0 -175 104 -175q34 0 59 7l11 -68q-32 -14 -88 -14q-88 0 -131 57q-23 31 -33 81.5t-10 143.5v637h-123v76h123v164zM162 -424l-29 49q59 16 99 51.5t40 90.5q0 70 -71 124l86 23q28 -20 47.5 -58t19.5 -81q0 -83 -56 -132.5
t-136 -66.5z" />
    <glyph glyph-name="Tcaron" unicode="&#x164;" horiz-adv-x="675" 
d="M295 0v1305h-258v75h604v-75h-258v-1305h-88zM379 1454h-90l-183 184h103l123 -125h4l123 125h102z" />
    <glyph glyph-name="tcaron" unicode="&#x165;" horiz-adv-x="471" 
d="M150 1147l88 51v-215h186v-76h-186v-669q0 -175 104 -175q34 0 59 7l11 -68q-32 -14 -88 -14q-88 0 -131 57q-23 31 -33 81.5t-10 143.5v637h-123v76h123v164zM467 1090l-49 24q57 82 57 168q0 80 -72 127l86 21q29 -19 48.5 -54t19.5 -78q0 -101 -90 -208z" />
    <glyph glyph-name="Tbar" unicode="&#x166;" horiz-adv-x="675" 
d="M641 1305h-258v-541h176v-74h-176v-690h-88v690h-176v74h176v541h-258v75h604v-75z" />
    <glyph glyph-name="tbar" unicode="&#x167;" horiz-adv-x="450" 
d="M424 907h-186v-295h147v-73h-147v-301q0 -175 104 -175q34 0 59 7l11 -68q-32 -14 -88 -14q-88 0 -131 57q-23 31 -33 81.5t-10 143.5v269h-111v73h111v295h-123v76h123v164l88 51v-215h186v-76z" />
    <glyph glyph-name="Utilde" unicode="&#x168;" horiz-adv-x="882" 
d="M127 1380h88v-942q0 -197 60.5 -286t162.5 -89q110 0 170 91.5t60 283.5v942h88v-931q0 -130 -26.5 -224t-73 -144.5t-101.5 -73.5t-121 -23q-63 0 -115 21t-97 68.5t-70 135.5t-25 211v960zM301 1470h-61q0 71 29.5 117.5t82.5 46.5q9 0 18 -2t15 -3.5t16 -6.5
t13.5 -6.5t14.5 -8.5t13 -8q4 -2 20.5 -12.5t22.5 -13t18 -6.5t23 -4q27 0 41 16.5t17 56.5h59q0 -68 -28 -110.5t-91 -42.5q-39 0 -94 37q-4 3 -15 9.5t-16.5 9.5t-14 7.5t-16 6t-14.5 1.5q-26 0 -37 -19.5t-16 -64.5z" />
    <glyph glyph-name="utilde" unicode="&#x169;" horiz-adv-x="745" 
d="M629 983v-735q0 -49 1.5 -95t3.5 -90.5t3 -62.5h-80l-8 102h-4q-21 -40 -75 -79t-126 -39q-118 0 -171.5 91.5t-53.5 270.5v637h88v-618q0 -70 6 -120.5t22 -95t47 -67.5t78 -23q43 0 78 19t55 47.5t30.5 55.5t13.5 50q4 31 4 91v661h88zM233 1153h-65q-2 72 29.5 118
t85.5 46q9 0 18 -2t15 -3.5t16 -6.5t13.5 -6.5t14.5 -8.5t13 -8q6 -3 17.5 -10.5t17.5 -11t15 -7.5t17.5 -6t16.5 -2q26 0 39 17t16 57h63q0 -68 -28.5 -111t-91.5 -43q-39 0 -95 37q-5 3 -18.5 11.5t-20 12.5t-17 7.5t-19.5 3.5q-24 0 -35.5 -20.5t-16.5 -63.5z" />
    <glyph glyph-name="Umacron" unicode="&#x16a;" horiz-adv-x="882" 
d="M127 1380h88v-942q0 -197 60.5 -286t162.5 -89q110 0 170 91.5t60 283.5v942h88v-931q0 -130 -26.5 -224t-73 -144.5t-101.5 -73.5t-121 -23q-63 0 -115 21t-97 68.5t-70 135.5t-25 211v960zM236 1581h407v-76h-407v76z" />
    <glyph glyph-name="umacron" unicode="&#x16b;" horiz-adv-x="745" 
d="M629 983v-735q0 -49 1.5 -95t3.5 -90.5t3 -62.5h-80l-8 102h-4q-21 -40 -75 -79t-126 -39q-118 0 -171.5 91.5t-53.5 270.5v637h88v-618q0 -70 6 -120.5t22 -95t47 -67.5t78 -23q43 0 78 19t55 47.5t30.5 55.5t13.5 50q4 31 4 91v661h88zM178 1262h383v-74h-383v74z" />
    <glyph glyph-name="Ubreve" unicode="&#x16c;" horiz-adv-x="882" 
d="M127 1380h88v-942q0 -197 60.5 -286t162.5 -89q110 0 170 91.5t60 283.5v942h88v-931q0 -130 -26.5 -224t-73 -144.5t-101.5 -73.5t-121 -23q-63 0 -115 21t-97 68.5t-70 135.5t-25 211v960zM242 1632h61q10 -42 47 -65t90 -23q121 0 142 88h61q0 -76 -56.5 -124
t-144.5 -48q-90 0 -145 45.5t-55 126.5z" />
    <glyph glyph-name="ubreve" unicode="&#x16d;" horiz-adv-x="745" 
d="M629 983v-735q0 -49 1.5 -95t3.5 -90.5t3 -62.5h-80l-8 102h-4q-21 -40 -75 -79t-126 -39q-118 0 -171.5 91.5t-53.5 270.5v637h88v-618q0 -70 6 -120.5t22 -95t47 -67.5t78 -23q43 0 78 19t55 47.5t30.5 55.5t13.5 50q4 31 4 91v661h88zM172 1356h61q3 -59 41.5 -97
t96.5 -38q62 0 101 37t40 98h61q3 -95 -51.5 -154t-148.5 -59q-99 0 -151.5 60.5t-49.5 152.5z" />
    <glyph glyph-name="Uring" unicode="&#x16e;" horiz-adv-x="882" 
d="M127 1380h88v-942q0 -197 60.5 -286t162.5 -89q110 0 170 91.5t60 283.5v942h88v-931q0 -130 -26.5 -224t-73 -144.5t-101.5 -73.5t-121 -23q-63 0 -115 21t-97 68.5t-70 135.5t-25 211v960zM442 1747h2q73 0 123.5 -51t50.5 -125q0 -71 -52.5 -120.5t-123.5 -49.5
q-75 0 -126.5 49.5t-51.5 120.5q0 73 51 124.5t127 51.5zM440 1688h-2q-44 0 -72 -34.5t-28 -82.5q0 -42 29.5 -75.5t72.5 -33.5q45 0 75 33t30 80t-30 80t-75 33z" />
    <glyph glyph-name="uring" unicode="&#x16f;" horiz-adv-x="745" 
d="M629 983v-735q0 -49 1.5 -95t3.5 -90.5t3 -62.5h-80l-8 102h-4q-21 -40 -75 -79t-126 -39q-118 0 -171.5 91.5t-53.5 270.5v637h88v-618q0 -70 6 -120.5t22 -95t47 -67.5t78 -23q43 0 78 19t55 47.5t30.5 55.5t13.5 50q4 31 4 91v661h88zM375 1430h2q73 0 123.5 -51.5
t50.5 -125.5q0 -71 -52.5 -120.5t-123.5 -49.5q-75 0 -126.5 49.5t-51.5 120.5q0 74 50 125.5t128 51.5zM375 1368h-2q-44 0 -72.5 -34t-28.5 -81q0 -44 30 -76t73 -32q46 0 75 31.5t29 80.5q0 46 -29.5 78.5t-74.5 32.5z" />
    <glyph glyph-name="Uhungarumlaut" unicode="&#x170;" horiz-adv-x="882" 
d="M127 1380h88v-942q0 -197 60.5 -286t162.5 -89q110 0 170 91.5t60 283.5v942h88v-931q0 -130 -26.5 -224t-73 -144.5t-101.5 -73.5t-121 -23q-63 0 -115 21t-97 68.5t-70 135.5t-25 211v960zM418 1669h131l-213 -188h-86zM653 1669h131l-213 -188h-86z" />
    <glyph glyph-name="uhungarumlaut" unicode="&#x171;" horiz-adv-x="745" 
d="M629 983v-735q0 -49 1.5 -95t3.5 -90.5t3 -62.5h-80l-8 102h-4q-21 -40 -75 -79t-126 -39q-118 0 -171.5 91.5t-53.5 270.5v637h88v-618q0 -70 6 -120.5t22 -95t47 -67.5t78 -23q43 0 78 19t55 47.5t30.5 55.5t13.5 50q4 31 4 91v661h88zM379 1386h110l-217 -270h-61z
M614 1386h111l-217 -270h-62z" />
    <glyph glyph-name="Uogonek" unicode="&#x172;" horiz-adv-x="882" 
d="M625 -276l16 -60q-50 -41 -129 -41q-67 0 -110.5 39.5t-43.5 106.5q0 51 30.5 110.5t76.5 106.5q-5 0 -15.5 -1t-15.5 -1q-63 0 -115 21t-97 68.5t-70 135.5t-25 211v960h88v-942q0 -197 60.5 -286t162.5 -89q110 0 170 91.5t60 283.5v942h88v-931q0 -313 -150 -416
q-67 -46 -113.5 -115.5t-46.5 -130.5q0 -46 25 -68t61 -22q44 0 93 27z" />
    <glyph glyph-name="uogonek" unicode="&#x173;" horiz-adv-x="745" 
d="M629 983v-735q0 -170 16 -248h-10q-36 -45 -69.5 -112t-33.5 -128q0 -48 26 -73t60 -25q58 0 93 21l16 -60q-52 -39 -129 -39q-67 0 -110.5 40.5t-43.5 111.5q0 107 113 264l-8 102h-4q-21 -40 -75 -79t-126 -39q-118 0 -171.5 91.5t-53.5 270.5v637h88v-618
q0 -70 6 -120.5t22 -95t47 -67.5t78 -23q43 0 78 19t55 47.5t30.5 55.5t13.5 50q4 31 4 91v661h88z" />
    <glyph glyph-name="Wcircumflex" unicode="&#x174;" horiz-adv-x="1306" 
d="M410 0h-76l-283 1380h90l148 -737q59 -292 82 -506h8q4 43 10 89.5t10.5 78t15 88t14.5 77t18.5 91t17.5 86.5l145 733h82l150 -714q72 -343 90 -529h6q31 239 86 518l143 725h88l-284 -1380h-78l-164 807q-58 297 -76 453h-4q-22 -203 -76 -461zM608 1638h90l183 -184
h-103l-123 117h-4l-123 -117h-102z" />
    <glyph glyph-name="wcircumflex" unicode="&#x175;" horiz-adv-x="1095" 
d="M37 983h88l121 -516q49 -205 65 -324h8q22 149 68 320l129 520h70l123 -504q45 -182 71 -336h8q12 93 66 328l115 512h90l-244 -983h-67l-140 561q-27 99 -57 289h-4q-21 -136 -60 -297l-137 -553h-74zM520 1386h58l153 -270h-78l-102 187h-4l-103 -187h-77z" />
    <glyph glyph-name="Ycircumflex" unicode="&#x176;" horiz-adv-x="796" 
d="M444 0h-88v618l-305 762h94l140 -356q89 -229 121 -324h4q26 81 122 330l140 350h94l-322 -757v-623zM367 1638h90l182 -184h-102l-123 117h-4l-123 -117h-103z" />
    <glyph glyph-name="ycircumflex" unicode="&#x177;" horiz-adv-x="651" 
d="M37 983h90l152 -598q13 -50 28 -126.5t21 -100.5h4q6 31 25 109.5t28 117.5l139 598h90l-135 -551q-32 -133 -54.5 -215t-55 -186t-70 -181.5t-80.5 -136.5q-74 -102 -147 -145l-45 74q77 51 145 149q63 93 92 197q10 36 10 53q0 25 -4 37zM297 1386h57l154 -270h-78
l-102 187h-4l-103 -187h-78z" />
    <glyph glyph-name="Ydieresis" unicode="&#x178;" horiz-adv-x="796" 
d="M444 0h-88v618l-305 762h94l140 -356q89 -229 121 -324h4q26 81 122 330l140 350h94l-322 -757v-623zM264 1477h-2q-30 0 -47.5 19t-17.5 54q0 33 18.5 53.5t48.5 20.5q33 0 50.5 -20.5t17.5 -53.5q0 -73 -68 -73zM567 1477h-2q-30 0 -47.5 19t-17.5 54q0 33 18.5 53.5
t48.5 20.5q33 0 50.5 -20.5t17.5 -53.5q0 -73 -68 -73z" />
    <glyph glyph-name="Zacute" unicode="&#x179;" horiz-adv-x="696" 
d="M51 0v55l496 1245v5h-457v75h557v-51l-495 -1247v-6h493v-76h-594zM496 1669h133l-258 -215h-84z" />
    <glyph glyph-name="zacute" unicode="&#x17a;" horiz-adv-x="593" 
d="M31 0v53l354 715q11 23 35 68t35 67v4h-381v76h485v-55l-354 -711q-70 -136 -70 -137v-4h416v-76h-520zM430 1386h117l-219 -270h-66z" />
    <glyph glyph-name="Zdotaccent" unicode="&#x17b;" horiz-adv-x="696" 
d="M51 0v55l496 1245v5h-457v75h557v-51l-495 -1247v-6h493v-76h-594zM381 1487h-2q-29 0 -49.5 19.5t-20.5 47.5q0 29 20.5 48.5t51.5 19.5q28 0 46.5 -19.5t18.5 -48.5q0 -28 -18.5 -47.5t-46.5 -19.5z" />
    <glyph glyph-name="zdotaccent" unicode="&#x17c;" horiz-adv-x="593" 
d="M31 0v53l354 715q11 23 35 68t35 67v4h-381v76h485v-55l-354 -711q-70 -136 -70 -137v-4h416v-76h-520zM311 1165h-2q-29 0 -49 20t-20 48q0 29 20 48t51 19q28 0 47 -19t19 -48q0 -28 -19 -48t-47 -20z" />
    <glyph glyph-name="Zcaron" unicode="&#x17d;" horiz-adv-x="696" 
d="M51 0v55l496 1245v5h-457v75h557v-51l-495 -1247v-6h493v-76h-594zM414 1454h-90l-183 184h103l123 -125h4l123 125h102z" />
    <glyph glyph-name="zcaron" unicode="&#x17e;" horiz-adv-x="593" 
d="M31 0v53l354 715q11 23 35 68t35 67v4h-381v76h485v-55l-354 -711q-70 -136 -70 -137v-4h416v-76h-520zM342 1116h-59l-154 270h78l102 -186h4l105 186h78z" />
    <glyph glyph-name="florin" unicode="&#x192;" 
d="M162 764v72h178l16 122q7 45 13 77.5t17.5 76.5t25 74t34.5 63t47 53t62.5 33t79.5 13q61 0 104 -25l-20 -68q-44 17 -94 17q-43 0 -75 -23t-52 -66.5t-32 -90.5t-20 -109l-20 -147h186v-72h-194l-72 -526q-28 -208 -87 -305t-185 -97q-75 3 -121 37l27 66
q48 -27 102 -27q78 0 119.5 84.5t68.5 290.5l62 477h-170z" />
    <glyph glyph-name="AEacute" unicode="&#x1fc;" horiz-adv-x="1089" 
d="M123 0h-88l418 1380h540l-2 -77h-389l29 -539h362v-78h-356l35 -608h387l-2 -78h-467l-31 502h-287zM295 578h260l-20 469q-3 67 -13 270h-12q-36 -114 -80 -275zM805 1669h133l-258 -215h-84z" />
    <glyph glyph-name="aeacute" unicode="&#x1fd;" horiz-adv-x="1056" 
d="M997 528h-448q0 -137 17.5 -231.5t51.5 -144.5t75 -70.5t95 -20.5q88 0 158 45l23 -67q-75 -55 -203 -55q-84 0 -154.5 53.5t-91.5 146.5h-4q-22 -91 -83.5 -145.5t-147.5 -54.5q-96 0 -160 73.5t-64 196.5q0 168 113.5 258t294.5 90v70q0 115 -41.5 182.5t-130.5 67.5
q-74 0 -145 -50l-27 66q31 24 83.5 42.5t106.5 18.5q77 0 136 -46.5t73 -143.5h4q28 87 89 138.5t135 51.5q56 0 100 -27t70.5 -68.5t44 -98t24 -110t6.5 -109.5v-58zM469 309v219q-23 0 -43.5 -1t-54.5 -7t-61.5 -16t-58 -29.5t-51.5 -46.5t-34.5 -69.5t-13.5 -94.5
q0 -103 41.5 -153t103.5 -50t108.5 50t59.5 137q4 23 4 61zM553 602h350q5 162 -45.5 241t-114.5 79q-85 0 -135 -93t-55 -227zM662 1386h116l-219 -270h-65z" />
    <glyph glyph-name="Oslashacute" unicode="&#x1fe;" horiz-adv-x="868" 
d="M150 -57l-58 30l84 193q-102 183 -102 524q0 150 20 270.5t53.5 201t80 134.5t98 77.5t108.5 23.5q123 0 213 -101l62 142l63 -29l-78 -180q101 -204 101 -535q0 -150 -20 -271t-53.5 -201.5t-80 -135t-98.5 -78.5t-109 -24q-132 0 -215 110zM223 272l383 934
q-79 111 -172 111q-76 0 -131.5 -59.5t-83.5 -158t-40.5 -200t-12.5 -209.5q0 -259 53 -418h4zM645 1120l-389 -932q68 -125 178 -125q77 0 132.5 59.5t83.5 158.5t40 199.5t12 209.5q0 259 -53 428zM571 1669h134l-259 -215h-84z" />
    <glyph glyph-name="oslashacute" unicode="&#x1ff;" horiz-adv-x="724" 
d="M362 999h3q85 0 155 -67l45 102l64 -30l-60 -136q84 -132 84 -376q0 -130 -25 -231t-67 -159.5t-92.5 -88t-106.5 -29.5q-84 0 -153 63l-45 -104l-60 37l56 126q-88 138 -88 386q0 130 25 231t67 159.5t92 87.5t106 29zM205 203l278 645q-30 74 -121 74q-49 0 -86.5 -30
t-58 -74.5t-33 -106t-16.5 -113t-4 -106.5q0 -164 39 -287zM524 772l-278 -643q41 -68 116 -68q61 0 103 43t61.5 114.5t27 137t7.5 136.5q0 161 -35 278zM459 1386h116l-219 -270h-65z" />
    <glyph glyph-name="Scommaaccent" unicode="&#x218;" horiz-adv-x="696" 
d="M63 51l31 74q33 -23 84 -40t96 -17q117 0 186.5 77t69.5 205q0 100 -48 176t-136 150q-8 7 -39 31t-55 44t-57 55.5t-55 70t-38 82.5t-16 98q0 148 93.5 242t228.5 94q56 0 104.5 -16t73.5 -36l-35 -75q-62 47 -158 47q-103 0 -160 -70.5t-57 -161.5q0 -47 10.5 -86.5
t24.5 -67.5t43 -58t52 -49t64 -51q11 -8 17 -13q120 -95 177 -189.5t57 -210.5q0 -167 -99.5 -267.5t-245.5 -100.5q-61 0 -123 19.5t-90 43.5zM236 -424l-29 49q59 16 99 51.5t40 90.5q0 70 -72 124l86 23q28 -20 48 -58t20 -81q0 -83 -56 -132.5t-136 -66.5z" />
    <glyph glyph-name="scommaaccent" unicode="&#x219;" horiz-adv-x="548" 
d="M49 45l33 72q73 -51 147 -51q77 0 123.5 48.5t46.5 129.5q0 70 -28.5 122t-104.5 107q-48 34 -78 59.5t-60.5 60.5t-45 74t-14.5 85q0 109 71 178t168 69q90 0 160 -53l-39 -72q-61 48 -127 48q-67 0 -106 -45.5t-39 -106.5t26.5 -102.5t100.5 -96.5q38 -28 58.5 -43.5
t53.5 -47.5t50 -59.5t30.5 -68t13.5 -84.5q0 -93 -38.5 -158t-96.5 -93.5t-129 -28.5q-109 0 -176 57zM186 -424l-28 49q59 16 99 51.5t40 90.5q0 70 -72 124l86 23q28 -20 48 -58t20 -81q0 -83 -56 -132t-137 -67z" />
    <glyph glyph-name="circumflex" unicode="&#x2c6;" horiz-adv-x="614" 
d="M279 1386h57l153 -270h-77l-103 187h-4l-102 -187h-78z" />
    <glyph glyph-name="caron" unicode="&#x2c7;" horiz-adv-x="614" 
d="M338 1116h-59l-154 270h78l102 -186h4l105 186h78z" />
    <glyph glyph-name="breve" unicode="&#x2d8;" horiz-adv-x="614" 
d="M106 1356h62q3 -59 41 -97t96 -38q62 0 101 37t40 98h62q3 -95 -52 -154t-149 -59q-99 0 -151.5 60.5t-49.5 152.5z" />
    <glyph glyph-name="dotaccent" unicode="&#x2d9;" horiz-adv-x="614" 
d="M311 1165h-2q-29 0 -49 20t-20 48q0 29 20 48t51 19q28 0 47 -19t19 -48q0 -28 -19 -48t-47 -20z" />
    <glyph glyph-name="ring" unicode="&#x2da;" horiz-adv-x="819" 
d="M412 1430h2q73 0 123.5 -51.5t50.5 -125.5q0 -71 -52.5 -120.5t-123.5 -49.5q-75 0 -127 49.5t-52 120.5q0 74 50.5 125.5t128.5 51.5zM412 1368h-2q-44 0 -72.5 -34t-28.5 -81q0 -44 30 -76t73 -32q46 0 75 31.5t29 80.5q0 46 -29.5 78.5t-74.5 32.5z" />
    <glyph glyph-name="ogonek" unicode="&#x2db;" horiz-adv-x="614" 
d="M289 10h78q-113 -150 -113 -233q0 -48 26.5 -73.5t59.5 -25.5q44 0 92 23l17 -59q-50 -41 -130 -41q-67 0 -110 39t-43 108q0 72 37.5 141t85.5 121z" />
    <glyph glyph-name="tilde" unicode="&#x2dc;" horiz-adv-x="614" 
d="M168 1153h-66q-2 72 29.5 118t85.5 46q9 0 18 -2t15 -3.5t16 -6.5t13.5 -6.5t14.5 -8.5t13 -8q6 -3 17.5 -10.5t17.5 -11t15 -7.5t17.5 -6t16.5 -2q26 0 39 17t16 57h64q0 -68 -29 -111t-92 -43q-39 0 -94 37q-4 3 -18.5 12t-21 12t-17 7t-19.5 4q-24 0 -35 -20t-16 -64z
" />
    <glyph glyph-name="hungarumlaut" unicode="&#x2dd;" horiz-adv-x="614" 
d="M219 1386h111l-217 -270h-62zM455 1386h110l-217 -270h-61z" />
    <glyph glyph-name="uni037E" unicode="&#x37e;" horiz-adv-x="348" 
d="M135 -248l-69 -10q24 71 52 208t34 226l120 10q-20 -100 -66.5 -243.5t-70.5 -190.5zM201 723h-2q-32 0 -53 24t-21 62t21 63t55 25q36 0 55.5 -24.5t19.5 -63.5t-19.5 -62.5t-55.5 -23.5z" />
    <glyph glyph-name="tonos" unicode="&#x384;" horiz-adv-x="614" 
d="M207 1391h92l-106 -271h-56z" />
    <glyph glyph-name="dieresistonos" unicode="&#x385;" horiz-adv-x="614" 
d="M289 1393h88l-66 -285h-49zM139 1169h-2q-30 0 -49.5 17.5t-19.5 44.5q0 29 19.5 45t51.5 16q25 0 42.5 -16.5t17.5 -44.5q0 -27 -18 -44.5t-42 -17.5zM481 1169h-2q-26 0 -44.5 17.5t-18.5 44.5q0 28 19 44.5t46 16.5q29 0 47.5 -16.5t18.5 -44.5q0 -27 -19 -44.5
t-47 -17.5z" />
    <glyph glyph-name="Alphatonos" unicode="&#x386;" horiz-adv-x="862" 
d="M600 475h-342l-111 -475h-86l326 1380h84l330 -1380h-90zM276 551h304l-88 389q-35 148 -62 315h-8q-19 -137 -60 -317zM129 1380h90l-51 -280h-51z" />
    <glyph glyph-name="anoteleia" unicode="&#x387;" horiz-adv-x="348" 
d="M174 573h-2q-32 0 -53 24t-21 62q0 39 21.5 64t54.5 25q36 0 56 -25t20 -64t-20 -62.5t-56 -23.5z" />
    <glyph glyph-name="Epsilontonos" unicode="&#x388;" horiz-adv-x="741" 
d="M647 764v-78h-364v-608h417v-78h-505v1380h479v-77h-391v-539h364zM12 1380h90l-51 -280h-51z" />
    <glyph glyph-name="Etatonos" unicode="&#x389;" horiz-adv-x="950" 
d="M195 1380h88v-616h452v616h88v-1380h-88v686h-452v-686h-88v1380zM12 1380h90l-51 -280h-51z" />
    <glyph glyph-name="Iotatonos" unicode="&#x38a;" horiz-adv-x="409" 
d="M195 1380h88v-1380h-88v1380zM12 1380h90l-51 -280h-51z" />
    <glyph glyph-name="Omicrontonos" unicode="&#x38c;" horiz-adv-x="905" 
d="M463 -16h-2q-70 0 -130.5 39t-111 119.5t-79.5 221t-29 326.5q0 148 19.5 268t54 201t82 135t102 78.5t116.5 24.5q55 0 104 -23.5t94 -77t77.5 -133.5t51.5 -201t19 -272q0 -150 -19.5 -270.5t-53 -200.5t-81 -134t-100.5 -77.5t-114 -23.5zM471 63h2q52 0 94.5 27.5
t71 76.5t49 109.5t31 133.5t15.5 140.5t5 139.5q0 111 -12.5 212t-40.5 199t-83.5 157t-131.5 59q-62 0 -110 -40t-77.5 -102.5t-48 -148t-25.5 -167t-7 -169.5q0 -111 12.5 -212t40.5 -199t83.5 -157t131.5 -59zM12 1380h90l-51 -280h-51z" />
    <glyph glyph-name="Upsilontonos" unicode="&#x38e;" horiz-adv-x="962" 
d="M160 1323l18 70q19 -4 59 -25.5t72 -52.5q87 -84 154.5 -247.5t85.5 -375.5h4q22 198 90.5 348.5t147.5 237.5q66 72 143 115l22 -70q-49 -32 -95.5 -83.5t-95.5 -131t-90 -199t-65 -264.5q-20 -132 -20 -239v-406h-88v406q0 125 -15 239q-80 548 -327 678zM12 1380h90
l-51 -280h-51z" />
    <glyph glyph-name="Omegatonos" unicode="&#x38f;" horiz-adv-x="927" 
d="M643 90v-8h209v-82h-315v70q73 75 123 194t70.5 238t19.5 235q-1 78 -8 152.5t-26.5 154t-48.5 138.5t-77 97t-109 38q-76 0 -131 -55.5t-83.5 -145.5t-41 -181t-12.5 -185q0 -173 59 -376.5t154 -303.5v-70h-315v82h208v8q-88 116 -143 293.5t-55 374.5
q0 310 106.5 474.5t268.5 164.5q70 0 131 -39t110 -115t77 -200.5t28 -282.5q0 -208 -55.5 -385t-143.5 -285zM12 1380h90l-51 -280h-51z" />
    <glyph glyph-name="iotadieresistonos" unicode="&#x390;" horiz-adv-x="329" 
d="M209 983v-825q0 -57 14.5 -78t57.5 -21l-11 -73q-14 -2 -34 -2q-51 0 -83 36.5t-32 135.5v827h88zM168 1374h88l-66 -287h-49zM18 1151h-2q-30 0 -49.5 17t-19.5 44q0 29 20 45.5t51 16.5q24 0 42 -17t18 -45q0 -27 -18 -44t-42 -17zM360 1151h-2q-26 0 -44.5 17
t-18.5 44q0 28 19 45t46 17q29 0 47.5 -16.5t18.5 -45.5q0 -27 -19 -44t-47 -17z" />
    <glyph glyph-name="Alpha" unicode="&#x391;" horiz-adv-x="862" 
d="M600 475h-342l-111 -475h-86l326 1380h84l330 -1380h-90zM276 551h304l-88 389q-35 148 -62 315h-8q-19 -137 -60 -317z" />
    <glyph glyph-name="Beta" unicode="&#x392;" horiz-adv-x="765" 
d="M127 6v1354q89 26 184 26q186 0 277 -94q82 -82 82 -227q0 -112 -58.5 -191.5t-160.5 -117.5v-4q123 -31 192.5 -126t69.5 -241q0 -162 -97 -274q-101 -117 -311 -117q-116 0 -178 12zM215 1300v-518h82q114 0 197.5 77.5t83.5 197.5q0 254 -271 254q-55 0 -92 -11z
M215 711v-633q40 -8 92 -8q149 0 231.5 82t82.5 233q0 157 -95 240.5t-235 85.5h-76z" />
    <glyph glyph-name="Gamma" unicode="&#x393;" horiz-adv-x="638" 
d="M127 1380h477v-75h-389v-1305h-88v1380z" />
    <glyph glyph-name="Delta" unicode="&#x394;" horiz-adv-x="851" 
d="M66 0v61l321 1319h84l328 -1319v-61h-733zM156 78h551l-211 862q-41 161 -66 315h-8q-19 -132 -64 -317z" />
    <glyph glyph-name="Delta" unicode="&#xe000;" horiz-adv-x="851" 
d="M66 0v61l321 1319h84l328 -1319v-61h-733zM156 78h551l-211 862q-41 161 -66 315h-8q-19 -132 -64 -317z" />
    <glyph glyph-name="Epsilon" unicode="&#x395;" horiz-adv-x="673" 
d="M580 764v-78h-365v-608h418v-78h-506v1380h479v-77h-391v-539h365z" />
    <glyph glyph-name="Zeta" unicode="&#x396;" horiz-adv-x="696" 
d="M51 0v55l496 1245v5h-457v75h557v-51l-495 -1247v-6h493v-76h-594z" />
    <glyph glyph-name="Eta" unicode="&#x397;" horiz-adv-x="882" 
d="M127 1380h88v-616h453v616h88v-1380h-88v686h-453v-686h-88v1380z" />
    <glyph glyph-name="Theta" unicode="&#x398;" horiz-adv-x="868" 
d="M426 -16h-2q-70 0 -130.5 39t-111 119.5t-79.5 221t-29 326.5q0 184 30 323.5t82.5 221.5t118.5 122t144 40q55 0 104 -23.5t94 -77t77.5 -133.5t51.5 -201t19 -272q0 -186 -29.5 -326t-81.5 -221t-116.5 -120t-141.5 -39zM434 63h2q52 0 94.5 27.5t71 76.5t49 109.5
t31 133.5t15.5 140.5t5 139.5q0 111 -12.5 212t-40.5 199t-83.5 157t-131.5 59q-62 0 -110 -40t-77.5 -102.5t-48 -148t-25.5 -167t-7 -169.5q0 -111 12.5 -212t40.5 -199t83.5 -157t131.5 -59zM258 756h352v-78h-352v78z" />
    <glyph glyph-name="Iota" unicode="&#x399;" horiz-adv-x="346" 
d="M127 1380h88v-1380h-88v1380z" />
    <glyph glyph-name="Kappa" unicode="&#x39a;" horiz-adv-x="759" 
d="M127 0v1380h88v-678h4q15 23 96 160l303 518h101l-357 -581l369 -799h-96l-332 723l-88 -143v-580h-88z" />
    <glyph glyph-name="Lambda" unicode="&#x39b;" horiz-adv-x="862" 
d="M801 0h-90l-219 940q-35 148 -62 315h-8q-19 -137 -60 -317l-215 -938h-86l326 1380h84z" />
    <glyph glyph-name="Mu" unicode="&#x39c;" horiz-adv-x="1179" 
d="M987 0l-33 664q-20 427 -14 591h-10q-55 -265 -123 -514l-201 -741h-45l-190 705q-96 361 -131 550h-9q4 -182 -14 -608l-27 -647h-88l72 1380h102l193 -712q88 -322 119 -469h6q26 134 111 469l186 712h110l76 -1380h-90z" />
    <glyph glyph-name="Nu" unicode="&#x39d;" horiz-adv-x="888" 
d="M211 0h-84v1380h88l279 -712q141 -360 194 -529h4q-14 262 -14 631v610h84v-1380h-88l-295 750q-122 307 -178 501h-4q14 -213 14 -669v-582z" />
    <glyph glyph-name="Xi" unicode="&#x39e;" horiz-adv-x="669" 
d="M66 1380h536v-77h-536v77zM104 764h459v-78h-459v78zM53 78h563v-78h-563v78z" />
    <glyph glyph-name="Omicron" unicode="&#x39f;" horiz-adv-x="868" 
d="M426 -16h-2q-70 0 -130.5 39t-111 119.5t-79.5 221t-29 326.5q0 184 30 323.5t82.5 221.5t118.5 122t144 40q55 0 104 -23.5t94 -77t77.5 -133.5t51.5 -201t19 -272q0 -186 -29.5 -326t-81.5 -221t-116.5 -120t-141.5 -39zM434 63h2q52 0 94.5 27.5t71 76.5t49 109.5
t31 133.5t15.5 140.5t5 139.5q0 111 -12.5 212t-40.5 199t-83.5 157t-131.5 59q-62 0 -110 -40t-77.5 -102.5t-48 -148t-25.5 -167t-7 -169.5q0 -111 12.5 -212t40.5 -199t83.5 -157t131.5 -59z" />
    <glyph glyph-name="Pi" unicode="&#x3a0;" horiz-adv-x="847" 
d="M721 1380v-1380h-88v1303h-418v-1303h-88v1380h594z" />
    <glyph glyph-name="Rho" unicode="&#x3a1;" horiz-adv-x="743" 
d="M127 0v1360q89 26 197 26q80 0 149 -25.5t113 -72.5q92 -98 92 -276q0 -147 -64 -250q-51 -82 -135.5 -125t-183.5 -43q-55 0 -80 4v-598h-88zM215 1300v-624q30 -6 74 -6q132 0 214.5 85.5t82.5 254.5q0 62 -13.5 113.5t-43.5 95t-84.5 68t-129.5 24.5q-54 0 -100 -11z
" />
    <glyph glyph-name="Sigma" unicode="&#x3a3;" horiz-adv-x="819" 
d="M145 88v-10h611v-78h-721v68l391 614l-363 633v65h637v-75h-524v-9l346 -608z" />
    <glyph glyph-name="Tau" unicode="&#x3a4;" horiz-adv-x="675" 
d="M295 0v1305h-258v75h604v-75h-258v-1305h-88z" />
    <glyph glyph-name="Upsilon" unicode="&#x3a5;" horiz-adv-x="823" 
d="M20 1323l19 70q19 -4 59 -25.5t72 -52.5q87 -84 154.5 -247.5t85.5 -375.5h4q23 199 90.5 349.5t146.5 236.5q65 71 144 115l22 -70q-49 -32 -95.5 -83.5t-95.5 -131t-90 -199t-65 -264.5q-20 -132 -20 -239v-406h-89v406q0 132 -14 239q-80 547 -328 678z" />
    <glyph glyph-name="Phi" unicode="&#x3a6;" horiz-adv-x="931" 
d="M508 84v-100h-88v100q-44 5 -88 25.5t-91.5 66t-83.5 111t-59.5 170t-23.5 233.5q0 119 20.5 219.5t54.5 169.5t79.5 118.5t94.5 74t101 28.5v97h88v-97q147 -9 246.5 -172.5t99.5 -431.5q0 -129 -22 -233.5t-57 -172t-81.5 -114.5t-93.5 -68t-96 -24zM422 152v1081
q-107 -10 -181.5 -154.5t-74.5 -394.5q0 -223 72 -362t184 -170zM510 1233v-1081q122 19 189 161t67 387q0 237 -78.5 381t-177.5 152z" />
    <glyph glyph-name="Chi" unicode="&#x3a7;" horiz-adv-x="782" 
d="M731 0h-94l-150 379q-17 43 -49.5 128.5t-42.5 110.5h-6q-13 -32 -45 -116.5t-49 -124.5l-148 -377h-96l299 702l-291 678h93l151 -358q37 -81 92 -219h4q46 129 84 225l140 352h94l-277 -661z" />
    <glyph glyph-name="Psi" unicode="&#x3a8;" horiz-adv-x="980" 
d="M879 1380v-407q0 -462 -344 -510v-463h-89v463q-176 23 -260 150t-84 358v409h88v-397q0 -419 256 -446v843h89v-843q256 26 256 446v397h88z" />
    <glyph glyph-name="Omega" unicode="&#x3a9;" horiz-adv-x="890" 
d="M606 90v-8h209v-82h-315v70q73 75 123 194t70.5 238t19.5 235q-1 78 -8 152.5t-26.5 154t-48.5 138.5t-77 97t-109 38q-76 0 -131 -55.5t-83.5 -145.5t-41 -181t-12.5 -185q0 -173 59 -376.5t154 -303.5v-70h-315v82h209v8q-88 116 -143.5 293.5t-55.5 374.5
q0 310 106.5 474.5t268.5 164.5q70 0 131 -39t110 -115t77 -200.5t28 -282.5q0 -208 -55.5 -385t-143.5 -285z" />
    <glyph glyph-name="Omega" unicode="&#x2126;" horiz-adv-x="890" 
d="M606 90v-8h209v-82h-315v70q73 75 123 194t70.5 238t19.5 235q-1 78 -8 152.5t-26.5 154t-48.5 138.5t-77 97t-109 38q-76 0 -131 -55.5t-83.5 -145.5t-41 -181t-12.5 -185q0 -173 59 -376.5t154 -303.5v-70h-315v82h209v8q-88 116 -143.5 293.5t-55.5 374.5
q0 310 106.5 474.5t268.5 164.5q70 0 131 -39t110 -115t77 -200.5t28 -282.5q0 -208 -55.5 -385t-143.5 -285z" />
    <glyph glyph-name="Iotadieresis" unicode="&#x3aa;" horiz-adv-x="346" 
d="M29 1454h-2q-29 0 -49.5 20t-20.5 48q0 29 20.5 48t51.5 19q28 0 46.5 -19t18.5 -48q0 -28 -19 -48t-46 -20zM322 1454h-3q-29 0 -49 20t-20 48q0 29 20.5 48t51.5 19q28 0 46.5 -19t18.5 -48q0 -28 -19 -48t-46 -20zM127 1380h88v-1380h-88v1380z" />
    <glyph glyph-name="Upsilondieresis" unicode="&#x3ab;" horiz-adv-x="823" 
d="M276 1434h-2q-29 0 -49 19.5t-20 47.5q0 29 20 48.5t51 19.5q28 0 47 -19.5t19 -48.5q0 -28 -19 -47.5t-47 -19.5zM569 1434h-2q-29 0 -49 19.5t-20 47.5q0 29 20 48.5t51 19.5q28 0 47 -19.5t19 -48.5q0 -28 -19 -47.5t-47 -19.5zM20 1323l19 70q19 -4 59 -25.5
t72 -52.5q87 -84 154.5 -247.5t85.5 -375.5h4q23 199 90.5 349.5t146.5 236.5q65 71 144 115l22 -70q-49 -32 -95.5 -83.5t-95.5 -131t-90 -199t-65 -264.5q-20 -132 -20 -239v-406h-89v406q0 132 -14 239q-80 547 -328 678z" />
    <glyph glyph-name="alphatonos" unicode="&#x3ac;" horiz-adv-x="749" 
d="M410 1366h92l-107 -270h-55zM573 983h72q-7 -39 -13 -276.5t-5 -542.5q0 -106 57 -109l-12 -71h-21q-102 0 -102 170h-8q-22 -65 -73.5 -117.5t-131.5 -52.5q-114 0 -189 124.5t-75 366.5q0 124 27 227t70.5 166t95 97t102.5 34q59 0 105.5 -33t78.5 -122h8q5 77 14 139z
M164 465v-2q0 -100 20.5 -190t64 -151t101.5 -61q65 0 116 76.5t69 192.5q8 61 8 170q0 100 -2 153q-5 107 -54.5 188t-113.5 81t-112.5 -63.5t-72.5 -166t-24 -227.5z" />
    <glyph glyph-name="epsilontonos" unicode="&#x3ad;" horiz-adv-x="606" 
d="M377 1366h92l-107 -270h-55zM281 535v8q-160 50 -160 211q0 98 76.5 171.5t191.5 73.5q114 0 160 -43l-25 -69q-55 35 -137 35q-84 0 -129 -50t-45 -118q0 -62 34.5 -104.5t84.5 -59.5t112 -17h29v-75h-39q-118 0 -195 -55t-77 -167q0 -100 61.5 -157.5t157.5 -57.5
q51 0 100.5 11.5t71.5 23.5l18 -71q-71 -41 -200 -41q-59 0 -111.5 16.5t-95.5 50t-68.5 90.5t-25.5 131q0 104 61.5 174t149.5 89z" />
    <glyph glyph-name="etatonos" unicode="&#x3ae;" horiz-adv-x="761" 
d="M410 1366h92l-107 -270h-55zM197 862h4q29 62 85.5 99.5t131.5 37.5q42 0 79 -15.5t71 -49.5t53.5 -99.5t19.5 -154.5v-784q0 -207 14 -289h-82q-20 78 -20 239v799q0 58 -6.5 103t-23 87.5t-50 65.5t-82.5 23q-63 0 -113.5 -54t-64.5 -151q-4 -27 -4 -86v-633h-88v756
q0 136 -25 227h76q18 -48 25 -121z" />
    <glyph glyph-name="iotatonos" unicode="&#x3af;" horiz-adv-x="329" 
d="M195 1366h92l-107 -270h-55zM209 983v-825q0 -57 14.5 -78t57.5 -21l-11 -73q-14 -2 -34 -2q-51 0 -83 36.5t-32 135.5v827h88z" />
    <glyph glyph-name="upsilondieresistonos" unicode="&#x3b0;" horiz-adv-x="700" 
d="M465 983h86q30 -62 50 -175.5t20 -240.5q0 -583 -285 -583q-105 0 -166 70t-61 198v379q0 292 -19 352h84q23 -37 23 -197v-507q0 -110 41 -165t102 -55q102 0 147 123t45 365q0 138 -18.5 254.5t-48.5 181.5zM322 1374h88l-66 -287h-49zM172 1151h-2q-30 0 -50 17
t-20 44q0 29 20 45.5t52 16.5q24 0 41.5 -17t17.5 -45q0 -27 -17.5 -44t-41.5 -17zM514 1151h-2q-26 0 -44.5 17t-18.5 44q0 28 19 45t46 17q29 0 47.5 -16.5t18.5 -45.5q0 -27 -19 -44t-47 -17z" />
    <glyph glyph-name="alpha" unicode="&#x3b1;" horiz-adv-x="749" 
d="M573 983h72q-7 -39 -13 -276.5t-5 -542.5q0 -106 57 -109l-12 -71h-21q-102 0 -102 170h-8q-22 -65 -73.5 -117.5t-131.5 -52.5q-114 0 -189 124.5t-75 366.5q0 124 27 227t70.5 166t95 97t102.5 34q59 0 105.5 -33t78.5 -122h8q5 77 14 139zM164 465v-2
q0 -100 20.5 -190t64 -151t101.5 -61q65 0 116 76.5t69 192.5q8 61 8 170q0 100 -2 153q-5 107 -54.5 188t-113.5 81t-112.5 -63.5t-72.5 -166t-24 -227.5z" />
    <glyph glyph-name="beta" unicode="&#x3b2;" horiz-adv-x="763" 
d="M211 61h-4v-165q0 -205 12 -289h-78q-22 74 -22 237v1162q0 235 96 348q67 80 170 80q60 0 107 -30t74.5 -79t41 -105t13.5 -114q0 -238 -175 -328v-8q34 -10 64.5 -25t65 -45t59 -70.5t41 -104t16.5 -142.5q0 -96 -25.5 -174t-68 -126t-95.5 -73.5t-110 -25.5
q-60 0 -107 22t-75 55zM207 1016v-836q69 -119 186 -119q97 0 152 92t55 220q0 158 -68 248.5t-188 99.5q-10 2 -27 2v78q9 0 33 4q79 23 128.5 94t49.5 201q0 38 -8 79.5t-24 82.5t-46.5 67.5t-70.5 26.5q-88 0 -130 -94.5t-42 -245.5z" />
    <glyph glyph-name="gamma" unicode="&#x3b3;" horiz-adv-x="614" 
d="M340 -393h-86q12 204 2 363.5t-49 318.5q-114 478 -211 694h94q57 -148 119.5 -368t95.5 -425h6q70 185 120 385t50 343q0 6 -0.5 20t-0.5 25t1 20h82q4 -20 4 -59q0 -297 -221 -834q-10 -25 -10 -53q8 -161 4 -430z" />
    <glyph glyph-name="delta" unicode="&#x3b4;" horiz-adv-x="735" 
d="M635 1343l-39 -63q-97 76 -197 76q-53 0 -83.5 -29t-30.5 -70q0 -38 22 -80.5t72 -109.5l123 -164q160 -213 160 -436q0 -219 -79 -351t-218 -132q-121 0 -207 122.5t-86 342.5q0 92 23.5 175.5t64.5 147.5t86.5 112t97.5 85v8l-25 31q-120 149 -120 239q0 70 54.5 128.5
t164.5 58.5q122 0 217 -91zM442 842l-51 69q-227 -161 -227 -462q0 -186 62.5 -287t144.5 -101q93 0 145.5 104t52.5 284q0 131 -32.5 222t-94.5 171z" />
    <glyph glyph-name="epsilon" unicode="&#x3b5;" horiz-adv-x="606" 
d="M281 537v8q-74 22 -117 75.5t-43 133.5q0 98 76.5 171.5t191.5 73.5q114 0 160 -43l-25 -69q-55 35 -137 35q-84 0 -129 -50t-45 -118q0 -62 34.5 -104.5t84.5 -59.5t112 -17h29v-75h-39q-118 0 -195 -55t-77 -167q0 -100 61.5 -157.5t157.5 -57.5q51 0 100 12.5t72 24.5
l18 -73q-71 -41 -200 -41q-59 0 -111.5 16.5t-95.5 50t-68.5 90.5t-25.5 131q0 105 63 177t148 88z" />
    <glyph glyph-name="zeta" unicode="&#x3b6;" horiz-adv-x="598" 
d="M471 -254l-70 18q37 57 58.5 121t25.5 101q-89 20 -170 55q-243 101 -243 414q0 230 116 474t291 396v6h-112q-131 0 -177 15l17 67q47 -4 174 -4h203l22 -63q-82 -59 -161 -156t-141.5 -212t-101 -248.5t-38.5 -254.5q0 -87 15 -151t45 -104.5t63 -65.5t80 -45
q83 -37 200 -58q15 -3 15 -24q0 -58 -32.5 -142.5t-78.5 -138.5z" />
    <glyph glyph-name="eta" unicode="&#x3b7;" horiz-adv-x="761" 
d="M197 862h4q29 62 85.5 99.5t131.5 37.5q42 0 79 -15.5t71 -49.5t53.5 -99.5t19.5 -154.5v-784q0 -207 14 -289h-82q-20 78 -20 239v799q0 58 -6.5 103t-23 87.5t-50 65.5t-82.5 23q-63 0 -113.5 -54t-64.5 -151q-4 -27 -4 -86v-633h-88v756q0 136 -25 227h76
q18 -48 25 -121z" />
    <glyph glyph-name="theta" unicode="&#x3b8;" horiz-adv-x="720" 
d="M354 -16h-2q-280 0 -280 741q0 154 17.5 277.5t46 202.5t67 132t79.5 75t85 22q45 0 84.5 -21t76.5 -72.5t63 -130.5t42 -203t16 -282q0 -181 -17 -316.5t-44 -215t-67 -128t-79.5 -65t-87.5 -16.5zM160 770h401q0 255 -53 420.5t-150 165.5q-58 0 -103.5 -78.5
t-70 -211.5t-24.5 -296zM559 694h-399q2 -302 53 -467.5t149 -165.5q197 0 197 633z" />
    <glyph glyph-name="iota" unicode="&#x3b9;" horiz-adv-x="329" 
d="M209 983v-825q0 -57 14.5 -78t57.5 -21l-11 -73q-14 -2 -34 -2q-51 0 -83 36.5t-32 135.5v827h88z" />
    <glyph glyph-name="kappa" unicode="&#x3ba;" horiz-adv-x="684" 
d="M309 530v-4q41 -15 86.5 -68t73 -99.5t66.5 -120.5l127 -238h-99l-127 236q-127 237 -207 237h-18v-473h-88v756q0 164 -23 227h82q29 -37 29 -170v-287h6q287 399 330 457h100v-4q-165 -214 -338 -449z" />
    <glyph glyph-name="lambda" unicode="&#x3bb;" horiz-adv-x="624" 
d="M506 0l-137 592q-16 74 -52 254h-6q-27 -149 -53 -248l-154 -598h-86l242 922q6 18 6 49q0 37 -4 57q-44 182 -93.5 257t-115.5 75q-8 0 -20 -2l12 74q8 2 37 2q52 0 92 -25.5t71 -81.5t53.5 -123t47.5 -170l250 -1034h-90z" />
    <glyph glyph-name="uni03BC" unicode="&#x3bc;" horiz-adv-x="745" 
d="M549 102h-4q-20 -36 -72.5 -74t-112.5 -38q-54 0 -92 19.5t-63 70.5v-184q0 -207 14 -289h-78q-22 65 -22 239v1137h88v-666q0 -254 153 -254q43 0 78 18.5t55 46.5t30.5 54t13.5 49q4 31 4 91v661h88v-817q0 -116 59 -113l-12 -67q-10 -2 -33 -2q-34 0 -60.5 27
t-33.5 91z" />
    <glyph glyph-name="nu" unicode="&#x3bd;" horiz-adv-x="610" 
d="M23 983h88l135 -623q5 -23 12 -59.5t16.5 -87.5t16.5 -86h4q67 199 125.5 427t58.5 364q0 5 0.5 18.5t0.5 25.5t-1 21h82q4 -20 4 -55q0 -253 -243 -928h-78z" />
    <glyph glyph-name="xi" unicode="&#x3be;" horiz-adv-x="618" 
d="M520 842v-76h-37q-136 -8 -227.5 -99t-91.5 -231q0 -247 244 -336q97 -33 184 -49q14 -3 14 -22q0 -59 -31.5 -144t-76.5 -139l-72 18q37 57 58.5 121t25.5 101q-100 24 -173.5 55.5t-136.5 81.5t-95.5 124.5t-32.5 172.5q0 136 69 236.5t193 152.5v10q-87 40 -135.5 119
t-48.5 172q0 141 84.5 232.5t214.5 91.5q91 0 147 -39l-29 -70q-62 31 -127 31q-54 0 -94.5 -22.5t-62 -59.5t-31.5 -76.5t-10 -81.5q0 -116 69 -189.5t176 -82.5q10 -2 33 -2z" />
    <glyph glyph-name="omicron" unicode="&#x3bf;" horiz-adv-x="724" 
d="M358 -16h-2q-43 0 -83 17.5t-77 57.5t-64 97.5t-43.5 144t-16.5 191.5q0 131 24.5 231t67.5 159t95 88t112 29q54 0 103 -29t90 -87.5t65 -159.5t24 -231q0 -131 -24.5 -231.5t-67 -159t-94 -88t-109.5 -29.5zM362 61h3q59 0 100 43t60.5 114t27.5 137.5t8 136.5
q0 54 -4.5 106.5t-17.5 113.5t-34.5 105.5t-58.5 74.5t-86 30q-59 0 -100 -43t-60.5 -113.5t-27.5 -137t-8 -136.5q0 -55 4 -107t17.5 -113t34 -106t57.5 -75t85 -30z" />
    <glyph glyph-name="pi" unicode="&#x3c0;" horiz-adv-x="731" 
d="M688 905h-96v-661q0 -182 20 -244h-84q-9 17 -16.5 82.5t-7.5 153.5v669h-240q0 -235 -30 -507.5t-72 -397.5h-80q45 136 71.5 397t26.5 508q-73 0 -127 -12l-18 55q31 35 188 35h477z" />
    <glyph glyph-name="rho" unicode="&#x3c1;" horiz-adv-x="749" 
d="M205 88h-4v-192q0 -202 10 -289h-82q-16 63 -16 235v680q0 254 80 367q36 54 89.5 82t104.5 28q131 0 211 -125t80 -380q0 -133 -25 -234t-68 -159.5t-95 -87.5t-111 -29q-62 0 -106.5 30t-67.5 74zM201 559v-217q0 -53 4 -80q13 -60 35 -102.5t47.5 -62.5t46.5 -28
t41 -8q58 0 100.5 37.5t65.5 102t34 139.5t11 162q0 81 -10 151.5t-32 132.5t-63 98t-96 36q-76 0 -130 -89.5t-54 -271.5z" />
    <glyph glyph-name="uni03C2" unicode="&#x3c2;" horiz-adv-x="567" 
d="M543 975l-25 -70q-53 17 -88 17q-67 0 -120 -38.5t-84 -101.5t-46.5 -134.5t-15.5 -145.5q0 -143 42.5 -240t147.5 -153q50 -27 170 -64q15 -6 15 -18q0 -58 -32.5 -143t-80.5 -138l-68 18q39 57 61.5 120t26.5 100q-74 22 -143 55q-109 55 -170 169t-61 277
q0 217 103 365.5t263 148.5q66 0 105 -24z" />
    <glyph glyph-name="sigma" unicode="&#x3c3;" horiz-adv-x="716" 
d="M516 928l-2 -6q127 -132 127 -430q0 -130 -24.5 -231t-66.5 -159.5t-92 -88t-106 -29.5q-42 0 -81 17.5t-75.5 57.5t-64 97.5t-43.5 144t-16 191.5q0 131 24.5 231t67.5 159t95 88t112 29h71h33h211l-6 -75q-51 -3 -164 4zM358 61h2q57 0 96.5 43t58.5 114t26.5 137.5
t7.5 136.5q0 53 -4.5 106.5t-18 113.5t-34 105t-56 75t-80.5 30q-57 0 -97.5 -43t-59.5 -113.5t-27 -137t-8 -136.5q0 -54 4.5 -107t17.5 -113.5t33.5 -105.5t56.5 -75t82 -30z" />
    <glyph glyph-name="tau" unicode="&#x3c4;" horiz-adv-x="552" 
d="M434 61l-4 -71q-21 -6 -51 -6q-45 0 -76 21.5t-46 60.5t-20.5 79t-5.5 91v669h-100q-69 0 -108 -26l-19 59q12 19 48.5 32t84.5 13h414l-16 -78h-216v-692q0 -84 25 -119t55 -35q25 0 35 2z" />
    <glyph glyph-name="upsilon" unicode="&#x3c5;" horiz-adv-x="700" 
d="M465 983h86q30 -62 50 -175.5t20 -240.5q0 -583 -285 -583q-105 0 -166 70t-61 198v379q0 292 -19 352h84q23 -37 23 -197v-507q0 -110 41 -165t102 -55q102 0 147 123t45 365q0 138 -18.5 254.5t-48.5 181.5z" />
    <glyph glyph-name="phi" unicode="&#x3c6;" horiz-adv-x="894" 
d="M283 989l51 -49q-76 -76 -123 -190.5t-47 -257.5q0 -163 61.5 -279t177.5 -137v694q0 110 42.5 161.5t111.5 51.5q103 0 184.5 -127t81.5 -344q0 -122 -27 -219t-74 -157t-105 -94t-125 -42v-393h-89v393q-44 5 -86.5 22t-88 54.5t-79 90.5t-55.5 137t-22 188
q0 168 61 295t150 202zM492 766v-690q63 6 111 46t75 101.5t40 131.5t13 147q0 174 -56.5 288.5t-113.5 114.5q-33 0 -51 -30t-18 -109z" />
    <glyph glyph-name="chi" unicode="&#x3c7;" horiz-adv-x="624" 
d="M31 983h92l184 -567h6q21 78 68 211l125 356h90l-244 -659l246 -703l-82 -27l-215 648h-4q-22 -104 -76 -269l-127 -379l-80 25l244 711z" />
    <glyph glyph-name="psi" unicode="&#x3c8;" horiz-adv-x="886" 
d="M406 -393v377q-32 4 -58.5 10t-59 20.5t-58 35t-51 55t-42 79.5t-27 110t-10.5 144v324q0 172 -10 221h82q16 -46 16 -197v-305q0 -152 28.5 -246t74 -132t115.5 -48v1133h88v-1133q59 7 103.5 53.5t70 121.5t37.5 164.5t12 193.5q0 139 -14.5 244.5t-30.5 150.5h82
q21 -49 37 -154.5t16 -222.5q0 -283 -78.5 -445t-234.5 -177v-377h-88z" />
    <glyph glyph-name="omega" unicode="&#x3c9;" horiz-adv-x="972" 
d="M528 653v-393q0 -37 12.5 -81t43 -81t71.5 -37q69 0 111.5 107.5t42.5 306.5q0 162 -42.5 293.5t-100.5 210.5v4h84q60 -55 105.5 -195.5t45.5 -306.5q0 -237 -70.5 -367t-181.5 -130q-107 0 -160 145h-6q-20 -65 -65.5 -105t-112.5 -40q-97 0 -165 117.5t-68 361.5
q0 175 47 318t102 202h84v-4q-59 -75 -99 -202.5t-40 -305.5q0 -205 43.5 -307.5t112.5 -102.5q40 0 69 34.5t41 78t12 86.5v393h84z" />
    <glyph glyph-name="iotadieresis" unicode="&#x3ca;" horiz-adv-x="329" 
d="M20 1145h-2q-29 0 -49 19.5t-20 47.5q0 29 20 48.5t51 19.5q28 0 47 -19.5t19 -48.5q0 -28 -19 -47.5t-47 -19.5zM313 1145h-2q-29 0 -49 19.5t-20 47.5q0 29 20 48.5t51 19.5q28 0 47 -19.5t19 -48.5q0 -28 -19 -47.5t-47 -19.5zM209 983v-825q0 -57 14.5 -78t57.5 -21
l-11 -73q-14 -2 -34 -2q-51 0 -83 36.5t-32 135.5v827h88z" />
    <glyph glyph-name="upsilondieresis" unicode="&#x3cb;" horiz-adv-x="700" 
d="M186 1145h-2q-29 0 -49 19.5t-20 47.5q0 29 20 48.5t51 19.5q28 0 47 -19.5t19 -48.5q0 -28 -19 -47.5t-47 -19.5zM479 1145h-2q-29 0 -49 19.5t-20 47.5q0 29 20 48.5t51 19.5q28 0 47 -19.5t19 -48.5q0 -28 -19 -47.5t-47 -19.5zM465 983h86q30 -62 50 -175.5
t20 -240.5q0 -583 -285 -583q-105 0 -166 70t-61 198v379q0 292 -19 352h84q23 -37 23 -197v-507q0 -110 41 -165t102 -55q102 0 147 123t45 365q0 138 -18.5 254.5t-48.5 181.5z" />
    <glyph glyph-name="omicrontonos" unicode="&#x3cc;" horiz-adv-x="724" 
d="M379 1366h92l-106 -270h-56zM358 -16h-2q-43 0 -83 17.5t-77 57.5t-64 97.5t-43.5 144t-16.5 191.5q0 131 24.5 231t67.5 159t95 88t112 29q54 0 103 -29t90 -87.5t65 -159.5t24 -231q0 -131 -24.5 -231.5t-67 -159t-94 -88t-109.5 -29.5zM362 61h3q59 0 100 43t60.5 114
t27.5 137.5t8 136.5q0 54 -4.5 106.5t-17.5 113.5t-34.5 105.5t-58.5 74.5t-86 30q-59 0 -100 -43t-60.5 -113.5t-27.5 -137t-8 -136.5q0 -55 4 -107t17.5 -113t34 -106t57.5 -75t85 -30z" />
    <glyph glyph-name="upsilontonos" unicode="&#x3cd;" horiz-adv-x="700" 
d="M365 1366h92l-107 -270h-55zM465 983h86q30 -62 50 -175.5t20 -240.5q0 -583 -285 -583q-105 0 -166 70t-61 198v379q0 292 -19 352h84q23 -37 23 -197v-507q0 -110 41 -165t102 -55q102 0 147 123t45 365q0 138 -18.5 254.5t-48.5 181.5z" />
    <glyph glyph-name="omegatonos" unicode="&#x3ce;" horiz-adv-x="972" 
d="M526 1366h92l-106 -270h-55zM528 653v-393q0 -37 12.5 -81t43 -81t71.5 -37q69 0 111.5 107.5t42.5 306.5q0 162 -42.5 293.5t-100.5 210.5v4h84q60 -55 105.5 -195.5t45.5 -306.5q0 -237 -70.5 -367t-181.5 -130q-107 0 -160 145h-6q-20 -65 -65.5 -105t-112.5 -40
q-97 0 -165 117.5t-68 361.5q0 175 47 318t102 202h84v-4q-59 -75 -99 -202.5t-40 -305.5q0 -205 43.5 -307.5t112.5 -102.5q40 0 69 34.5t41 78t12 86.5v393h84z" />
    <glyph glyph-name="afii10023" unicode="&#x401;" horiz-adv-x="673" 
d="M580 764v-78h-365v-608h418v-78h-506v1380h479v-77h-391v-539h365zM215 1497h-2q-30 0 -48 19.5t-18 54.5q0 33 19 53.5t49 20.5q33 0 50.5 -20.5t17.5 -53.5q0 -74 -68 -74zM518 1497h-2q-30 0 -47.5 19.5t-17.5 54.5q0 33 18.5 53.5t48.5 20.5q33 0 50.5 -20.5
t17.5 -53.5q0 -74 -68 -74z" />
    <glyph glyph-name="afii10051" unicode="&#x402;" horiz-adv-x="929" 
d="M37 1380h659v-77h-315v-474h4q79 56 172 56q70 0 134 -42.5t108 -127.5q31 -60 47 -133t19 -121t3 -117q0 -128 -31 -246.5t-89 -195.5q-82 -111 -191 -154l-29 66q109 49 177 172q73 136 73 368q0 206 -57 320q-30 61 -81 96t-112 35q-74 0 -147 -51v-754h-88v1303h-256
v77z" />
    <glyph glyph-name="afii10052" unicode="&#x403;" horiz-adv-x="643" 
d="M127 1380h481v-77h-393v-1303h-88v1380zM459 1669h133l-258 -215h-84z" />
    <glyph glyph-name="afii10053" unicode="&#x404;" horiz-adv-x="763" 
d="M690 1362l-28 -74q-52 25 -119 25q-83 0 -150.5 -38.5t-109 -98t-69.5 -136.5t-39 -148.5t-11 -139.5h442v-76h-442q0 -59 7.5 -122t24 -133.5t46 -132t69 -111.5t98.5 -79.5t130 -29.5q81 0 159 28l21 -69q-89 -39 -178 -39q-104 0 -186 41.5t-133.5 109.5t-85.5 163
t-48 194t-14 209q0 95 13.5 186.5t48 184t86.5 161.5t136 112.5t189 43.5q72 0 143 -31z" />
    <glyph glyph-name="afii10054" unicode="&#x405;" horiz-adv-x="696" 
d="M63 51l31 74q33 -23 84 -40t96 -17q117 0 186.5 77t69.5 205q0 100 -48 176t-136 150q-8 7 -39 31t-55 44t-57 55.5t-55 70t-38 82.5t-16 98q0 148 93.5 242t228.5 94q56 0 104.5 -16t73.5 -36l-35 -75q-62 47 -158 47q-103 0 -160 -70.5t-57 -161.5q0 -47 10.5 -86.5
t24.5 -67.5t43 -58t52 -49t64 -51q11 -8 17 -13q120 -95 177 -189.5t57 -210.5q0 -167 -99.5 -267.5t-245.5 -100.5q-61 0 -123 19.5t-90 43.5z" />
    <glyph glyph-name="afii10055" unicode="&#x406;" horiz-adv-x="346" 
d="M127 1380h88v-1380h-88v1380z" />
    <glyph glyph-name="afii10056" unicode="&#x407;" horiz-adv-x="346" 
d="M127 1380h88v-1380h-88v1380zM23 1497h-3q-30 0 -47.5 19.5t-17.5 54.5q0 33 19 53.5t49 20.5q33 0 50 -20t17 -54q0 -74 -67 -74zM326 1497h-2q-30 0 -48 19.5t-18 54.5q0 33 19 53.5t49 20.5q33 0 50 -20t17 -54q0 -74 -67 -74z" />
    <glyph glyph-name="afii10057" unicode="&#x408;" horiz-adv-x="501" 
d="M299 360v1020h88v-1024q0 -192 -67.5 -282t-215.5 -90q-50 0 -81 10l8 76q31 -7 67 -7q53 0 88 12.5t62 44.5t39 91t12 149z" />
    <glyph glyph-name="afii10058" unicode="&#x409;" horiz-adv-x="1202" 
d="M162 1380h473v-571q53 6 102 6q185 0 293.5 -108.5t108.5 -292.5q0 -173 -90 -283q-112 -137 -324 -137q-116 0 -178 12v1297h-301v-539q0 -110 -1.5 -183.5t-6.5 -158.5t-15 -142.5t-26.5 -113t-42 -92.5t-60.5 -60q-41 -26 -90 -26l-16 71q38 10 65 31q60 50 84.5 202
t24.5 453v635zM635 731v-655q41 -8 92 -8q151 0 235.5 95t84.5 249q0 146 -89 235.5t-235 89.5q-39 0 -88 -6z" />
    <glyph glyph-name="afii10059" unicode="&#x40a;" horiz-adv-x="1296" 
d="M127 1380h88v-596h422v596h88v-581q53 6 102 6q185 0 293.5 -104t108.5 -287q0 -173 -90 -283q-112 -137 -324 -137q-116 0 -178 12v701h-422v-707h-88v1380zM725 721v-645q41 -8 92 -8q151 0 235.5 95t84.5 249q0 146 -88 230.5t-236 84.5q-39 0 -88 -6z" />
    <glyph glyph-name="afii10060" unicode="&#x40b;" horiz-adv-x="954" 
d="M37 1380h649v-77h-305v-502h4q106 73 207 73q107 0 170 -69q80 -89 80 -244v-561h-88v532q0 137 -45 201q-47 66 -136 66q-87 0 -192 -74v-725h-88v1303h-256v77z" />
    <glyph glyph-name="afii10061" unicode="&#x40c;" horiz-adv-x="720" 
d="M127 1380h88v-643h33l338 643h94l-350 -651q55 -8 98 -31.5t71.5 -54.5t51 -76.5t35 -88.5t24.5 -99q5 -25 22.5 -118t32.5 -151t35 -110h-92q-12 30 -24 77.5t-19.5 86t-20 102t-18.5 92.5q-12 58 -24 98.5t-34 83.5t-50.5 69t-73 42.5t-102.5 16.5h-27v-668h-88v1380z
M498 1659h133l-258 -215h-84z" />
    <glyph glyph-name="afii10062" unicode="&#x40e;" horiz-adv-x="720" 
d="M31 1380h96l188 -585q44 -138 74 -252h6q10 37 30.5 124t31.5 130l143 583h90l-141 -538q-2 -7 -31 -122t-47 -177.5t-54.5 -167t-74.5 -182.5q-47 -97 -112 -154t-136 -57q-30 0 -51 6l4 71q10 -2 29 -2q48 0 92.5 34t76.5 88.5t53.5 106t35.5 103.5q10 38 -2 78z
M147 1585h82q27 -112 131 -112q107 0 129 112h84q-14 -86 -65 -131t-148 -45q-95 0 -148.5 45.5t-64.5 130.5z" />
    <glyph glyph-name="afii10145" unicode="&#x40f;" horiz-adv-x="870" 
d="M127 1380h88v-1302h442v1302h88v-1380h-264l-8 -276h-76l-8 276h-262v1380z" />
    <glyph glyph-name="afii10017" unicode="&#x410;" horiz-adv-x="862" 
d="M600 475h-342l-111 -475h-86l326 1380h84l330 -1380h-90zM276 551h304l-88 389q-35 148 -62 315h-8q-19 -137 -60 -317z" />
    <glyph glyph-name="afii10018" unicode="&#x411;" horiz-adv-x="784" 
d="M127 1380h510v-80h-422v-491q53 6 102 6q188 0 295 -110t107 -291q0 -177 -90 -287q-108 -133 -324 -133q-116 0 -178 12v1374zM215 731v-655q41 -8 92 -8q165 0 250 112q70 92 70 232q0 141 -84 231q-91 94 -240 94q-39 0 -88 -6z" />
    <glyph glyph-name="afii10019" unicode="&#x412;" horiz-adv-x="765" 
d="M127 6v1354q89 26 184 26q186 0 277 -94q82 -82 82 -227q0 -112 -58.5 -191.5t-160.5 -117.5v-4q123 -31 192.5 -126t69.5 -241q0 -162 -97 -274q-101 -117 -311 -117q-116 0 -178 12zM215 1300v-518h82q114 0 197.5 77.5t83.5 197.5q0 254 -271 254q-55 0 -92 -11z
M215 711v-633q40 -8 92 -8q149 0 231.5 82t82.5 233q0 157 -95 240.5t-235 85.5h-76z" />
    <glyph glyph-name="afii10020" unicode="&#x413;" horiz-adv-x="643" 
d="M127 1380h481v-77h-393v-1303h-88v1380z" />
    <glyph glyph-name="afii10021" unicode="&#x414;" horiz-adv-x="888" 
d="M274 1380h461v-1302h82l-6 -354h-76l-8 276h-616l-9 -276h-75l-7 354h89q84 203 122 403q43 233 43 611v288zM356 1303v-238q0 -369 -41 -600q-33 -180 -116 -387h448v1225h-291z" />
    <glyph glyph-name="afii10022" unicode="&#x415;" horiz-adv-x="673" 
d="M580 764v-78h-365v-608h418v-78h-506v1380h479v-77h-391v-539h365z" />
    <glyph glyph-name="afii10024" unicode="&#x416;" horiz-adv-x="1067" 
d="M35 1380h94l326 -649h34v649h89v-649h36l324 649h94l-344 -651q62 -10 108.5 -41.5t76.5 -82t48 -103t33 -123.5q7 -32 19 -93.5t20 -99.5t21.5 -90.5t29.5 -95.5h-92q-16 34 -31 98t-31.5 155t-19.5 105q-12 58 -23.5 98.5t-33 84t-48.5 69.5t-69.5 43t-97.5 17h-20
v-670h-89v670h-20q-56 0 -99.5 -17t-71 -43t-49 -69.5t-33 -84t-23.5 -98.5q-3 -14 -19.5 -105t-31.5 -155t-31 -98h-88q20 56 34.5 113t32.5 151t23 115q14 70 33 123t49.5 103.5t76.5 82t107 41.5z" />
    <glyph glyph-name="afii10025" unicode="&#x417;" horiz-adv-x="757" 
d="M104 1237l-38 66q112 94 268 94q142 0 225.5 -89.5t83.5 -238.5q0 -114 -69.5 -206.5t-178.5 -129.5v-4q136 -21 214.5 -120t78.5 -238q0 -179 -101 -283t-282 -104q-68 0 -139 18t-121 53l37 76q107 -68 225 -68q136 0 213.5 83t77.5 219q0 149 -94.5 234t-245.5 85h-45
v78h33q119 0 214 92t95 211q0 115 -66.5 182.5t-175.5 67.5q-101 0 -209 -78z" />
    <glyph glyph-name="afii10026" unicode="&#x418;" horiz-adv-x="888" 
d="M127 1380h84v-610q0 -369 -14 -631h4q15 48 32.5 98t42 115t36.5 97t45.5 116t39.5 101l277 714h88v-1380h-84v582q0 456 14 669h-4q-27 -92 -55 -170.5t-72.5 -190.5t-54.5 -138l-291 -752h-88v1380z" />
    <glyph glyph-name="afii10027" unicode="&#x419;" horiz-adv-x="888" 
d="M127 1380h84v-610q0 -369 -14 -631h4q15 48 32.5 98t42 115t36.5 97t45.5 116t39.5 101l277 714h88v-1380h-84v582q0 456 14 669h-4q-27 -92 -55 -170.5t-72.5 -190.5t-54.5 -138l-291 -752h-88v1380zM231 1606h82q28 -113 131 -113q107 0 129 113h84q-14 -86 -65 -131
t-148 -45q-95 0 -148.5 45.5t-64.5 130.5z" />
    <glyph glyph-name="afii10028" unicode="&#x41a;" horiz-adv-x="720" 
d="M127 1380h88v-643h33l338 643h94l-350 -651q55 -8 98 -31.5t71.5 -54.5t51 -76.5t35 -88.5t24.5 -99q5 -25 22.5 -118t32.5 -151t35 -110h-92q-12 30 -24 77.5t-19.5 86t-20 102t-18.5 92.5q-12 58 -24 98.5t-34 83.5t-50.5 69t-73 42.5t-102.5 16.5h-27v-668h-88v1380z
" />
    <glyph glyph-name="afii10029" unicode="&#x41b;" horiz-adv-x="806" 
d="M162 1380h516v-1380h-88v1303h-344v-537q0 -97 -1 -159t-4 -141t-9 -130t-17 -107.5t-27 -93.5t-39.5 -69.5t-54.5 -51.5q-44 -26 -90 -26l-16 73q36 6 63 27q61 51 86 205.5t25 451.5v635z" />
    <glyph glyph-name="afii10030" unicode="&#x41c;" horiz-adv-x="1179" 
d="M987 0l-33 664q-20 427 -14 591h-10q-55 -265 -123 -514l-201 -741h-45l-190 705q-96 361 -131 550h-9q4 -182 -14 -608l-27 -647h-88l72 1380h102l193 -712q88 -322 119 -469h6q26 134 111 469l186 712h110l76 -1380h-90z" />
    <glyph glyph-name="afii10031" unicode="&#x41d;" horiz-adv-x="882" 
d="M127 1380h88v-616h453v616h88v-1380h-88v686h-453v-686h-88v1380z" />
    <glyph glyph-name="afii10032" unicode="&#x41e;" horiz-adv-x="868" 
d="M426 -16h-2q-70 0 -130.5 39t-111 119.5t-79.5 221t-29 326.5q0 184 30 323.5t82.5 221.5t118.5 122t144 40q55 0 104 -23.5t94 -77t77.5 -133.5t51.5 -201t19 -272q0 -186 -29.5 -326t-81.5 -221t-116.5 -120t-141.5 -39zM434 63h2q52 0 94.5 27.5t71 76.5t49 109.5
t31 133.5t15.5 140.5t5 139.5q0 111 -12.5 212t-40.5 199t-83.5 157t-131.5 59q-62 0 -110 -40t-77.5 -102.5t-48 -148t-25.5 -167t-7 -169.5q0 -111 12.5 -212t40.5 -199t83.5 -157t131.5 -59z" />
    <glyph glyph-name="afii10033" unicode="&#x41f;" horiz-adv-x="870" 
d="M127 1380h616v-1380h-88v1303h-440v-1303h-88v1380z" />
    <glyph glyph-name="afii10034" unicode="&#x420;" horiz-adv-x="743" 
d="M127 0v1360q89 26 197 26q80 0 149 -25.5t113 -72.5q92 -98 92 -276q0 -147 -64 -250q-51 -82 -135.5 -125t-183.5 -43q-55 0 -80 4v-598h-88zM215 1300v-624q30 -6 74 -6q132 0 214.5 85.5t82.5 254.5q0 62 -13.5 113.5t-43.5 95t-84.5 68t-129.5 24.5q-54 0 -100 -11z
" />
    <glyph glyph-name="afii10035" unicode="&#x421;" 
d="M668 102l24 -75q-70 -39 -192 -39q-68 0 -128 21.5t-115.5 72.5t-95.5 128.5t-63.5 196.5t-23.5 269q0 161 28.5 288.5t74 206t106 130.5t119 72t118.5 20q109 0 162 -33l-29 -78q-23 11 -36.5 16t-43.5 10t-67 5q-45 0 -90.5 -19t-91 -65t-80 -115t-56.5 -178t-22 -244
q0 -140 19.5 -249.5t52.5 -178.5t78.5 -114.5t94 -63.5t103.5 -18q92 0 154 34z" />
    <glyph glyph-name="afii10036" unicode="&#x422;" horiz-adv-x="675" 
d="M295 0v1305h-258v75h604v-75h-258v-1305h-88z" />
    <glyph glyph-name="afii10037" unicode="&#x423;" horiz-adv-x="720" 
d="M31 1380h96l188 -585q44 -138 74 -252h6q10 37 30.5 124t31.5 130l143 583h90l-141 -538q-2 -7 -31 -122t-47 -177.5t-54.5 -167t-74.5 -182.5q-47 -97 -112 -154t-136 -57q-30 0 -51 6l4 71q10 -2 29 -2q48 0 92.5 34t76.5 88.5t53.5 106t35.5 103.5q10 38 -2 78z" />
    <glyph glyph-name="afii10038" unicode="&#x424;" horiz-adv-x="931" 
d="M424 1413h88v-113q73 -5 134 -42t109 -107.5t75.5 -187t27.5 -267.5q0 -142 -22 -251.5t-56.5 -175t-82.5 -107.5t-93 -58.5t-96 -19.5v-117h-88v117q-53 5 -96.5 21t-92 57t-81.5 104.5t-54.5 172t-21.5 251.5q0 132 20.5 237t54 172t80 112t94.5 65t101 24v113z
M422 152v1081q-53 -5 -97 -36t-80.5 -93t-57.5 -169.5t-21 -250.5q0 -130 20 -229.5t55.5 -161t80.5 -96t100 -45.5zM510 1233v-1081q127 20 191.5 148t64.5 400q0 138 -23 243t-61 165t-81 90.5t-91 34.5z" />
    <glyph glyph-name="afii10039" unicode="&#x425;" horiz-adv-x="782" 
d="M731 0h-94l-150 379q-17 43 -49.5 128.5t-42.5 110.5h-6q-13 -32 -45 -116.5t-49 -124.5l-148 -377h-96l299 702l-291 678h93l151 -358q37 -81 92 -219h4q46 129 84 225l140 352h94l-277 -661z" />
    <glyph glyph-name="afii10040" unicode="&#x426;" horiz-adv-x="897" 
d="M127 1380h88v-1302h440v1302h88v-1302h82l-6 -354h-76l-8 276h-608v1380z" />
    <glyph glyph-name="afii10041" unicode="&#x427;" horiz-adv-x="815" 
d="M113 1380h88v-471q0 -266 209 -266q100 0 190 51v686h88v-1392h-88v630h-6q-112 -51 -213 -51q-119 0 -193.5 74.5t-74.5 237.5v501z" />
    <glyph glyph-name="afii10042" unicode="&#x428;" horiz-adv-x="1183" 
d="M127 1380h86v-1302h336v1302h86v-1302h336v1302h86v-1380h-930v1380z" />
    <glyph glyph-name="afii10043" unicode="&#x429;" horiz-adv-x="1210" 
d="M127 1380h86v-1302h336v1302h86v-1302h336v1302h86v-1302h82l-6 -354h-76l-8 276h-922v1380z" />
    <glyph glyph-name="afii10044" unicode="&#x42a;" horiz-adv-x="976" 
d="M35 1380h377v-571q52 6 102 6q184 0 292.5 -108.5t108.5 -292.5q0 -177 -90 -287q-108 -133 -323 -133q-116 0 -178 12v1297h-289v77zM412 731v-655q62 -8 92 -8q151 0 235 95t84 249q0 146 -88.5 235.5t-234.5 89.5q-38 0 -88 -6z" />
    <glyph glyph-name="afii10045" unicode="&#x42b;" horiz-adv-x="1079" 
d="M127 1380h88v-571q33 6 102 6q185 0 293.5 -108.5t108.5 -292.5q0 -170 -88 -281q-116 -139 -328 -139q-114 0 -176 12v1374zM215 731v-655q41 -8 90 -8q153 0 237.5 94.5t84.5 249.5q0 146 -89 235.5t-235 89.5q-51 0 -88 -6zM864 1382h88v-1382h-88v1382z" />
    <glyph glyph-name="afii10046" unicode="&#x42c;" horiz-adv-x="780" 
d="M127 1380h88v-571q33 6 102 6q185 0 293.5 -108.5t108.5 -292.5q0 -170 -88 -281q-116 -139 -328 -139q-114 0 -176 12v1374zM215 731v-655q41 -8 90 -8q148 0 235 95.5t87 248.5q0 146 -89 235.5t-235 89.5q-51 0 -88 -6z" />
    <glyph glyph-name="afii10047" unicode="&#x42d;" horiz-adv-x="768" 
d="M162 672v82h442q0 58 -6.5 116.5t-21 123.5t-41 120.5t-63 101t-91.5 71.5t-121 26q-71 0 -145 -31l-29 74q80 37 162 37q91 0 163.5 -29.5t120 -83t80.5 -118.5t50.5 -146.5t24.5 -155t7 -155.5q0 -69 -6.5 -136.5t-22.5 -139.5t-40 -135t-62 -120t-85.5 -97.5
t-113.5 -64.5t-143 -24q-92 0 -176 41l29 73q70 -34 159 -34q70 0 128.5 29t98 78.5t68.5 110.5t45 131t23.5 132.5t7.5 122.5h-442z" />
    <glyph glyph-name="afii10048" unicode="&#x42e;" horiz-adv-x="1144" 
d="M127 1380h88v-612h168q6 164 37 288t80 196.5t109 108.5t130 36q66 0 123.5 -39t105 -119t75.5 -221t28 -328q0 -186 -28.5 -326t-79 -221t-112 -120t-134.5 -39q-53 0 -101 23.5t-91 77t-74 133.5t-49.5 201t-18.5 271h-168v-690h-88v1380zM725 63h2q49 0 89 27.5
t67 76.5t46 109.5t30 133.5t15.5 141t4.5 139q0 110 -12 212t-39 199.5t-79 156.5t-124 59t-124 -58.5t-79 -155.5t-39 -199.5t-12 -213.5q0 -110 12 -212t39 -199.5t79 -156.5t124 -59z" />
    <glyph glyph-name="afii10049" unicode="&#x42f;" horiz-adv-x="755" 
d="M119 0h-90q26 58 43 139q7 29 26 145.5t41.5 188t61.5 121.5q47 60 108 72v4q-102 32 -166.5 117t-64.5 223q0 99 37 179t104 128q95 69 227 69q117 0 183 -24v-1362h-88v633h-76q-124 0 -184 -70q-37 -43 -59 -114.5t-41 -185.5t-25 -142q-21 -87 -37 -121zM541 705v595
q-46 11 -101 11q-132 0 -201 -82t-69 -219q0 -141 86 -224.5t217 -83.5q31 0 68 3z" />
    <glyph glyph-name="afii10065" unicode="&#x430;" horiz-adv-x="671" 
d="M551 686v-465q0 -160 8 -221h-82l-8 109h-6q-61 -125 -184 -125q-93 0 -155.5 73.5t-62.5 196.5q0 87 31 154.5t86.5 109.5t127.5 63.5t157 22.5v37q0 68 -6.5 115.5t-24.5 87t-52.5 59t-86.5 19.5q-74 0 -139 -48l-25 68q26 23 77.5 40t104.5 17q109 0 174.5 -73.5
t65.5 -239.5zM463 311v217q-23 0 -41.5 -1t-52.5 -6.5t-60 -15.5t-56.5 -30t-51 -47.5t-34 -70.5t-13.5 -97q0 -102 40.5 -150.5t96.5 -48.5q64 0 109.5 49.5t58.5 137.5q4 23 4 63z" />
    <glyph glyph-name="afii10066" unicode="&#x431;" horiz-adv-x="712" 
d="M586 1434l-2 -82q-20 -8 -89 -25.5t-106 -30.5q-109 -36 -164 -172q-47 -111 -67 -307h4q23 70 81.5 118t131.5 48q44 0 82.5 -15t73 -51t58.5 -90.5t38 -137.5t14 -189q0 -139 -21 -241.5t-59 -161t-86 -86t-108 -27.5q-50 0 -91.5 20t-70.5 54t-51 82t-35.5 99.5
t-22 112t-11.5 113.5t-3 110q0 394 82 582q37 92 91 144.5t130 76.5q29 10 101 26.5t100 29.5zM549 483v2q0 69 -7.5 134t-26 133.5t-58 110.5t-95.5 42q-107 0 -155 -117q-37 -88 -37 -231q0 -36 2.5 -77t9 -101t20.5 -113t34.5 -101t54.5 -76t76 -28q54 0 92.5 42
t56.5 111.5t25.5 134.5t7.5 134z" />
    <glyph glyph-name="afii10067" unicode="&#x432;" horiz-adv-x="735" 
d="M121 -6v987q95 18 180 18q49 0 93.5 -7t87.5 -25t74 -44.5t50 -69t19 -95.5q0 -83 -54 -148t-145 -90v-2q110 -19 175 -85t65 -171q0 -75 -31.5 -131t-85.5 -87t-117 -45.5t-135 -14.5q-109 0 -176 10zM211 913v-360h78q51 0 107 22.5t97.5 69t41.5 103.5q0 174 -236 174
q-23 0 -88 -9zM209 477v-411q63 -7 88 -7q56 0 102.5 10t87 32.5t63.5 64t23 98.5t-26 99.5t-70 66.5t-94 35.5t-104 11.5h-70z" />
    <glyph glyph-name="afii10068" unicode="&#x433;" horiz-adv-x="552" 
d="M121 983h403v-80h-315v-903h-88v983z" />
    <glyph glyph-name="afii10069" unicode="&#x434;" horiz-adv-x="774" 
d="M223 983h410v-905h78l-9 -334h-69l-8 256h-529l-8 -256h-70l-8 334h56q66 103 104 215q53 168 53 391v299zM303 905v-182q0 -283 -53 -447q-37 -114 -90 -198h385v827h-242z" />
    <glyph glyph-name="afii10070" unicode="&#x435;" horiz-adv-x="671" 
d="M612 528h-450q0 -462 248 -462q92 0 147 38l21 -67q-70 -49 -185 -49q-157 0 -239 134.5t-82 364.5q0 234 79 373t214 139q69 0 120 -39t77 -103.5t38 -131.5t12 -139v-58zM164 600h354q1 86 -14.5 151.5t-41.5 101t-54.5 52.5t-57.5 17q-55 0 -96.5 -48.5t-63 -119.5
t-26.5 -154z" />
    <glyph glyph-name="afii10072" unicode="&#x436;" horiz-adv-x="1017" 
d="M37 983h106l295 -451h29v451h84v-451h31l292 451h107l-322 -457q101 -13 166 -87t93 -185q51 -202 77 -254h-88q-32 58 -69 205q-39 149 -104 204.5t-169 55.5h-14v-465h-84v465h-14q-55 0 -93.5 -10t-65.5 -27.5t-48.5 -54t-36 -75.5t-35.5 -108q-5 -17 -15 -52
t-15.5 -52.5t-15 -42t-19.5 -43.5h-86q15 31 27 69t27 92t23 81q36 120 97.5 195t162.5 89z" />
    <glyph glyph-name="afii10073" unicode="&#x437;" horiz-adv-x="641" 
d="M178 473v76h35q82 0 155.5 57t73.5 148q0 84 -47.5 127t-120.5 43q-83 0 -174 -54l-26 60q92 69 213 69q101 0 172 -62.5t71 -178.5q0 -88 -56 -151.5t-142 -88.5v-2q105 -14 171 -79t66 -173q0 -70 -28.5 -125.5t-76 -88t-103.5 -49.5t-117 -17q-120 0 -211 55l30 72
q88 -54 181 -54q98 0 167.5 60t69.5 143q0 57 -23.5 100t-62.5 67t-83.5 35t-92.5 11h-41z" />
    <glyph glyph-name="afii10074" unicode="&#x438;" horiz-adv-x="772" 
d="M121 983h84v-416q0 -326 -10 -483h4q30 87 96.5 257.5t71.5 184.5l174 457h110v-983h-84v391q0 299 15 504h-4q-36 -123 -134 -379q-102 -263 -215 -516h-108v983z" />
    <glyph glyph-name="afii10075" unicode="&#x439;" horiz-adv-x="772" 
d="M121 983h84v-416q0 -326 -10 -483h4q30 87 96.5 257.5t71.5 184.5l174 457h110v-983h-84v391q0 299 15 504h-4q-36 -123 -134 -379q-102 -263 -215 -516h-108v983zM172 1354h78q19 -148 139 -148q118 0 137 148h78q-18 -118 -71.5 -164.5t-143.5 -46.5t-144.5 47
t-72.5 164z" />
    <glyph glyph-name="afii10076" unicode="&#x43a;" horiz-adv-x="690" 
d="M121 983h88v-448h18l314 448h110l-342 -455q202 -20 281 -278q9 -29 23.5 -80.5t27 -93t27.5 -76.5h-95q-11 29 -22.5 66t-25.5 83.5t-23 73.5q-38 127 -98.5 184.5t-180.5 57.5h-14v-465h-88v983z" />
    <glyph glyph-name="afii10077" unicode="&#x43b;" horiz-adv-x="716" 
d="M160 983h436v-983h-88v907h-260v-375q0 -241 -27.5 -360.5t-116.5 -163.5q-38 -18 -86 -18l-18 69q43 5 80 31q50 38 65 137.5t15 292.5v463z" />
    <glyph glyph-name="afii10078" unicode="&#x43c;" horiz-adv-x="1032" 
d="M86 0l66 983h96l164 -506q65 -201 102 -330h4q40 146 98 330l160 506h101l69 -983h-86l-24 473q-13 255 -17 412h-6q-42 -162 -106 -361l-168 -524h-54l-159 496q-80 251 -113 389h-6q0 -134 -14 -424l-23 -461h-84z" />
    <glyph glyph-name="afii10079" unicode="&#x43d;" horiz-adv-x="763" 
d="M121 983h88v-444h346v444h88v-983h-88v461h-346v-461h-88v983z" />
    <glyph glyph-name="afii10080" unicode="&#x43e;" horiz-adv-x="724" 
d="M358 -16h-2q-43 0 -83 17.5t-77 57.5t-64 97.5t-43.5 144t-16.5 191.5q0 131 24.5 231t67.5 159t95 88t112 29q54 0 103 -29t90 -87.5t65 -159.5t24 -231q0 -131 -24.5 -231.5t-67 -159t-94 -88t-109.5 -29.5zM362 61h3q59 0 100 43t60.5 114t27.5 137.5t8 136.5
q0 54 -4.5 106.5t-17.5 113.5t-34.5 105.5t-58.5 74.5t-86 30q-59 0 -100 -43t-60.5 -113.5t-27.5 -137t-8 -136.5q0 -55 4 -107t17.5 -113t34 -106t57.5 -75t85 -30z" />
    <glyph glyph-name="afii10081" unicode="&#x43f;" horiz-adv-x="749" 
d="M121 983h508v-983h-88v905h-332v-905h-88v983z" />
    <glyph glyph-name="afii10082" unicode="&#x440;" horiz-adv-x="755" 
d="M119 -393v1073q0 91 -8 303h84l4 -131h4q74 147 209 147q117 0 194.5 -126t77.5 -377q0 -135 -25.5 -237.5t-68.5 -160.5t-93.5 -86t-107.5 -28q-123 0 -178 125h-4v-502h-88zM207 606v-244q0 -52 4 -79q13 -67 36 -114t49.5 -69t49 -30.5t45.5 -8.5q56 0 96 35t62.5 97
t32.5 136t10 163q0 85 -11 158.5t-33.5 136.5t-64 99t-96.5 36q-66 0 -119 -74t-59 -164q-2 -27 -2 -78z" />
    <glyph glyph-name="afii10083" unicode="&#x441;" horiz-adv-x="591" 
d="M539 96l20 -67q-64 -41 -160 -41q-149 0 -238 130.5t-89 370.5q0 137 38.5 251t120 186.5t191.5 72.5q82 0 135 -34l-29 -78q-55 33 -120 33q-63 0 -112 -38.5t-76.5 -103t-41.5 -139.5t-14 -156q0 -196 67.5 -306.5t184.5 -110.5q65 0 123 30z" />
    <glyph glyph-name="afii10084" unicode="&#x442;" horiz-adv-x="583" 
d="M20 983h543v-78h-227v-905h-88v905h-228v78z" />
    <glyph glyph-name="afii10085" unicode="&#x443;" horiz-adv-x="651" 
d="M37 983h90l152 -598q13 -50 28 -126.5t21 -100.5h4q6 31 25 109.5t28 117.5l139 598h90l-135 -551q-32 -133 -54.5 -215t-55 -186t-70 -181.5t-80.5 -136.5q-74 -102 -147 -145l-45 74q77 51 145 149q63 93 92 197q10 36 10 53q0 25 -4 37z" />
    <glyph glyph-name="afii10086" unicode="&#x444;" horiz-adv-x="878" 
d="M397 1417h84v-420q145 -13 235.5 -138t90.5 -367q0 -240 -89.5 -365t-236.5 -139v-381h-84v381q-145 11 -235 136.5t-90 367.5q0 238 89 362.5t236 140.5v422zM397 61v861q-64 -10 -111.5 -52.5t-73 -105.5t-37 -130.5t-11.5 -141.5q0 -71 11 -137.5t36 -130.5t72.5 -108
t113.5 -55zM481 922v-861q53 9 94.5 40t67.5 73t42.5 97.5t23 109t6.5 111.5q0 75 -11 141.5t-36.5 129.5t-73 105.5t-113.5 53.5z" />
    <glyph glyph-name="afii10087" unicode="&#x445;" horiz-adv-x="624" 
d="M39 983h94l111 -233q16 -32 75 -177h5q17 43 77 177l107 233h96l-242 -485l236 -498h-96l-111 246q-19 40 -76 180h-4q-21 -55 -78 -180l-110 -246h-94l243 498z" />
    <glyph glyph-name="afii10088" unicode="&#x446;" horiz-adv-x="770" 
d="M121 983h88v-905h332v905h88v-905h78l-9 -334h-69l-8 256h-500v983z" />
    <glyph glyph-name="afii10089" unicode="&#x447;" horiz-adv-x="735" 
d="M104 983h89v-387q0 -45 6.5 -78.5t22.5 -62t48.5 -43.5t79.5 -15q84 0 176 56v530h88v-983h-88v377h-4q-83 -55 -190 -55q-101 0 -164.5 60t-63.5 185v416z" />
    <glyph glyph-name="afii10090" unicode="&#x448;" horiz-adv-x="1116" 
d="M121 983h88v-905h305v905h88v-905h305v905h88v-983h-874v983z" />
    <glyph glyph-name="afii10091" unicode="&#x449;" horiz-adv-x="1136" 
d="M121 983h88v-905h305v905h88v-905h305v905h88v-905h78l-8 -334h-70l-8 256h-866v983z" />
    <glyph glyph-name="afii10092" unicode="&#x44a;" horiz-adv-x="868" 
d="M29 983h333v-369q18 1 48.5 4t42.5 3q155 0 256.5 -78.5t101.5 -227.5q0 -146 -98 -231q-108 -94 -273 -94q-70 0 -166 14v903h-245v76zM362 539v-463q58 -8 80 -8q121 0 198 61.5t77 179.5q0 119 -79 177.5t-204 58.5q-38 0 -72 -6z" />
    <glyph glyph-name="afii10093" unicode="&#x44b;" horiz-adv-x="954" 
d="M121 983h88v-369q28 7 90 7q145 0 241.5 -81.5t96.5 -224.5q0 -146 -98 -231q-51 -45 -118.5 -69.5t-133.5 -24.5q-70 0 -166 14v979zM209 539v-463q39 -8 80 -8q109 0 181.5 66.5t72.5 174.5q0 112 -73.5 174t-188.5 62q-37 0 -72 -6zM754 983h80v-983h-80v983z" />
    <glyph glyph-name="afii10094" unicode="&#x44c;" horiz-adv-x="714" 
d="M121 983h88v-369q19 1 48.5 4t41.5 3q155 0 256.5 -78.5t101.5 -227.5q0 -146 -98 -231q-108 -94 -272 -94q-70 0 -166 14v979zM209 539v-465q44 -6 80 -6q121 0 197.5 61.5t76.5 179.5q0 119 -78.5 177.5t-203.5 58.5q-37 0 -72 -6z" />
    <glyph glyph-name="afii10095" unicode="&#x44d;" horiz-adv-x="600" 
d="M102 469v74h334q0 53 -7 103.5t-25 101.5t-45.5 88.5t-72 61.5t-100.5 24q-49 0 -114 -27l-17 63q24 18 67 29.5t85 11.5q75 0 140.5 -40t105.5 -109q75 -131 75 -352q0 -89 -18 -173.5t-55.5 -162.5t-108 -126t-164.5 -48q-93 0 -149 41l24 67q48 -30 133 -30
q106 0 177 113.5t71 289.5h-336z" />
    <glyph glyph-name="afii10096" unicode="&#x44e;" horiz-adv-x="964" 
d="M121 983h86v-434h141q10 227 88 338.5t189 111.5q50 0 96.5 -29t85.5 -87.5t62.5 -159.5t23.5 -231q0 -105 -15.5 -191.5t-42.5 -144t-63 -97.5t-75.5 -57.5t-82.5 -17.5q-108 0 -185.5 123t-80.5 366h-141v-473h-86v983zM618 61h3q54 0 92 43t56.5 114t26 137.5
t7.5 136.5q0 54 -4 107t-17 113t-32.5 105t-54 75t-79.5 30q-54 0 -92 -43t-56.5 -113.5t-26 -137t-7.5 -136.5q0 -54 4 -107t16.5 -113.5t32 -105.5t53.5 -75t78 -30z" />
    <glyph glyph-name="afii10097" unicode="&#x44f;" horiz-adv-x="704" 
d="M584 981v-981h-88v444h-62q-128 0 -186 -65q-27 -31 -43 -74.5t-32 -119t-26 -111.5q-14 -49 -26 -74h-96q30 58 41 98q7 24 23 101t35.5 129t51.5 88q51 54 123 63v4q-90 16 -150.5 78.5t-60.5 163.5q0 125 92 201q39 33 103 53t131 20q96 0 170 -18zM496 516v404
q-33 8 -76 8q-101 0 -171.5 -49.5t-70.5 -151.5q0 -67 37.5 -116.5t91 -72t111.5 -22.5h78z" />
    <glyph glyph-name="afii10071" unicode="&#x451;" horiz-adv-x="671" 
d="M612 528h-450q0 -462 248 -462q92 0 147 38l21 -67q-70 -49 -185 -49q-157 0 -239 134.5t-82 364.5q0 234 79 373t214 139q69 0 120 -39t77 -103.5t38 -131.5t12 -139v-58zM164 600h354q1 86 -14.5 151.5t-41.5 101t-54.5 52.5t-57.5 17q-55 0 -96.5 -48.5t-63 -119.5
t-26.5 -154zM221 1165h-2q-29 0 -49 20t-20 48q0 29 20 48t51 19q28 0 47 -19t19 -48q0 -28 -19 -48t-47 -20zM512 1165h-2q-29 0 -49.5 20t-20.5 48q0 29 20.5 48t51.5 19q28 0 47 -19t19 -48q0 -28 -19 -48t-47 -20z" />
    <glyph glyph-name="afii10099" unicode="&#x452;" horiz-adv-x="786" 
d="M37 1241h104v176h88v-176h371v-78h-371v-291h4q33 57 88 92t119 35q155 0 219 -170q50 -127 50 -376q0 -182 -26 -317.5t-95 -235.5q-36 -54 -94.5 -95t-106.5 -49l-25 70q32 7 73 33t71 67q112 157 112 512q0 77 -2 126t-13.5 117.5t-33.5 123.5q-49 119 -147 119
q-79 0 -133 -82q-29 -43 -44.5 -100t-15.5 -105v-637h-88v1163h-104v78z" />
    <glyph glyph-name="afii10100" unicode="&#x453;" horiz-adv-x="552" 
d="M121 983h403v-80h-315v-903h-88v983zM422 1386h117l-220 -270h-65z" />
    <glyph glyph-name="afii10101" unicode="&#x454;" horiz-adv-x="624" 
d="M586 956l-31 -67q-59 33 -121 33q-58 0 -105 -24.5t-76.5 -63t-50 -89.5t-29 -101t-9.5 -101h354v-74h-356q0 -179 74 -291t194 -112q32 0 69.5 9.5t59.5 22.5l27 -67q-69 -43 -168 -43q-77 0 -138.5 32t-99.5 83t-63 119.5t-35 136.5t-10 139q0 73 12 142t39.5 135
t68.5 115t104.5 79t141.5 30q92 0 148 -43z" />
    <glyph glyph-name="afii10102" unicode="&#x455;" horiz-adv-x="548" 
d="M49 45l33 72q73 -51 147 -51q77 0 123.5 48.5t46.5 129.5q0 70 -28.5 122t-104.5 107q-48 34 -78 59.5t-60.5 60.5t-45 74t-14.5 85q0 109 71 178t168 69q90 0 160 -53l-39 -72q-61 48 -127 48q-67 0 -106 -45.5t-39 -106.5t26.5 -102.5t100.5 -96.5q38 -28 58.5 -43.5
t53.5 -47.5t50 -59.5t30.5 -68t13.5 -84.5q0 -93 -38.5 -158t-96.5 -93.5t-129 -28.5q-109 0 -176 57z" />
    <glyph glyph-name="afii10103" unicode="&#x456;" horiz-adv-x="329" 
d="M209 0h-88v983h88v-983zM164 1159h-2q-28 0 -46 20.5t-18 55.5q0 34 18.5 55t47.5 21q33 0 50 -20.5t17 -55.5q0 -76 -67 -76z" />
    <glyph glyph-name="afii10104" unicode="&#x457;" horiz-adv-x="329" 
d="M209 0h-88v983h88v-983zM23 1165h-3q-29 0 -49 20t-20 48q0 29 20.5 48t51.5 19q28 0 46.5 -19t18.5 -48q0 -28 -19 -48t-46 -20zM313 1165h-2q-29 0 -49 20t-20 48q0 29 20 48t51 19q28 0 47 -19t19 -48q0 -28 -19 -48t-47 -20z" />
    <glyph glyph-name="afii10105" unicode="&#x458;" horiz-adv-x="339" 
d="M-25 -410l-20 72q100 31 135 90q27 47 38 120.5t11 225.5v885h88v-926q0 -150 -17 -230t-63 -138q-35 -42 -85.5 -69t-86.5 -30zM184 1159h-2q-29 0 -47 20.5t-18 55.5q0 34 18 55t49 21q32 0 49 -20.5t17 -55.5q0 -36 -17 -56t-49 -20z" />
    <glyph glyph-name="afii10106" unicode="&#x459;" horiz-adv-x="1107" 
d="M160 983h442v-369q19 1 48.5 4t41.5 3q100 0 179 -32t129.5 -102.5t50.5 -171.5q0 -145 -99 -231q-108 -94 -272 -94q-70 0 -166 14v903h-266v-375q0 -245 -27.5 -362.5t-116.5 -161.5q-41 -18 -86 -18l-18 69q43 5 80 31q50 38 65 136t15 294v463zM602 539v-463
q58 -8 80 -8q121 0 197.5 61.5t76.5 179.5q0 119 -78.5 177.5t-203.5 58.5q-38 0 -72 -6z" />
    <glyph glyph-name="afii10107" unicode="&#x45a;" horiz-adv-x="1132" 
d="M121 983h88v-401h330v401h88v-383q17 1 47.5 3.5t42.5 2.5q72 0 135.5 -18.5t114 -54t79.5 -94.5t29 -134q0 -140 -98 -225q-107 -90 -272 -90q-83 0 -166 12v504h-330v-506h-88v983zM627 524v-448q58 -8 90 -8q111 0 187.5 60.5t76.5 174.5q0 115 -81 171t-202 56
q-36 0 -71 -6z" />
    <glyph glyph-name="afii10108" unicode="&#x45b;" horiz-adv-x="782" 
d="M37 1241h104v176h88v-176h371v-78h-371v-286h4q32 56 82 88q52 34 129 34q29 0 57.5 -8.5t58 -30.5t52 -56t36.5 -90.5t14 -127.5v-686h-89v657q0 267 -155 267q-77 0 -123.5 -57.5t-61.5 -139.5q-4 -25 -4 -88v-639h-88v1163h-104v78z" />
    <glyph glyph-name="afii10109" unicode="&#x45c;" horiz-adv-x="690" 
d="M121 983h88v-448h18l314 448h110l-342 -455q202 -20 281 -278q9 -29 23.5 -80.5t27 -93t27.5 -76.5h-95q-11 29 -22.5 66t-25.5 83.5t-23 73.5q-38 127 -98.5 184.5t-180.5 57.5h-14v-465h-88v983zM442 1386h117l-219 -270h-66z" />
    <glyph glyph-name="afii10110" unicode="&#x45e;" horiz-adv-x="651" 
d="M37 983h90l152 -598q13 -50 28 -126.5t21 -100.5h4q6 31 25 109.5t28 117.5l139 598h90l-135 -551q-32 -133 -54.5 -215t-55 -186t-70 -181.5t-80.5 -136.5q-74 -102 -147 -145l-45 74q77 51 145 149q63 93 92 197q10 36 10 53q0 25 -4 37zM111 1354h77q19 -148 140 -148
q118 0 137 148h78q-18 -118 -71.5 -164.5t-143.5 -46.5t-144.5 47t-72.5 164z" />
    <glyph glyph-name="afii10193" unicode="&#x45f;" horiz-adv-x="749" 
d="M121 983h88v-905h332v905h88v-983h-207l-10 -264h-70l-10 264h-211v983z" />
    <glyph glyph-name="afii10050" unicode="&#x490;" horiz-adv-x="634" 
d="M127 1380h397l27 217h70l-21 -294h-385v-1303h-88v1380z" />
    <glyph glyph-name="afii10098" unicode="&#x491;" horiz-adv-x="542" 
d="M121 983h319l21 176h67l-14 -252h-305v-907h-88v983z" />
    <glyph glyph-name="afii10846" unicode="&#x4d9;" horiz-adv-x="671" 
d="M115 883l-21 67q70 49 185 49q157 0 239 -134.5t82 -364.5q0 -234 -79 -373t-214 -139q-69 0 -120 39t-77.5 103.5t-38.5 131.5t-12 139q0 5 1 27t1 31h449q0 463 -248 463q-91 0 -147 -39zM508 387h-354q-1 -86 14.5 -151.5t41.5 -100.5t54.5 -52t57.5 -17
q55 0 96.5 48.5t63 119t26.5 153.5z" />
    <glyph glyph-name="Wgrave" unicode="&#x1e80;" horiz-adv-x="1306" 
d="M410 0h-76l-283 1380h90l148 -737q59 -292 82 -506h8q4 43 10 89.5t10.5 78t15 88t14.5 77t18.5 91t17.5 86.5l145 733h82l150 -714q72 -343 90 -529h6q31 239 86 518l143 725h88l-284 -1380h-78l-164 807q-58 297 -76 453h-4q-22 -203 -76 -461zM383 1669h133l209 -215
h-84z" />
    <glyph glyph-name="wgrave" unicode="&#x1e81;" horiz-adv-x="1095" 
d="M37 983h88l121 -516q49 -205 65 -324h8q22 149 68 320l129 520h70l123 -504q45 -182 71 -336h8q12 93 66 328l115 512h90l-244 -983h-67l-140 561q-27 99 -57 289h-4q-21 -136 -60 -297l-137 -553h-74zM324 1386h116l168 -270h-65z" />
    <glyph glyph-name="Wacute" unicode="&#x1e82;" horiz-adv-x="1306" 
d="M410 0h-76l-283 1380h90l148 -737q59 -292 82 -506h8q4 43 10 89.5t10.5 78t15 88t14.5 77t18.5 91t17.5 86.5l145 733h82l150 -714q72 -343 90 -529h6q31 239 86 518l143 725h88l-284 -1380h-78l-164 807q-58 297 -76 453h-4q-22 -203 -76 -461zM791 1669h133l-258 -215
h-84z" />
    <glyph glyph-name="wacute" unicode="&#x1e83;" horiz-adv-x="1095" 
d="M37 983h88l121 -516q49 -205 65 -324h8q22 149 68 320l129 520h70l123 -504q45 -182 71 -336h8q12 93 66 328l115 512h90l-244 -983h-67l-140 561q-27 99 -57 289h-4q-21 -136 -60 -297l-137 -553h-74zM666 1386h116l-219 -270h-65z" />
    <glyph glyph-name="Wdieresis" unicode="&#x1e84;" horiz-adv-x="1306" 
d="M410 0h-76l-283 1380h90l148 -737q59 -292 82 -506h8q4 43 10 89.5t10.5 78t15 88t14.5 77t18.5 91t17.5 86.5l145 733h82l150 -714q72 -343 90 -529h6q31 239 86 518l143 725h88l-284 -1380h-78l-164 807q-58 297 -76 453h-4q-22 -203 -76 -461zM502 1497h-2
q-30 0 -48 19.5t-18 54.5q0 33 19 53.5t49 20.5q33 0 50 -20t17 -54q0 -74 -67 -74zM805 1497h-2q-30 0 -48 19.5t-18 54.5q0 33 19 53.5t49 20.5q33 0 50 -20t17 -54q0 -74 -67 -74z" />
    <glyph glyph-name="wdieresis" unicode="&#x1e85;" horiz-adv-x="1095" 
d="M37 983h88l121 -516q49 -205 65 -324h8q22 149 68 320l129 520h70l123 -504q45 -182 71 -336h8q12 93 66 328l115 512h90l-244 -983h-67l-140 561q-27 99 -57 289h-4q-21 -136 -60 -297l-137 -553h-74zM406 1165h-3q-29 0 -49 20t-20 48q0 29 20.5 48t51.5 19
q28 0 46.5 -19t18.5 -48q0 -28 -19 -48t-46 -20zM696 1165h-2q-29 0 -49 20t-20 48q0 29 20 48t51 19q28 0 47 -19t19 -48q0 -28 -19 -48t-47 -20z" />
    <glyph glyph-name="Ygrave" unicode="&#x1ef2;" horiz-adv-x="796" 
d="M444 0h-88v618l-305 762h94l140 -356q89 -229 121 -324h4q26 81 122 330l140 350h94l-322 -757v-623zM139 1649h133l209 -215h-84z" />
    <glyph glyph-name="ygrave" unicode="&#x1ef3;" horiz-adv-x="651" 
d="M37 983h90l152 -598q13 -50 28 -126.5t21 -100.5h4q6 31 25 109.5t28 117.5l139 598h90l-135 -551q-32 -133 -54.5 -215t-55 -186t-70 -181.5t-80.5 -136.5q-74 -102 -147 -145l-45 74q77 51 145 149q63 93 92 197q10 36 10 53q0 25 -4 37zM113 1386h116l168 -270h-65z
" />
    <glyph glyph-name="endash" unicode="&#x2013;" horiz-adv-x="1024" 
d="M61 567h902v-69h-902v69z" />
    <glyph glyph-name="emdash" unicode="&#x2014;" horiz-adv-x="2048" 
d="M61 567h1926v-69h-1926v69z" />
    <glyph glyph-name="quoteleft" unicode="&#x2018;" horiz-adv-x="346" 
d="M178 965l-117 -21q26 109 78.5 254t79.5 191l66 10q-25 -66 -59.5 -203.5t-47.5 -230.5z" />
    <glyph glyph-name="quoteright" unicode="&#x2019;" horiz-adv-x="346" 
d="M168 1380l117 21q-26 -109 -78.5 -254t-79.5 -191l-66 -10q25 66 59.5 203.5t47.5 230.5z" />
    <glyph glyph-name="quotesinglbase" unicode="&#x201a;" horiz-adv-x="346" 
d="M127 -248l-66 -10q25 66 59.5 203.5t47.5 230.5l117 21q-26 -109 -78.5 -254t-79.5 -191z" />
    <glyph glyph-name="quotedblleft" unicode="&#x201c;" horiz-adv-x="589" 
d="M178 965l-117 -21q26 109 78.5 254t79.5 191l66 10q-25 -66 -59.5 -203.5t-47.5 -230.5zM422 965l-117 -21q26 109 78.5 254t79.5 191l65 10q-25 -66 -59 -203t-47 -231z" />
    <glyph glyph-name="quotedblright" unicode="&#x201d;" horiz-adv-x="589" 
d="M168 1380l117 21q-26 -109 -78.5 -254t-79.5 -191l-66 -10q25 66 59.5 203.5t47.5 230.5zM412 1380l116 21q-26 -109 -78 -254t-79 -191l-66 -10q25 66 59.5 203.5t47.5 230.5z" />
    <glyph glyph-name="quotedblbase" unicode="&#x201e;" horiz-adv-x="589" 
d="M127 -248l-66 -10q25 66 59.5 203.5t47.5 230.5l117 21q-26 -109 -78.5 -254t-79.5 -191zM371 -248l-66 -10q25 66 59.5 203.5t47.5 230.5l116 21q-26 -109 -78 -254t-79 -191z" />
    <glyph glyph-name="dagger" unicode="&#x2020;" horiz-adv-x="722" 
d="M315 1380h93l-13 -417l267 12v-88l-267 14l13 -1001h-93l13 1001l-267 -14v88l267 -12z" />
    <glyph glyph-name="daggerdbl" unicode="&#x2021;" horiz-adv-x="722" 
d="M315 1380h93l-9 -417l263 12v-88l-263 14v-500l263 15v-88l-263 12l9 -442h-93l9 442l-263 -12v88l263 -15v500l-263 -14v88l263 -12z" />
    <glyph glyph-name="bullet" unicode="&#x2022;" horiz-adv-x="489" 
d="M244 336h-2q-74 0 -127.5 53t-53.5 129q-1 75 53.5 128.5t129.5 53.5q76 0 130 -53.5t54 -128.5t-54 -128.5t-130 -53.5z" />
    <glyph glyph-name="ellipsis" unicode="&#x2026;" horiz-adv-x="2048" 
d="M342 -16h-2q-31 0 -50.5 22.5t-19.5 59.5t20 60.5t52 23.5q34 0 53 -23t19 -61t-18.5 -60t-53.5 -22zM1024 -16h-2q-31 0 -50.5 22.5t-19.5 59.5t20 60.5t52 23.5q34 0 53 -23t19 -61t-18.5 -60t-53.5 -22zM1706 -16h-2q-31 0 -50.5 22.5t-19.5 59.5t20 60.5t52 23.5
q34 0 53 -23t19 -61t-18.5 -60t-53.5 -22z" />
    <glyph glyph-name="perthousand" unicode="&#x2030;" horiz-adv-x="1884" 
d="M317 1348h2q100 0 170 -102t70 -300q0 -196 -70.5 -297.5t-171.5 -101.5q-100 0 -169.5 101.5t-69.5 297.5q0 198 69.5 300t169.5 102zM317 1278h-2q-45 0 -77 -34t-47.5 -89t-22 -106.5t-6.5 -102.5q0 -52 6.5 -103t22 -105.5t48 -88t78.5 -33.5q37 0 66.5 23.5t46 58
t27.5 81t14.5 87t3.5 80.5q0 51 -7 102.5t-22.5 106.5t-49 89t-79.5 34zM336 -33h-76l703 1395h75zM987 784h2q100 0 170 -101.5t70 -299.5q0 -196 -70.5 -297.5t-171.5 -101.5q-100 0 -169.5 101.5t-69.5 297.5q0 198 69.5 299.5t169.5 101.5zM987 715h-2
q-36 0 -64.5 -23.5t-45 -59t-27 -82.5t-14 -87.5t-3.5 -79.5q0 -52 6.5 -103t22.5 -105.5t48.5 -88t78.5 -33.5q37 0 66.5 23.5t46 58t27.5 81t14.5 87t3.5 80.5q0 51 -7 102.5t-22.5 106.5t-49 89t-79.5 34zM1565 784h2q100 0 169.5 -101.5t69.5 -299.5q0 -197 -70 -298
t-171 -101q-100 0 -170 101.5t-70 297.5q0 198 70 299.5t170 101.5zM1565 715h-2q-36 0 -64.5 -23.5t-45 -59t-27 -82.5t-14 -87.5t-3.5 -79.5q0 -52 6.5 -103t22.5 -105.5t48.5 -88t78.5 -33.5t79 33.5t49 88t22.5 105.5t6.5 103q0 51 -6.5 102.5t-22.5 106.5t-49 89
t-79 34z" />
    <glyph glyph-name="guilsinglleft" unicode="&#x2039;" horiz-adv-x="417" 
d="M356 860l-206 -344l206 -344h-90l-205 344l209 344h86z" />
    <glyph glyph-name="guilsinglright" unicode="&#x203a;" horiz-adv-x="417" 
d="M268 516l-207 344h86l209 -344l-204 -344h-91z" />
    <glyph glyph-name="fraction" unicode="&#x2044;" horiz-adv-x="761" 
d="M76 -16h-76l686 1364h76z" />
    <glyph glyph-name="fraction" unicode="&#x2215;" horiz-adv-x="761" 
d="M76 -16h-76l686 1364h76z" />
    <glyph glyph-name="zerosuperior" unicode="&#x2070;" horiz-adv-x="507" 
d="M250 844h-2q-96 0 -153.5 104.5t-57.5 302.5q0 201 61.5 306.5t163.5 105.5q98 0 153.5 -104.5t55.5 -301.5q0 -207 -60 -310t-161 -103zM254 913h2q65 0 98 93.5t33 248.5q0 153 -32.5 245.5t-98.5 92.5q-64 0 -99.5 -93t-35.5 -245q0 -155 34 -248.5t99 -93.5z" />
    <glyph glyph-name="foursuperior" unicode="&#x2074;" horiz-adv-x="514" 
d="M397 854h-80v240h-301v41l299 528h82v-504h101v-65h-101v-240zM317 1159v244q0 31 1.5 61.5t4 58.5t3.5 38h-4q-57 -115 -82 -162l-125 -234v-6h202z" />
    <glyph glyph-name="fivesuperior" unicode="&#x2075;" horiz-adv-x="466" 
d="M422 1653v-74h-242l-35 -223q12 2 41 2q94 0 156 -53q82 -68 82 -191q0 -119 -71 -194.5t-179 -75.5q-95 0 -151 39l22 65q59 -35 127 -35q70 0 119 50.5t49 140.5q0 92 -52 140t-145 48q-23 0 -77 -6l53 367h303z" />
    <glyph glyph-name="sixsuperior" unicode="&#x2076;" horiz-adv-x="507" 
d="M416 1663v-72q-39 0 -64 -6q-102 -23 -159 -108.5t-72 -196.5h4q58 86 154 86q85 0 138.5 -68.5t53.5 -181.5q0 -118 -56.5 -195t-154.5 -77q-105 0 -164 91t-59 236q0 224 106 359q78 103 209 127q37 6 64 6zM260 909h2q54 0 89.5 50.5t35.5 148.5q0 94 -36 143t-97 49
q-38 0 -72.5 -25t-54.5 -71q-8 -20 -8 -45q0 -121 38 -185.5t103 -64.5z" />
    <glyph glyph-name="sevensuperior" unicode="&#x2077;" horiz-adv-x="428" 
d="M16 1653h408v-51l-287 -748h-82l283 723v2h-322v74z" />
    <glyph glyph-name="eightsuperior" unicode="&#x2078;" horiz-adv-x="503" 
d="M260 1663h2q86 0 134 -57t48 -131q0 -120 -116 -191v-4q139 -83 139 -215q0 -95 -61 -158t-156 -63q-100 0 -156.5 61.5t-56.5 143.5q0 143 141 229v2q-54 33 -83 81.5t-29 100.5q0 90 56 145.5t138 55.5zM252 907h2q56 0 92.5 40t36.5 112q0 68 -35 111t-102 77
q-58 -29 -91.5 -78.5t-33.5 -105.5q0 -70 35 -113t96 -43zM256 1599h-2q-49 0 -79 -36t-30 -93q0 -59 31.5 -95.5t87.5 -63.5q98 60 98 155q0 61 -27 97t-79 36z" />
    <glyph glyph-name="ninesuperior" unicode="&#x2079;" horiz-adv-x="501" 
d="M86 844v71q22 0 66 7q77 16 129 71q78 81 98 236h-2q-59 -76 -152 -76q-84 0 -136 66t-52 172q0 113 60 192.5t155 79.5q102 0 157.5 -90.5t55.5 -233.5q0 -225 -113 -368q-77 -99 -190 -121q-29 -6 -76 -6zM246 1597h-2q-50 0 -87.5 -52t-37.5 -148q0 -87 35 -132.5
t94 -45.5q39 0 73 21t52 58q8 16 8 43q0 126 -36 191t-99 65z" />
    <glyph glyph-name="parenleftsuperior" unicode="&#x207d;" horiz-adv-x="319" 
d="M221 1731h68q-137 -204 -137 -502q0 -291 137 -498h-68q-141 199 -141 498q0 303 141 502z" />
    <glyph glyph-name="parenrightsuperior" unicode="&#x207e;" horiz-adv-x="319" 
d="M96 731h-67q137 207 137 500t-137 500h67q144 -199 144 -500q0 -297 -144 -500z" />
    <glyph glyph-name="zeroinferior" unicode="&#x2080;" horiz-adv-x="507" 
d="M250 -311h-2q-96 0 -153.5 104.5t-57.5 302.5q0 201 61.5 306.5t163.5 105.5q98 0 153.5 -104.5t55.5 -301.5q0 -207 -60 -310t-161 -103zM254 -242h2q65 0 98 93.5t33 248.5q0 153 -32.5 245.5t-98.5 92.5q-64 0 -99.5 -93t-35.5 -245q0 -155 34 -248.5t99 -93.5z" />
    <glyph glyph-name="oneinferior" unicode="&#x2081;" horiz-adv-x="399" 
d="M279 -301h-80v715h-4l-154 -86l-14 69l186 101h66v-799z" />
    <glyph glyph-name="twoinferior" unicode="&#x2082;" horiz-adv-x="464" 
d="M-2 -301v29l76 94q42 52 55 69t53 70t57.5 84t42 77.5t34.5 87t10 77.5q0 73 -37 110t-99 37q-73 0 -137 -59l-30 59q30 30 79 52t109 22q94 0 146.5 -59t52.5 -154q0 -160 -209 -424l-78 -96v-4h303v-72h-428z" />
    <glyph glyph-name="threeinferior" unicode="&#x2083;" horiz-adv-x="450" 
d="M55 391l-24 60q70 57 170 57q86 0 136 -50t50 -132q0 -57 -33.5 -106t-93.5 -75v-4q60 -14 107 -68.5t47 -140.5q0 -105 -69 -174t-187 -69q-91 0 -164 47l26 65q71 -43 148 -43q71 0 116.5 42.5t45.5 123.5q0 178 -199 178h-10v62h12q53 0 112.5 42t59.5 113
q0 57 -31.5 88t-85.5 31q-74 0 -133 -47z" />
    <glyph glyph-name="fourinferior" unicode="&#x2084;" horiz-adv-x="514" 
d="M397 -301h-80v240h-301v41l299 528h82v-504h101v-65h-101v-240zM317 4v244q0 31 1.5 61.5t4 58.5t3.5 38h-4q-57 -115 -82 -162l-125 -234v-6h202z" />
    <glyph glyph-name="fiveinferior" unicode="&#x2085;" horiz-adv-x="466" 
d="M422 498v-74h-242l-35 -223q12 2 41 2q94 0 156 -53q82 -68 82 -191q0 -119 -71 -194.5t-179 -75.5q-95 0 -151 39l22 65q59 -35 127 -35q70 0 119 50.5t49 140.5q0 92 -52 140t-145 48q-23 0 -77 -6l53 367h303z" />
    <glyph glyph-name="sixinferior" unicode="&#x2086;" horiz-adv-x="507" 
d="M416 508v-72q-39 0 -64 -6q-102 -23 -159 -108.5t-72 -196.5h4q58 86 154 86q85 0 138.5 -68.5t53.5 -181.5q0 -118 -56.5 -195t-154.5 -77q-105 0 -164 91t-59 236q0 224 106 359q78 103 209 127q37 6 64 6zM260 -246h2q54 0 89.5 50.5t35.5 148.5q0 94 -36 143t-97 49
q-38 0 -72.5 -25t-54.5 -71q-8 -20 -8 -45q0 -121 38 -185.5t103 -64.5z" />
    <glyph glyph-name="seveninferior" unicode="&#x2087;" horiz-adv-x="428" 
d="M16 498h408v-52l-287 -747h-82l283 723v2h-322v74z" />
    <glyph glyph-name="eightinferior" unicode="&#x2088;" horiz-adv-x="503" 
d="M260 508h2q86 0 134 -57t48 -132q0 -119 -116 -190v-4q139 -83 139 -215q0 -95 -61 -158t-156 -63q-100 0 -156.5 61.5t-56.5 143.5q0 143 141 229v2q-54 33 -83 81.5t-29 100.5q0 90 56 145.5t138 55.5zM252 -248h2q56 0 92.5 40t36.5 112q0 68 -35 111t-102 77
q-58 -29 -91.5 -78.5t-33.5 -105.5q0 -70 35 -113t96 -43zM256 444h-2q-49 0 -79 -36t-30 -93q0 -59 31.5 -95.5t87.5 -63.5q98 60 98 155q0 61 -27 97t-79 36z" />
    <glyph glyph-name="nineinferior" unicode="&#x2089;" horiz-adv-x="501" 
d="M86 -311v71q22 0 66 7q77 16 129 71q78 81 98 236h-2q-59 -76 -152 -76q-84 0 -136 66t-52 172q0 113 60 192.5t155 79.5q102 0 157.5 -90.5t55.5 -233.5q0 -225 -113 -368q-77 -99 -190 -121q-29 -6 -76 -6zM246 442h-2q-50 0 -87.5 -52t-37.5 -148q0 -87 35 -133
t94 -46q39 0 73 21t52 59q8 16 8 43q0 126 -36 191t-99 65z" />
    <glyph glyph-name="parenleftinferior" unicode="&#x208d;" horiz-adv-x="319" 
d="M221 575h68q-137 -204 -137 -501q0 -291 137 -498h-68q-141 199 -141 498q0 302 141 501z" />
    <glyph glyph-name="parenrightinferior" unicode="&#x208e;" horiz-adv-x="319" 
d="M96 -424h-67q137 207 137 500q0 292 -137 499h67q144 -199 144 -499q0 -297 -144 -500z" />
    <glyph glyph-name="Euro" unicode="&#x20ac;" 
d="M690 113l27 -66q-33 -25 -87.5 -44t-111.5 -19q-160 0 -260 122q-115 138 -135 433h-96v71h92v33q0 69 2 96h-94v72h100q30 293 170 436q101 101 233 101q90 0 166 -54l-30 -71q-21 17 -62 31t-80 14q-101 0 -172 -74q-110 -113 -135 -383h367v-72h-373q-2 -20 -2 -80
v-49h375v-71h-371q16 -241 98 -361q79 -115 217 -115q42 0 87.5 16t74.5 34z" />
    <glyph glyph-name="afii61289" unicode="&#x2113;" 
d="M268 1061v-440q221 289 221 583q0 92 -28.5 131t-69.5 39q-54 0 -88.5 -76.5t-34.5 -236.5zM641 166l45 -45q-34 -53 -98 -96t-148 -43q-135 0 -196.5 102.5t-61.5 312.5v33q-38 -36 -86 -72l-35 50q62 53 121 112v506q0 124 17 210.5t48 132t67.5 64.5t82.5 19
q70 0 122 -63t52 -183q0 -177 -82 -354t-221 -334v-67q0 -118 13 -197t38.5 -120t56 -57t73.5 -16q63 0 108 29t84 76z" />
    <glyph glyph-name="afii61352" unicode="&#x2116;" horiz-adv-x="1384" 
d="M1102 1356h2q104 0 161.5 -83.5t57.5 -254.5q0 -167 -65.5 -252.5t-163.5 -85.5q-97 0 -163.5 85.5t-66.5 252.5q0 161 69 249.5t169 88.5zM1094 1292h-2q-48 0 -81.5 -45t-47 -104.5t-13.5 -124.5q0 -61 13.5 -121t47.5 -107t83 -47q43 0 73.5 26.5t45 70.5t20.5 87
t6 91t-6 91.5t-20.5 87t-45 69.5t-73.5 26zM1292 514h-397v72h397v-72zM211 0h-84v1380h88l279 -712q141 -360 194 -529h4q-14 262 -14 631v610h84v-1380h-88l-295 750q-122 307 -178 501h-4q14 -213 14 -669v-582z" />
    <glyph glyph-name="trademark" unicode="&#x2122;" horiz-adv-x="1003" 
d="M51 1380h350v-59h-143v-498h-63v498h-144v59zM952 823h-67l-21 379q-3 44 -6 119h-2q-5 -18 -17.5 -66t-17.5 -67l-94 -357h-76l-96 367q-9 37 -33 123h-2q0 -33 -4 -119l-20 -379h-64l35 557h98l94 -344q7 -24 18 -66.5t13 -49.5h2q25 97 29 112l94 348h98z" />
    <glyph glyph-name="estimated" unicode="&#x212e;" horiz-adv-x="1673" 
d="M1602 647h-1240q-10 0 -10 -8v-375q0 -20 19 -43q89 -95 211 -149t258 -54q145 0 272.5 60.5t218.5 167.5h113q-107 -124 -266 -196.5t-340 -72.5q-155 0 -297 54.5t-244.5 146.5t-163.5 220t-61 268q0 187 103 345.5t279 250.5t384 92q156 0 297 -54.5t243.5 -146.5
t163 -219.5t60.5 -267.5v-19zM1323 696v377q0 25 -20 45q-92 92 -211.5 143.5t-251.5 51.5q-135 0 -255 -53t-212 -148q-21 -21 -21 -47v-369q0 -10 10 -10h951q10 0 10 10z" />
    <glyph glyph-name="partialdiff" unicode="&#x2202;" horiz-adv-x="768" 
d="M133 1335l-29 62q56 41 108 63.5t122 22.5q56 0 108 -22.5t101.5 -75.5t85.5 -131t58 -198.5t22 -269.5q0 -172 -23.5 -311.5t-61.5 -229t-88 -150t-100.5 -86t-101.5 -25.5q-113 0 -184.5 100t-71.5 307q0 214 104 358t240 144q133 0 199 -123h2v45q0 151 -24.5 267.5
t-66.5 184.5t-93 102t-107 34q-112 0 -199 -68zM342 61h2q69 0 130 77.5t99 212.5t43 296q-31 82 -81 125t-105 43q-106 0 -184 -118.5t-78 -297.5q0 -180 50 -259t124 -79z" />
    <glyph glyph-name="uni2206" unicode="&#x2206;" horiz-adv-x="790" 
d="M750 0h-709v61l311 1287h80l318 -1287v-61zM659 78l-200 829q-41 159 -66 316h-8q-20 -144 -63 -318l-193 -827h530z" />
    <glyph glyph-name="product" unicode="&#x220f;" horiz-adv-x="860" 
d="M840 1251h-117v-1435h-86v1435h-414v-1435h-86v1435h-117v80h820v-80z" />
    <glyph glyph-name="summation" unicode="&#x2211;" horiz-adv-x="743" 
d="M743 -184h-727v67l414 682l-385 701v65h643v-76h-532v-8l370 -676l-401 -667v-10h618v-78z" />
    <glyph glyph-name="minus" unicode="&#x2212;" horiz-adv-x="1220" 
d="M82 586h1057v-78h-1057v78z" />
    <glyph glyph-name="radical" unicode="&#x221a;" horiz-adv-x="1073" 
d="M1051 1677l-418 -1890h-70l-274 897l-139 -53l-29 69l223 86l215 -729q30 -109 33 -145h2q3 44 22 137l353 1628h82z" />
    <glyph glyph-name="infinity" unicode="&#x221e;" horiz-adv-x="1460" 
d="M1092 264h-2q-32 0 -62 6.5t-60 22t-52 28.5t-52.5 39.5t-45 40t-46 44.5t-41.5 40q-97 -97 -141 -131q-117 -90 -236 -90q-118 0 -194 77t-76 198q0 115 83 196.5t204 81.5q28 0 56.5 -6.5t50.5 -14.5t50 -26t44 -29t44 -36.5t39 -36t40 -40t36 -36.5q43 45 61.5 63.5
t63.5 57t77 56t79.5 33t95.5 15.5q118 0 194 -77t76 -201q0 -112 -83 -193.5t-203 -81.5zM1096 342h2q84 0 141 58.5t57 138.5q0 87 -54 143.5t-140 56.5q-38 0 -78 -14.5t-67 -30.5t-67 -51t-54 -50t-52 -54q16 -15 52.5 -51t59 -55t56.5 -43.5t69.5 -36t74.5 -11.5z
M360 342h2q46 0 91 17t90 53t68.5 59t66.5 68q-17 16 -52.5 51t-58.5 56t-56.5 45t-69 36t-74.5 12q-86 0 -143.5 -58.5t-57.5 -141.5q0 -84 54.5 -140.5t139.5 -56.5z" />
    <glyph glyph-name="integral" unicode="&#x222b;" horiz-adv-x="593" 
d="M553 1597l-21 -71q-32 8 -49 8q-52 0 -86 -39q-35 -39 -49 -117t-14 -217q0 -145 6 -499t6 -496q0 -289 -92 -391q-57 -64 -143 -64q-36 0 -66 15l18 71q32 -8 54 -8q52 0 84 43q33 45 50 119t17 219q0 143 -6 499.5t-6 497.5q0 151 21 240.5t71 142.5q59 62 141 62
q34 0 64 -15z" />
    <glyph glyph-name="approxequal" unicode="&#x2248;" horiz-adv-x="1220" 
d="M1108 827l49 -59q-52 -53 -133 -93t-164 -40q-44 0 -87 8.5t-66.5 17t-63.5 26.5t-51 22q-8 3 -46.5 20t-59 24.5t-59 16t-75.5 8.5q-64 0 -133 -34t-115 -80l-49 59q52 53 133 93t164 40q44 0 87.5 -9t66.5 -17t64 -26t51 -22q9 -4 46.5 -20.5t58 -24.5t59 -16t75.5 -8
q64 0 133 34t115 80zM1120 438l49 -59q-52 -53 -133 -93t-164 -40q-44 0 -87.5 8.5t-66 16.5t-64 26t-50.5 22q-10 4 -46.5 20.5t-58 24.5t-59.5 16.5t-75 8.5q-63 0 -132 -34t-116 -81l-49 60q52 53 133 93t164 40q44 0 87 -8.5t66.5 -17t63.5 -26.5t51 -22
q9 -4 46.5 -20.5t58 -24.5t59 -16t75.5 -8q64 0 133 34t115 80z" />
    <glyph glyph-name="notequal" unicode="&#x2260;" horiz-adv-x="1220" 
d="M1139 319h-633l-176 -276h-88l176 276h-336v78h385l199 312h-584v77h633l176 277h88l-176 -277h336v-77h-385l-199 -312h584v-78z" />
    <glyph glyph-name="lessequal" unicode="&#x2264;" horiz-adv-x="1220" 
d="M1075 180l-930 416v78l930 416v-89l-827 -364v-4l827 -365v-88zM1075 0h-930v78h930v-78z" />
    <glyph glyph-name="greaterequal" unicode="&#x2265;" horiz-adv-x="1220" 
d="M1075 596l-930 -416v88l828 365v4l-828 364v89l930 -416v-78zM1075 0h-930v78h930v-78z" />
    <glyph glyph-name="lozenge" unicode="&#x25ca;" horiz-adv-x="937" 
d="M819 666l-311 -682h-78l-311 682l311 682h78zM729 664l-244 542q-9 18 -16 49h-4q-7 -31 -16 -49l-240 -538l244 -543q9 -18 16 -49h4q9 34 16 49z" />
    <glyph glyph-name="uniEFED" unicode="&#xefed;" horiz-adv-x="614" 
d="M311 1503h-2q-29 0 -49 20t-20 48q0 29 20 48t51 19q28 0 47 -19t19 -48q0 -28 -19 -48t-47 -20z" />
    <glyph glyph-name="uniEFEE" unicode="&#xefee;" horiz-adv-x="614" 
d="M106 1632h62q10 -42 47 -65t90 -23q120 0 141 88h62q0 -76 -56.5 -124t-144.5 -48q-90 0 -145.5 45.5t-55.5 126.5z" />
    <glyph glyph-name="uniEFF1" unicode="&#xeff1;" horiz-adv-x="614" 
d="M289 10h78q-113 -150 -113 -233q0 -48 26.5 -73.5t59.5 -25.5q44 0 92 23l17 -59q-50 -41 -130 -41q-67 0 -110 39t-43 108q0 72 37.5 141t85.5 121z" />
    <glyph glyph-name="uniEFF2" unicode="&#xeff2;" horiz-adv-x="614" 
d="M311 10h72l-64 -121q53 -6 92.5 -46.5t39.5 -96.5q0 -74 -49.5 -113t-112.5 -39q-66 0 -125 39l29 66q48 -31 98 -31q34 0 57 16.5t23 53.5q0 81 -142 98z" />
    <glyph glyph-name="uniEFF3" unicode="&#xeff3;" horiz-adv-x="819" 
d="M418 1767h2q73 0 123.5 -51t50.5 -125q0 -71 -52.5 -120.5t-123.5 -49.5q-75 0 -126.5 49.5t-51.5 120.5q0 73 51 124.5t127 51.5zM416 1708h-2q-44 0 -72.5 -35t-28.5 -82q0 -41 30 -74.5t73 -33.5q45 0 74.5 32.5t29.5 79.5t-29.5 80t-74.5 33z" />
    <glyph glyph-name="uniEFF5" unicode="&#xeff5;" horiz-adv-x="614" 
d="M166 1470h-62q0 71 30 117.5t83 46.5q9 0 18 -2t15 -3.5t16 -6.5t13.5 -6.5t14.5 -8.5t13 -8q4 -2 20.5 -12.5t22.5 -13t18 -6.5t23 -4q27 0 41 16.5t17 56.5h59q0 -68 -28 -110.5t-91 -42.5q-39 0 -94 37q-4 3 -15 9.5t-16.5 9.5t-14 7.5t-16 6t-14.5 1.5
q-26 0 -37 -19.5t-16 -64.5z" />
    <glyph glyph-name="uniEFF7" unicode="&#xeff7;" horiz-adv-x="614" 
d="M262 1638h90l183 -184h-103l-123 117h-4l-123 -117h-102z" />
    <glyph glyph-name="uniF629" unicode="&#xf629;" horiz-adv-x="466" 
d="M301 -10h-63v121q-73 12 -121 65q-66 73 -66 227q0 112 51 191t138 96v117h61v-113q59 0 98 -24l-18 -66q-41 25 -98 25q-72 0 -110 -71t-38 -161q0 -102 40.5 -161.5t109.5 -59.5q52 0 104 23l14 -62q-41 -25 -102 -28v-119z" />
    <glyph glyph-name="uniF62A" unicode="&#xf62a;" horiz-adv-x="485" 
d="M266 -102h-61v122q-91 0 -152 46l25 65q63 -45 137 -45q59 0 94 37.5t35 95.5q0 54 -29.5 93t-89.5 71q-79 41 -122.5 86.5t-43.5 116.5q0 73 42.5 123.5t107.5 64.5v121h63v-115q76 0 127 -37l-22 -63q-57 35 -121 35q-55 0 -85 -34.5t-30 -80.5q0 -53 28 -82.5
t101 -68.5q78 -42 116 -95t38 -125q0 -81 -43.5 -135.5t-114.5 -68.5v-127z" />
    <glyph glyph-name="uniF62B" unicode="&#xf62b;" horiz-adv-x="354" 
d="M37 414h280v-66h-280v66z" />
    <glyph glyph-name="uniF62C" unicode="&#xf62c;" horiz-adv-x="319" 
d="M221 877h68q-137 -204 -137 -502q0 -291 137 -498h-68q-141 199 -141 498q0 303 141 502z" />
    <glyph glyph-name="uniF62D" unicode="&#xf62d;" horiz-adv-x="319" 
d="M96 -123h-67q137 207 137 500t-137 500h67q144 -199 144 -500q0 -297 -144 -500z" />
    <glyph glyph-name="uniF62E" unicode="&#xf62e;" horiz-adv-x="466" 
d="M301 528h-63v121q-72 12 -121 66q-66 73 -66 227q0 112 51 191t138 96v117h61v-113q57 0 98 -25l-18 -65q-39 24 -98 24q-72 0 -110 -70.5t-38 -160.5q0 -102 40.5 -161.5t109.5 -59.5q55 0 104 22l14 -61q-43 -26 -102 -29v-119z" />
    <glyph glyph-name="uniF62F" unicode="&#xf62f;" horiz-adv-x="485" 
d="M266 436h-61v123q-93 0 -152 45l25 66q63 -45 137 -45q59 0 94 37.5t35 95.5q0 54 -29.5 93t-89.5 71q-79 41 -122.5 86t-43.5 116q0 73 42.5 124t107.5 65v121h63v-115q76 0 127 -37l-22 -63q-56 34 -121 34q-55 0 -85 -34.5t-30 -79.5q0 -53 28 -83t101 -69
q78 -42 116 -94.5t38 -124.5q0 -82 -43.5 -136.5t-114.5 -68.5v-127z" />
    <glyph glyph-name="uniF630" unicode="&#xf630;" horiz-adv-x="354" 
d="M37 952h280v-65h-280v65z" />
    <glyph glyph-name="uniF631" unicode="&#xf631;" horiz-adv-x="319" 
d="M221 1415h68q-137 -204 -137 -502q0 -290 137 -497h-68q-141 199 -141 497q0 303 141 502z" />
    <glyph glyph-name="uniF632" unicode="&#xf632;" horiz-adv-x="319" 
d="M96 416h-67q137 207 137 499q0 293 -137 500h67q144 -199 144 -500q0 -296 -144 -499z" />
    <glyph glyph-name="uniF633" unicode="&#xf633;" horiz-adv-x="1167" 
d="M713 664l67 319q-21 8 -59 8q-70 0 -132.5 -44.5t-104 -113t-65.5 -150t-24 -157.5q0 -73 24.5 -106t63.5 -33q71 0 139 86.5t91 190.5zM815 111l23 -62q-118 -76 -289 -76q-215 0 -344 144.5t-129 431.5q0 177 51 336t137 273t204 180.5t247 66.5q183 0 287 -126
t104 -345q0 -295 -87 -456t-222 -161q-49 0 -79 39.5t-22 118.5h-4q-95 -158 -223 -158q-72 0 -116 53t-44 158q0 54 12.5 113t36 119t61.5 114t86 96t113 66.5t138 24.5q65 0 116 -21l-90 -436q-22 -110 -12.5 -163.5t47.5 -53.5q53 0 101 66t78 183t30 253q0 442 -321 442
q-110 0 -210 -58.5t-174.5 -161t-118.5 -250t-44 -316.5q0 -243 105.5 -369.5t307.5 -126.5q71 0 126 15.5t118 46.5z" />
    <glyph glyph-name="uniF634" unicode="&#xf634;" horiz-adv-x="614" 
d="M231 -424l-28 49q59 16 99 51.5t40 90.5q0 70 -72 124l86 23q28 -20 48 -58t20 -81q0 -83 -56 -132t-137 -67z" />
    <glyph glyph-name="uniF638" unicode="&#xf638;" 
d="M195 260l311 905q-56 105 -137 105q-56 0 -99 -47.5t-68.5 -132t-38.5 -191.5t-13 -233q0 -248 45 -406zM543 1071l-310 -907q55 -103 136 -103q56 0 99 48t68.5 132t38.5 191.5t13 233.5q0 247 -45 405zM649 1354l-63 -160q92 -182 92 -528q0 -348 -88 -515t-232 -167
q-91 0 -159 82l-43 -111l-66 31l62 151q-93 178 -93 529q0 348 88.5 515t233.5 167q92 0 160 -82l45 114z" />
    <glyph glyph-name="uniF639" unicode="&#xf639;" 
d="M358 -16h-2q-61 0 -113 39t-94 117.5t-66 213.5t-24 312q0 348 88.5 515t233.5 167q61 0 113 -39t94 -117.5t66 -213.5t24 -312q0 -348 -88 -515t-232 -167zM369 61h2q55 0 97.5 48t68 132t38.5 191.5t13 233.5t-13 233t-38.5 191.5t-68.5 132t-99 47.5t-99 -47.5
t-68.5 -132t-38.5 -191.5t-13 -233t13 -233.5t38.5 -191.5t68.5 -132t99 -48z" />
    <glyph glyph-name="uniF63A" unicode="&#xf63a;" horiz-adv-x="636" 
d="M586 0h-586v53l98 144q10 15 31 45q61 88 94 137.5t86.5 140.5t82 158.5t51 153.5t22.5 163q0 131 -51 202t-150 71q-29 0 -56 -5.5t-49 -17t-35 -19.5t-30 -21.5t-18 -14.5l-33 63q95 95 238 95q131 0 202.5 -96t71.5 -255q0 -90 -27 -187t-80.5 -202t-104.5 -188.5
t-128 -196.5l-94 -139v-4h465v-80z" />
    <glyph glyph-name="uniF63B" unicode="&#xf63b;" horiz-adv-x="649" 
d="M16 47l33 72q88 -58 189 -58q110 0 178.5 82t68.5 228q0 144 -75 229.5t-205 85.5h-37v72h33q36 0 78 17.5t81 50t65 87.5t26 121q0 115 -51.5 175.5t-137.5 60.5q-78 0 -166 -70l-33 68q37 34 94.5 57t123.5 23q118 0 189 -83t71 -214q0 -103 -52 -188.5t-151 -131.5v-4
q45 -11 85 -35.5t75.5 -66t56 -107t20.5 -147.5q0 -170 -93 -278.5t-249 -108.5q-57 0 -118.5 17.5t-98.5 45.5z" />
    <glyph glyph-name="uniF63C" unicode="&#xf63c;" horiz-adv-x="716" 
d="M545 0h-86v397h-434v60l432 874h88v-858h151v-76h-151v-397zM127 473h332v440q0 126 10 289h-8q-56 -134 -123 -278l-211 -447v-4z" />
    <glyph glyph-name="uniF63D" unicode="&#xf63d;" horiz-adv-x="696" 
d="M621 1331v-80h-363l-70 -426q18 6 56 6q64 0 135.5 -26.5t118.5 -73.5q110 -110 110 -303q0 -197 -105.5 -320.5t-260.5 -123.5q-59 0 -117 16t-96 45l32 72q32 -21 82.5 -38.5t100.5 -17.5q112 0 193 93t81 264q0 167 -83 251.5t-226 84.5q-55 0 -111 -9l92 586h431z
" />
    <glyph glyph-name="uniF63E" unicode="&#xf63e;" 
d="M608 1348v-82q-24 0 -84 -13q-89 -24 -157 -82t-109.5 -139t-65 -162.5t-36.5 -175.5h4q93 142 237 142q125 0 202 -110t77 -298q0 -200 -79.5 -322t-215.5 -122q-80 0 -142 42.5t-99 117t-55.5 169.5t-18.5 207q0 355 143 588q55 89 140.5 147.5t180.5 79.5q49 10 78 13
zM383 61h2q28 0 54.5 9t54 34t47.5 62.5t32.5 100t12.5 141.5q0 181 -58 265.5t-155 84.5q-64 0 -120.5 -44t-90.5 -132q-10 -30 -10 -58q1 -121 19 -212.5t50.5 -145t73 -79.5t88.5 -26z" />
    <glyph glyph-name="uniF63F" unicode="&#xf63f;" horiz-adv-x="593" 
d="M0 1331h590v-45l-438 -1286h-89l433 1247v4h-496v80z" />
    <glyph glyph-name="uniF640" unicode="&#xf640;" 
d="M381 1348h2q55 0 100 -20t72.5 -51t46 -72t26 -81t7.5 -80q0 -192 -182 -327v-6q217 -162 217 -373q0 -93 -34.5 -172.5t-105.5 -130.5t-165 -51q-78 0 -138 32t-93 83t-49.5 105t-16.5 107q0 72 20 135t56 112t71.5 83.5t81.5 69.5l-2 4q-83 58 -132.5 141t-49.5 170
q0 144 79.5 233t188.5 89zM367 61h2q89 0 150 65t61 204q0 81 -30.5 147t-72.5 108t-110 91q-97 -59 -153 -151.5t-56 -188.5q0 -127 56.5 -201t152.5 -74zM375 1270h-2q-73 0 -121.5 -62.5t-48.5 -167.5q0 -39 7 -72.5t23.5 -62.5t29.5 -48t41 -42.5t40 -33t43 -31.5
q158 122 158 280q0 113 -45.5 176.5t-124.5 63.5z" />
    <glyph glyph-name="uniF641" unicode="&#xf641;" 
d="M129 -16v82q41 0 84 12q116 31 197 121q141 161 172 444h-4q-95 -129 -234 -129q-123 0 -199.5 107.5t-76.5 285.5q0 189 85 315t214 126q79 0 139 -43t96 -117.5t54 -167t18 -199.5q0 -368 -150 -600q-56 -86 -133 -143.5t-162 -79.5q-57 -14 -100 -14zM362 1270h-2
q-35 0 -68.5 -18.5t-64.5 -57t-50 -111t-19 -168.5q0 -168 57.5 -245.5t155.5 -77.5q60 0 114.5 38.5t87.5 110.5q13 29 13 50q0 245 -61.5 362t-162.5 117z" />
    <glyph glyph-name="uniF642" unicode="&#xf642;" horiz-adv-x="1366" 
d="M317 1229h2q100 0 170 -102t70 -300q0 -196 -70.5 -297.5t-171.5 -101.5q-100 0 -169.5 101.5t-69.5 297.5q0 198 69.5 300t169.5 102zM317 1159h-2q-45 0 -77 -34t-47.5 -89t-22 -106.5t-6.5 -102.5q0 -52 6.5 -103t22 -105t48 -87.5t78.5 -33.5t79.5 33.5t49.5 87.5
t22.5 105t6.5 103q0 51 -7 102.5t-22.5 106.5t-49 89t-79.5 34zM397 -33h-75l643 1276h75zM1047 784h2q100 0 169.5 -101.5t69.5 -299.5q0 -197 -70 -298t-171 -101q-100 0 -170 101.5t-70 297.5q0 198 70 299.5t170 101.5zM1047 715h-3q-45 0 -77 -34t-47.5 -89t-22 -106.5
t-6.5 -102.5q0 -50 8 -102.5t24.5 -106t48.5 -87.5t75 -34q46 0 79 33.5t49 88t22.5 105.5t6.5 103q0 51 -6.5 102.5t-22.5 106.5t-49 89t-79 34z" />
    <glyph glyph-name="uniF643" unicode="&#xf643;" 
d="M369 -16h-2q-60 0 -112.5 29.5t-95.5 88.5t-68 161.5t-25 236.5q0 108 17 196t46 146.5t68 98.5t82 57.5t90 17.5t90 -17.5t82 -57.5t68 -98.5t46 -146.5t17 -196t-17 -196t-46 -146.5t-68 -98.5t-82 -57.5t-90 -17.5zM369 61h2q60 0 103.5 41t65.5 109.5t32 139.5
t10 149t-10 149t-32.5 139t-66 109t-104.5 41t-104.5 -41t-66 -109t-32.5 -139t-10 -149q0 -77 10.5 -149t33.5 -140t66.5 -109t102.5 -41z" />
    <glyph glyph-name="uniF644" unicode="&#xf644;" 
d="M494 0h-86v907h-5l-303 -127l-16 74l344 141h66v-995z" />
    <glyph glyph-name="uniF645" unicode="&#xf645;" 
d="M633 0h-551v53l88 99q51 56 79.5 89t74.5 89t72 98.5t54 96t41 105.5t13 103q0 100 -49.5 151.5t-130.5 51.5q-103 0 -187 -72l-33 62q42 35 107.5 62.5t132.5 27.5q106 0 178 -75t72 -202q0 -66 -18.5 -130t-58.5 -131.5t-85.5 -127.5t-116.5 -143l-106 -125v-4
q13 0 57 1t72 1h295v-80z" />
    <glyph glyph-name="uniF646" unicode="&#xf646;" 
d="M82 -180l12 71q54 -12 113 -12q140 0 230.5 84t90.5 205q0 112 -72 181t-186 69q-57 0 -77 -4l-7 75l19 3q111 13 189.5 84.5t78.5 179.5q0 84 -46 133t-124 49q-81 0 -160 -41l-24 66q36 23 90 38t106 15q119 0 184.5 -71.5t65.5 -176.5q0 -101 -58 -175.5t-145 -109.5
v-6q109 -14 184 -95.5t75 -201.5q0 -167 -122 -272t-290 -105q-74 0 -127 17z" />
    <glyph glyph-name="uniF647" unicode="&#xf647;" 
d="M698 137h-151v-366h-86v366h-420v60l418 809h88v-793h151v-76zM461 213v408q0 105 10 268h-8q-62 -160 -115 -262l-211 -410l2 -4h322z" />
    <glyph glyph-name="uniF648" unicode="&#xf648;" 
d="M109 -182l10 71q50 -10 98 -10q121 0 215 83t94 220q0 122 -82 195q-48 42 -141 66.5t-172 19.5l88 532h383l-10 -80h-307l-66 -378q210 -11 313 -119q86 -89 86 -221q0 -177 -119.5 -285.5t-293.5 -108.5q-62 0 -96 15z" />
    <glyph glyph-name="uniF649" unicode="&#xf649;" 
d="M612 1227l17 -74q-106 -26 -186.5 -76.5t-133.5 -122t-85.5 -152t-51.5 -181.5l8 2q35 69 94.5 108t126.5 39q105 0 187 -102t82 -275q0 -194 -84 -301.5t-213 -107.5q-143 0 -222 128.5t-79 336.5q0 308 143 512t397 266zM377 57h2q82 0 141.5 85t59.5 243
q0 147 -54 227t-135 80q-78 0 -139 -61q-90 -93 -90 -228q0 -167 64.5 -256.5t150.5 -89.5z" />
    <glyph glyph-name="uniF64A" unicode="&#xf64a;" 
d="M647 995v-49q-69 -257 -190 -575.5t-246 -567.5l-84 19q110 203 244.5 552t181.5 533v8h-430v80h524z" />
    <glyph glyph-name="uniF64B" unicode="&#xf64b;" 
d="M455 645v-4q85 -44 149 -128.5t64 -197.5q0 -149 -84.5 -240t-216.5 -91q-75 0 -134.5 30t-93.5 78t-51.5 100.5t-17.5 104.5q0 62 18.5 115.5t53.5 95.5t69 71t82 62v2q-184 109 -184 281q0 136 81.5 220.5t194.5 84.5q102 0 175 -79.5t73 -211.5q0 -162 -178 -293z
M381 1155h-2q-77 0 -129.5 -59.5t-52.5 -161.5q0 -88 48.5 -145t149.5 -111q150 102 150 260q0 110 -51 163.5t-113 53.5zM369 61h2q83 0 145 61t62 179q0 60 -17.5 109.5t-51.5 86t-69.5 62t-85.5 51.5q-89 -53 -141.5 -130t-52.5 -165q0 -114 56 -184t153 -70z" />
    <glyph glyph-name="uniF64C" unicode="&#xf64c;" 
d="M100 -213l-14 74q194 30 314 155.5t153 317.5h-4q-25 -50 -79 -81.5t-118 -31.5q-113 0 -193.5 103t-80.5 284q0 187 82 297.5t207 110.5q91 0 159.5 -61.5t103 -161.5t34.5 -222q0 -331 -145 -538.5t-419 -245.5zM369 295h2q65 0 116 51q41 39 63.5 102.5t22.5 133.5
q0 154 -59.5 257t-155.5 103q-78 0 -134 -79t-56 -238q0 -91 17 -157.5t47 -102.5t64 -53t73 -17z" />
    <glyph glyph-name="uniF64E" unicode="&#xf64e;" 
d="M649 100l27 -69q-67 -47 -174 -47q-140 0 -236 96q-105 100 -129 295h-80v71h74v43q0 72 4 86h-78v72h86q25 182 131 293q101 104 246 104q76 0 150 -36l-25 -74q-73 31 -135 31q-98 0 -172 -74q-87 -87 -107 -244h375v-72h-381q-4 -20 -4 -69v-60h385v-71h-377
q17 -154 101 -238q74 -74 182 -74q75 0 137 37z" />
    </font>
</defs>
</svg>
